<svg version="1.1" xmlns="http://www.w3.org/2000/svg" xmlns:xlink="http://www.w3.org/1999/xlink" width="218.37774" height="202.41923" viewBox="0,0,218.37774,202.41923"><g transform="translate(-137.70021,-77.01901)"><g data-paper-data="{&quot;isPaintingLayer&quot;:true}" fill-rule="nonzero" stroke="none" stroke-width="0.5" stroke-linecap="butt" stroke-linejoin="miter" stroke-miterlimit="10" stroke-dasharray="" stroke-dashoffset="0" style="mix-blend-mode: normal"><path d="M319.21188,133.16648c5.22938,-0.34291 11.89809,-0.51266 16.51316,2.29917c10.46843,6.37812 16.46469,23.32194 9.89255,34.21701c-0.65843,1.09151 2.15009,1.38541 3.11483,2.21859c1.04947,0.90636 2.17519,1.79914 2.90357,2.97912c3.83089,6.20604 5.43304,16.7398 3.81621,23.90004c-0.75637,3.34961 -6.3367,13.66613 -9.46916,15.52975c-2.51984,1.49914 -6.51926,2.12054 -6.44434,3.03653c0.25842,3.15951 2.54804,7.08083 3.44191,10.55857c3.1187,12.13382 7.60079,27.25341 0.90344,38.91177c-5.5399,9.64352 -17.76783,14.7085 -28.50412,11.8068c-7.23524,-1.95547 -10.48941,-6.89276 -16.12577,-11.24426c-7.1826,-5.54526 -15.1922,-8.5443 -23.21462,-12.36303c-2.71854,-1.29405 -8.49037,-5.6573 -12.05354,-6.35497c-0.77745,-0.15222 -1.44777,0.66429 -2.21513,0.86113c-2.19524,0.56313 -4.58717,0.26246 -6.72118,1.02548c-1.20932,0.43239 -3.04395,2.38221 -4.29426,3.19922c-6.16795,4.03042 -9.78525,6.27343 -16.73603,8.11264c-9.24991,2.44757 -19.4802,-0.32646 -27.85055,-4.23842c-2.21744,-1.03634 -7.77511,0.42102 -10.81272,-0.35638c-10.38564,-2.65794 -20.51251,-9.03283 -26.50194,-18.01697c-4.5985,-6.89775 -4.05447,-18.79004 -1.88323,-26.57578c0.92945,-3.33287 3.31708,-5.9843 4.34914,-9.1624c0.07416,-0.22838 -2.68958,-4.51494 -2.95339,-5.0551c-0.90376,-1.85047 -1.429,-4.80933 -2.5017,-6.62963c-2.19127,-3.71841 -5.62066,-6.55366 -8.54122,-9.7315c-8.80108,-9.57639 -23.28477,-23.48161 -18.77275,-38.67616c0.90519,-3.0483 1.92219,-6.06834 3.10316,-9.02077c1.21007,-3.02517 5.81489,-7.85016 9.00621,-8.94798c7.06291,-2.42965 12.34201,-3.54092 19.66861,-3.05136c4.50286,0.30088 9.9858,0.41496 14.52147,1.86568c4.42522,1.41539 8.62243,3.75847 13.22291,4.40764c1.3974,0.19718 2.46262,-1.38095 3.72268,-2.01645c0.52523,-0.26489 1.51979,-0.10367 1.62766,-0.68194c0.17295,-0.9271 -0.73616,-1.74063 -1.00722,-2.64393c-0.74663,-2.48818 -1.22456,-5.46984 -1.55803,-7.99661c-0.85082,-6.44692 -0.19916,-13.04619 2.29917,-19.13876c0.295,-0.7194 1.21861,-0.97628 1.74189,-1.55138c2.11616,-2.3257 3.81756,-5.04791 6.16566,-7.13919c2.29628,-2.04512 5.91267,-1.70037 8.90538,-2.40686c2.99271,-0.70649 6.06389,-2.5971 9.0416,-1.82985c2.72878,0.70311 5.15768,2.28163 7.80345,3.25144c0.40344,0.14788 6.21996,-4.57158 7.36586,-5.17231c6.01503,-3.15335 13.25587,-4.47576 20.06439,-4.31265c5.95207,0.14259 12.27302,0.73467 17.74433,3.29572c4.36787,2.04454 10.80484,4.8463 15.13436,8.00391c6.64872,4.84905 14.1373,13.72911 15.82271,21.94217c1.08066,5.2661 0.46171,6.45669 1.01716,10.40709c0.60471,4.3007 2.1037,8.53151 2.70072,12.90966z" fill="#ffff33"/><path d="M286.56349,137.48153c8.67982,0 15.71973,7.02129 15.74991,15.69403c6.23822,1.75094 9.99723,6.90785 11.15888,15.83984c0.08776,0.67473 0.17895,1.35572 0.25953,2.03951c5.97361,3.56704 11.31235,10.39429 12.71662,15.9236c3.70587,14.59184 -11.28103,28.11006 -24.80633,19.02924c-0.36594,-0.24569 -5.43596,0.98814 -6.54541,1.04495c-1.92021,0.09833 -3.75178,0.10113 -5.48665,-0.035c0.20612,0.49341 0.38659,1.00232 0.53829,1.52815c3.40257,11.79454 -0.73991,23.86561 -16.28836,23.00181c-7.82606,-0.43478 -8.08193,-7.62641 -13.09796,-10.76338c-1.80456,-1.12855 -4.30962,-1.06122 -5.97701,-2.49042c-1.09363,-0.93739 -2.05677,-1.8703 -2.89292,-2.83246c-1.84859,2.09298 -4.1463,4.10953 -5.37252,5.99553c-3.96701,6.10148 0.85308,9.70124 -6.64453,13.98559c-13.00441,7.43109 -22.73479,-0.56401 -24.85547,-13.28906c-1.33586,-8.01575 3.75363,-17.49789 9.2019,-22.94617c0.02688,-0.68499 0.09752,-1.35873 0.20918,-2.01853c-0.10493,-1.3641 0.08463,-2.64793 0.51371,-3.83596c-0.261,-0.34636 -0.51211,-0.70842 -0.75257,-1.08627c-0.03992,-0.0085 -0.07977,-0.01715 -0.11957,-0.02595c-4.70804,-0.32469 -8.23213,-3.41731 -10.26738,-7.43853c-4.80407,4.22443 -9.5874,6.27382 -16.35268,4.92076c-10.72534,-2.14506 -12.83985,-15.85025 -12.19025,-24.25766c0.18686,-2.41843 1.9883,-4.4399 3.25661,-6.50754c0.66779,-1.08865 4.97672,-3.41128 5.48808,-3.71917c6.13193,-3.69192 13.47071,-5.37983 20.47144,-6.78429c0.67465,-0.13535 2.24111,0.23381 3.00977,-0.26771c4.08337,-2.66422 8.82324,-7.43641 14.21754,-6.76211c0.12532,-0.00295 0.25099,-0.00442 0.37702,-0.00442c0.85162,0 1.68744,0.06759 2.50241,0.1977c1.20066,0.07299 2.3923,0.18071 3.50395,0.60465c0.15861,0.06049 0.31526,0.12313 0.46997,0.18787c-0.67682,-10.33765 7.63318,-21.85698 16.92211,-24.82878c7.86519,-2.51631 14.94902,5.57948 18.11586,11.91317l1.80447,7.32701c-0.01916,1.48448 -0.67017,3.0179 -0.64586,4.47854c0.00038,0.02293 0.19525,0.39357 0.50185,0.96656c2.86254,-2.95112 6.87028,-4.78512 11.30638,-4.78512zM273.05395,181.68114c-1.88633,-2.02643 -2.93699,-4.52802 -2.23511,-7.68646c-0.00356,-0.13782 -0.00536,-0.27608 -0.00536,-0.41476c0,-1.492 0.20746,-2.93554 0.5951,-4.30336c-8.17879,4.36981 -14.59303,1.75558 -19.58059,-3.47762c0.5091,4.5942 -0.23401,9.75106 -0.05727,14.62029c0.12804,3.52749 0.94395,6.1129 0.07667,8.87821c0.09219,0.10246 0.18271,0.20578 0.27158,0.30996c0.81665,-0.62488 1.76745,-1.10726 2.87072,-1.40544c2.332,-1.36469 5.04636,-2.14686 7.9434,-2.14686c1.97602,0 3.86706,0.36389 5.60974,1.02833c1.25866,0.28014 2.45589,0.69011 3.49573,1.4326c0.27449,0.196 0.52736,0.41545 0.76521,0.65129c0.003,-0.05836 0.00633,-0.11664 0.00996,-0.17483c0.12204,-2.41482 0.57592,-4.2442 1.34321,-5.70883c-0.39935,-0.50986 -0.76795,-1.04496 -1.10301,-1.60251z" fill="#ffd833"/><path d="M284.24073,169.0479c1.66087,3.11723 2.06664,6.50598 1.53848,9.80224c-0.24622,1.95467 -0.85066,3.79779 -1.7455,5.46154c-4.22952,8.75066 -14.54972,15.0757 -23.54941,10.57585c-4.02796,-2.01398 -6.5702,-5.14241 -7.76933,-8.66535c-3.38533,-2.88882 -5.53185,-7.18668 -5.53185,-11.98588c0,-8.69849 7.05151,-15.75 15.75,-15.75c3.27287,0 6.31259,0.99829 8.83125,2.70696c3.99723,0.40607 7.55255,2.30687 10.09819,5.13464c0.97042,0.73417 1.78965,1.61541 2.37818,2.71999z" fill="#ff8133"/><path d="M286.5599,196.55389c0,8.69849 -7.05151,15.75 -15.75,15.75c-7.87408,0 -14.39859,-5.77824 -15.56458,-13.32579c-2.11693,-0.17001 -4.28745,-0.68378 -6.69021,-1.46497c-1.93747,-0.62992 -4.36615,-3.28193 -5.64791,-4.56369c-1.30702,-1.30702 -2.36827,-2.70856 -3.19475,-4.18161c-6.6671,-1.83301 -11.56492,-7.93849 -11.56492,-15.18791c0,-7.40047 5.10405,-13.60884 11.98396,-15.2969c0.78081,-0.36321 1.37054,-1.16192 2.21529,-1.32918c0.37622,-0.07449 0.75265,-0.13622 1.12874,-0.18552c3.39539,-3.59362 8.70352,-5.79744 13.11434,-6.90015c8.48207,-2.12052 15.9395,2.50135 20.03723,9.35726c1.1297,-0.15263 2.39797,-0.16937 3.71672,-0.05144c1.12147,0.07031 2.21112,0.258 3.2568,0.55091c4.27373,1.06711 8.33592,3.48844 9.34564,7.22443c1.36469,2.33201 2.14686,5.04635 2.14686,7.94339c0,1.97602 -0.3639,3.86706 -1.02834,5.60974c-0.28014,1.25866 -0.6901,2.45588 -1.4326,3.49573c-1.28111,1.79416 -4.12972,4.20809 -7.38296,6.25534c0.84303,1.92935 1.3107,4.06025 1.3107,6.30038z" fill="#ff3333"/></g></g></svg>