<svg version="1.1" xmlns="http://www.w3.org/2000/svg" xmlns:xlink="http://www.w3.org/1999/xlink" width="106.74999" height="142.27677" viewBox="0,0,106.74999,142.27677"><g transform="translate(-186.62501,-108.86598)"><g data-paper-data="{&quot;isPaintingLayer&quot;:true}" fill-rule="nonzero" stroke-linejoin="miter" stroke-miterlimit="10" stroke-dasharray="" stroke-dashoffset="0" style="mix-blend-mode: normal"><path d="M186.87502,210.98959v-66.40628l57.22005,-35.41668l49.02994,35.41668v68.61982l-51.90755,37.63023z" fill="#ffffff" stroke="#000000" stroke-width="0.5" stroke-linecap="round"/><g><path d="M253.97191,199.34876c1.00308,0 1.81624,0.81316 1.81624,1.81624c0,0.75484 -0.46045,1.40207 -1.11579,1.67624c0.15584,0.56351 0.1991,1.13399 0.10862,1.65499c1.22,0.51987 0.98244,1.94523 0.98244,1.94523l-1.92609,2.32487c-3.51739,-0.01714 -10.67833,-4.20354 -6.20594,-7.9571c0.24297,-0.353 0.60761,-0.61586 1.03334,-0.72798c1.47708,-0.85535 2.84147,-0.71727 3.90898,-0.07552c0.33313,-0.40136 0.83584,-0.65693 1.39821,-0.65693z" fill="#249000" stroke="none" stroke-width="0.5" stroke-linecap="butt"/><path d="M220.47238,179.10108l-3.76699,-0.67266l0.2691,-5.9196l5.6505,0.80721l0.26906,3.22888l-1.34537,0.94176l-1.88351,-1.88351" fill="none" stroke="#249000" stroke-width="4" stroke-linecap="round"/><path d="M223.1631,200.22324l8.74488,-9.28298l1.74896,1.61445l-9.68663,9.68659" fill="none" stroke="#4d4615" stroke-width="4" stroke-linecap="round"/><path d="M218.58891,207.62275l-0.26906,-6.05412l1.61441,-0.2691l2.15258,3.76703l-0.2691,5.38144l-6.3232,-0.13455v-9.55208" fill="none" stroke="#249000" stroke-width="4" stroke-linecap="round"/><path d="M284.29148,147.93602l-1.55481,7.25581l-43.97041,35.71937l11.45238,8.61798l4.94878,0.75217l-0.37608,8.34279l-6.69164,-1.0824l-1.83915,-4.99469l-10.46172,-8.95279l-11.3515,11.20933l-0.56413,7.20536l-10.4984,-0.4724l0.56413,-12.00735h6.59532l10.45257,-10.40668l-9.98474,-8.52164l-5.98531,-1.0824l0.75675,-9.28298l8.62257,1.46306l0.56413,6.36141l7.01268,8.14559l37.27879,-36.71468z" fill="none" stroke="#000000" stroke-width="1.5" stroke-linecap="round"/></g></g></g></svg>