<svg version="1.1" xmlns="http://www.w3.org/2000/svg" xmlns:xlink="http://www.w3.org/1999/xlink" width="201.38312" height="198.99998" viewBox="0,0,201.38312,198.99998"><g transform="translate(-161.00005,-70.00002)"><g data-paper-data="{&quot;isPaintingLayer&quot;:true}" fill-rule="nonzero" stroke-linejoin="miter" stroke-miterlimit="10" stroke-dasharray="" stroke-dashoffset="0" style="mix-blend-mode: normal"><path d="M297.65644,207.19279l-1.42857,-27.71429" fill="none" stroke="#e8e8e8" stroke-width="6" stroke-linecap="round"/><path d="M234.50005,134.5v107l-29,25" fill="none" stroke="#000000" stroke-width="5" stroke-linecap="round"/><path d="M204.50005,103.50002c0,-17.12082 13.87918,-31 31,-31c17.12082,0 31,13.87918 31,31c0,17.12082 -13.87918,31 -31,31c-17.12082,0 -31,-13.87918 -31,-31z" fill="none" stroke="#000000" stroke-width="5" stroke-linecap="butt"/><path d="M284.50005,191.50002l-49,-12l-72,-37" fill="none" stroke="#000000" stroke-width="5" stroke-linecap="round"/><path d="M262.50005,263.50002l-27,-22" fill="none" stroke="#000000" stroke-width="5" stroke-linecap="round"/><path d="M247.50005,114.50002c0,0 -4.2511,9.27504 -12.01554,9.53385c-7.76444,0.25882 -17.98446,-8.53385 -17.98446,-8.53385" fill="none" stroke="#000000" stroke-width="2.5" stroke-linecap="round"/><path d="M221.00005,92.50002c0,-1.38071 1.11929,-2.5 2.5,-2.5c1.38071,0 2.5,1.11929 2.5,2.5c0,1.38071 -1.11929,2.5 -2.5,2.5c-1.38071,0 -2.5,-1.11929 -2.5,-2.5z" fill="#0011ff" stroke="none" stroke-width="0.5" stroke-linecap="butt"/><path d="M242.00005,91.50002c0,-1.38071 1.11929,-2.5 2.5,-2.5c1.38071,0 2.5,1.11929 2.5,2.5c0,1.38071 -1.11929,2.5 -2.5,2.5c-1.38071,0 -2.5,-1.11929 -2.5,-2.5z" fill="#0007ff" stroke="none" stroke-width="0.5" stroke-linecap="butt"/><path d="M210.50005,127.50001l9,25" fill="none" stroke="none" stroke-width="0" stroke-linecap="round"/><path d="M226.75005,164.14585v-10.31251l8.88595,-5.50001l7.61407,5.50001v10.65626l-8.06094,5.84376z" fill="#ffffff" stroke="#000000" stroke-width="0.5" stroke-linecap="round"/><path d="M237.1698,162.3381c0.15577,0 0.28205,0.12628 0.28205,0.28205c0,0.11722 -0.0715,0.21773 -0.17327,0.26031c0.0242,0.08751 0.03092,0.17611 0.01686,0.25701c0.18946,0.08073 0.15257,0.30208 0.15257,0.30208l-0.29911,0.36104c-0.54623,-0.00266 -1.65828,-0.65279 -0.96375,-1.23569c0.03773,-0.05482 0.09436,-0.09564 0.16047,-0.11305c0.22938,-0.13283 0.44127,-0.11139 0.60705,-0.01173c0.05173,-0.06233 0.1298,-0.10202 0.21713,-0.10202z" fill="#249000" stroke="none" stroke-width="0.5" stroke-linecap="butt"/><path d="M231.96752,159.19376l-0.58499,-0.10446l0.04179,-0.91928l0.87749,0.12535l0.04178,0.50142l-0.20892,0.14625l-0.2925,-0.2925" fill="none" stroke="#249000" stroke-width="1" stroke-linecap="round"/><path d="M232.38536,162.47391l1.35803,-1.44159l0.2716,0.25071l-1.50428,1.50427" fill="none" stroke="#4d4615" stroke-width="1" stroke-linecap="round"/><path d="M231.67501,163.623l-0.04178,-0.94017l0.25071,-0.04179l0.33428,0.585l-0.04179,0.83571l-0.98195,-0.02089v-1.48338" fill="none" stroke="#249000" stroke-width="1" stroke-linecap="round"/><path d="M241.87827,154.354l-0.24146,1.12678l-6.82835,5.54701l1.77849,1.33832l0.76851,0.11681l-0.0584,1.29559l-1.03918,-0.16809l-0.28561,-0.77564l-1.62465,-1.39032l-1.76282,1.74074l-0.0876,1.11895l-1.63034,-0.07336l0.0876,-1.86467h1.02422l1.62322,-1.6161l-1.55057,-1.32336l-0.92948,-0.16809l0.11752,-1.44159l1.33903,0.2272l0.08761,0.98789l1.08903,1.26496l5.78918,-5.70157z" fill="none" stroke="#000000" stroke-width="0.5" stroke-linecap="round"/><g><path d="M302.91558,213.11226c0.68874,0.72925 0.65589,1.87877 -0.07337,2.5675c-0.54879,0.51828 -1.33548,0.62793 -1.98478,0.33974c-0.30268,0.50021 -0.68773,0.92336 -1.12862,1.21532c0.45972,1.24391 -0.73965,2.04988 -0.73965,2.04988l-3.01271,0.19601c-2.40265,-2.56897 -4.27591,-10.64956 1.52382,-9.97533c0.42347,-0.06573 0.86493,0.01888 1.23877,0.25141c1.63604,0.48657 2.47248,1.5733 2.73889,2.79004c0.52053,-0.03339 1.0515,0.15661 1.43764,0.56546z" fill="#249000" stroke="none" stroke-width="0.5" stroke-linecap="butt"/><path d="M294.63453,174.85508l-2.09746,-3.20053l4.48842,-3.86888l3.29289,4.66225l-2.16271,2.41262l-1.60843,-0.33147l0.07608,-2.6626" fill="none" stroke="#249000" stroke-width="4" stroke-linecap="round"/><path d="M281.12586,191.31417l12.75329,-0.01621l0.02714,2.38003l-13.69334,-0.39133" fill="none" stroke="#4d4615" stroke-width="4" stroke-linecap="round"/><path d="M272.60555,193.06932l4.2167,-4.3525l1.30412,0.98893l-1.26069,4.15148l-4.09717,3.49936l-4.24381,-4.68945l6.94451,-6.55864" fill="none" stroke="#249000" stroke-width="4" stroke-linecap="round"/><path d="M361.11153,199.85409l-6.34266,3.85161l-56.15953,-7.44159l1.59802,14.24334l2.85109,4.1143l-6.32358,5.4549l-3.80769,-5.60813l2.36843,-4.76654l-0.6744,-13.75301l-15.94353,-0.55617l-5.62577,4.53721l-6.86496,-7.95687l9.11688,-7.83436l4.52848,4.79492l14.74277,0.45375l-0.66035,-13.1102l-3.32271,-5.09461l7.26848,-5.8237l4.85675,7.27332l-4.23751,4.778l-1.10693,10.69125l52.28854,1.89327z" fill="none" stroke="#000000" stroke-width="1.5" stroke-linecap="round"/></g><path d="M297.97389,192.03406l50.28571,1.57143c0,0 7.52996,4.76976 7,5.85714c-1.29639,2.65996 -52.71429,-6.71429 -52.71429,-6.71429" fill="none" stroke="#e8e8e8" stroke-width="7.5" stroke-linecap="round"/></g></g></svg>