<svg version="1.1" xmlns="http://www.w3.org/2000/svg" xmlns:xlink="http://www.w3.org/1999/xlink" width="533.25355" height="440.10466" viewBox="0,0,533.25355,440.10466"><g transform="translate(24.75354,33.27411)"><g data-paper-data="{&quot;isPaintingLayer&quot;:true}" fill-rule="nonzero" stroke-width="0.5" stroke-linecap="butt" stroke-linejoin="miter" stroke-miterlimit="10" stroke-dasharray="" stroke-dashoffset="0" style="mix-blend-mode: normal"><path d="M491.50001,180.5l-0.07325,0.73251l0.03011,0.73554l-1,17l-0.04827,0.30215l0.00506,0.30594l-0.57659,6.9191l0.61981,10.53672l-0.03011,0.73554l0.07325,0.73251v59.875l3.09375,2.67187l0.41246,1.52611l0.36879,0.42702l2.73438,8.59375l0.2553,2.55297l1.26024,5.67107l1.59217,4.77652l0.43082,1.90793l0.51194,1.88779l0.83586,5.01518l0.09226,0.36904l0.77271,1.54542l0.86567,2.27239l0.13905,0.25126l0.17725,0.57902l0.21557,0.56588l0.0445,0.2837l0.71179,2.32519l0.88333,4.41665l0.62285,2.49141l0.69638,2.08915l0.86469,3.82932l0.00119,0.08711l0.02641,0.08302l0.39063,3.90625v4l-0.39062,3.90625l-2.73437,8.59375l-0.36879,0.42702l-0.41246,1.52611l-3.56326,3.07736l-3.07736,3.56326l-1.52611,0.41246l-0.42702,0.36879l-8.59375,2.73438l-3.90625,0.39063h-39.92236l-5.01425,1.25356l-1.92359,0.2815l-0.23355,0.07431l-0.86604,0.0866l-0.86118,0.12603l-0.2446,-0.01545l-1.93443,0.19344h-0.92236l-4.0828,1.0207l-2.08915,0.69638l-0.93761,0.21172l-0.90469,0.32476l-3.06855,0.76714l-1.913,0.63767l-0.21434,0.14289l-0.52673,0.27983l-0.47838,0.35624l-5,3l-0.86936,0.41007l-0.8127,0.51328l-0.24555,0.12278l-2.4862,1.77585l-0.49005,0.87827l-2.70984,1.36758l-3.12345,1.79078l-1.17884,0.38047l-3.1251,1.57716l-2.19005,0.13832l-2.08834,0.67402l-3.48569,-0.32197l-1.23626,0.07808l-3.56244,-0.52133l-3.02251,-0.27919l-0.25567,-0.20955l-0.15938,0.01007l-0.86118,-0.12603l-0.86604,-0.0866l-0.23355,-0.07431l-1.92359,-0.2815l-8,-2l-0.90469,-0.32476l-0.93761,-0.21172l-1.52343,-0.50781l-1.04637,-0.20927h-2.52451l-1.93443,-0.19344l-0.2446,0.01545l-0.86118,-0.12603l-0.86604,-0.0866l-0.23355,-0.07431l-1.92359,-0.2815l-1.01425,-0.25356h-12.17805l-5.59319,1.24293l-3.37426,0.96408l-4.37337,2.49907l-0.63515,0.28324l-0.58799,0.37136l-8,4l-0.97254,0.37049l-0.92303,0.48075l-5,2l-3.77194,1.08806l-0.8216,0.05963l-0.78498,0.24977l-3.90625,0.39063h-2l-0.89661,-0.08966l-0.58517,0.04247l-0.05404,-0.01862l-1.95803,0.39627l-5.98941,-2.49559l-3.01673,-0.95987l-0.6647,-0.57406l-0.81072,-0.3378l-1.17882,-1.21156l-1.0261,-0.39089l-3.06992,-1.53496l-3.3524,-1.34096l-1.39219,-0.46406l-7.06855,-1.76714l-0.70635,-0.25356h-19.75477l-1.98924,0.39785l-3.01875,0.75469l-6.59948,1.88556l-0.41128,0.07426l-0.39336,0.1412l-4,1l-0.59016,0.08637l-0.57032,0.17459l-17.74927,3.54985l-2.86887,1.14755l-1.4796,0.42681l-1.44284,0.53814l-16.90911,4.44977l-0.486,0.27502l-0.96765,0.10752l-0.63723,0.16769l-3.87705,0.61635l-1.74481,-0.08859l-1.73638,0.19293l-3.907,-0.38304l-0.64613,-0.12923l-0.97236,-0.04937l-0.5016,-0.24542l-2.87991,-0.57598l-2.32519,-0.71179l-0.2837,-0.0445l-0.56588,-0.21557l-0.57902,-0.17725l-0.25126,-0.13905l-2.27239,-0.86567l-2.41088,-1.20544l-3.091,-1.03033l-2.84002,-0.63111l-0.38515,0.51721l-0.18388,0.16203l-0.76739,0.93793l-0.30852,0.48849l-1.69525,3.3591l-2.76912,1.54509l-2.39303,2.4595l-10.48157,4.36732l-6.13807,-1.24223l-6.26139,-0.11889l-9.28457,-6.53709l-1.8025,-2.92005l-2.36801,-2.10901l-0.92619,-3.64686l-0.44874,-1.25007l-0.60693,0.17508l-1.59407,0.57223l-7.06855,1.76714l-5.08915,1.69638l-3.82932,0.86469l-0.08711,0.00119l-0.08302,0.02641l-0.96776,0.09678l-0.03279,0.01093l-0.93761,0.21172l-0.90469,0.32476l-4,1l-1.92359,0.2815l-0.23355,0.07431l-0.86604,0.0866l-0.86118,0.12603l-0.2446,-0.01545l-0.84835,0.08484l-0.80131,0.32053l-3.77194,1.08806l-0.8216,0.05963l-0.78498,0.24977l-3.90625,0.39063h-7l-3.90625,-0.39062l-0.08302,-0.02641l-0.08711,-0.00119l-3.82932,-0.86469l-3,-1l-2.21895,-0.9947l-0.27599,-0.07935l-0.53477,-0.28409l-0.55257,-0.2477l-0.23207,-0.16914l-2.14747,-1.14084l-0.21434,-0.14289l-2.82385,-0.94128l-1.61784,-0.72524l-1.65681,-0.63116l-3.06992,-1.53496l-4.03451,-1.6138l-0.92303,-0.48075l-0.97254,-0.37049l-1.44678,-0.72339l-0.27913,-0.02791l-1.77027,-0.56327l-0.29394,-0.04611h-0.02954l-3.90625,-0.39062l-8.59375,-2.73437l-0.42702,-0.36879l-1.52611,-0.41246l-3.07736,-3.56326l-3.56326,-3.07736l-0.41246,-1.52611l-0.36879,-0.42702l-0.88745,-2.78913l-1.59823,-2.53053l-0.6814,-1.36281l-2.92105,-2.84211l-0.71303,-1.71128l-0.68451,-1.08381l-3,-6l-0.63116,-1.65681l-0.72524,-1.61784l-1,-3l-0.86469,-3.82932l-0.00119,-0.08711l-0.02641,-0.08302l-0.09786,-0.97859l-0.00985,-0.02197l-2,-6l-0.86469,-3.82932l-0.00119,-0.08711l-0.02641,-0.08302l-0.1361,-1.361l-0.01275,-0.03346l-0.0135,-0.08606l-0.03789,-0.07845l-0.93913,-3.81175l-0.95889,-6.71226l-1.95222,-11.7133l-0.13494,-2.05789l-0.20521,-2.05208v-4.44356l-0.80695,-6.45558l-0.03837,-1.55405l-0.15468,-1.54681v-5.44356l-0.80695,-6.45558l-0.03837,-1.55405l-0.15468,-1.54681v-10.93094l-0.65985,-3.95909l-0.01909,-0.29114l-0.0698,-0.2833l-0.54259,-3.79815l-0.46689,-1.22559l-0.28789,-1.83527l-0.56327,-1.77027l-0.0357,-0.35703l-0.49036,-0.85359l0.17113,-2.33873l-0.03569,-0.3569v-0.40454l-0.15576,-0.993l0.15756,-0.62038l0.38883,-3.88833l0.13421,-0.4218l0.16837,-2.30108l1.46497,-2.83227l0.96683,-3.0386l1.50805,-1.74617l0.20336,-0.39315l0.84765,-1.03602l0.38874,-1.08293l0.06471,-0.10483l0.50181,-1.31724l1.50275,-3.0055l0.2337,-1.16851l1.86115,-12.09749l0.76308,-6.1046v-26.14869l-0.69407,-4.3958l-0.06411,-1.1249l-0.18644,-1.11119l-1,-15l0.02759,-0.83333l-0.08296,-0.82965v-13.40454l-0.15576,-0.993l0.15756,-0.62038l0.38883,-3.88833l0.79646,-2.50315c-5.162,-14.23908 -9.5151,-28.64783 -11.83953,-43.81167c-1.49855,-9.77606 -7.5675,-18.24289 -4.95692,-28.68518c2.01616,-8.06465 3.96774,-11.84288 10.15625,-17.1875c2.25429,-1.94689 10.86433,-2.38475 11.69342,-3.63028c0.25209,-0.37871 0.03514,-10.08036 0.15033,-11.18222c0.17134,-1.63895 0.78247,-4.63082 1.57355,-7.27788c-6.57856,-2.24547 -12.97668,-6.15894 -15.35806,-11.87424c-0.88522,-1.46022 -1.62515,-3.01832 -2.19975,-4.65424c-0.99546,-2.2233 -1.7792,-4.58413 -1.3554,-6.67818c-0.0338,-0.53205 -0.05096,-1.06863 -0.05096,-1.60921c0,-7.3781 3.19613,-14.00969 8.27938,-18.58579c1.16535,-1.54035 2.56413,-2.84072 4.31743,-3.77489c3.81194,-2.03102 7.07148,-2.64003 10.3049,-2.55251c0.69182,-0.05749 1.39163,-0.08681 2.09829,-0.08681c3.57816,0 6.98074,0.75172 10.05845,2.10584c4.37925,0.81117 9.02649,2.57735 13.41704,2.89416c3.25123,0.23459 6.38707,0.0656 9.5879,0.74644c3.17798,0.67597 6.73992,2.22025 10.01425,2.25356c15.48384,0.15751 30.5153,-0.21023 45.82861,1.39063c12.26811,1.28251 24.8287,5.54542 37.17139,5.60938c15.97391,0.08277 31.94843,-0.07773 47.92236,0c2.49608,0.01215 5.03335,0.98248 7.47549,1c55.7739,0.40016 111.41666,-1.32581 167.04902,-3c2.46639,-0.07422 4.95969,-0.99183 7.47549,-1c24.32958,-0.07905 48.65948,0.05149 72.98913,0c3.96601,-0.00839 7.87086,0.75344 11.68738,1.95389c1.79599,0.56491 1.36991,-3.50816 2.11157,-5.23866c1.74148,-4.06338 4.78098,-9.74854 8.75879,-11.80898c12.94281,-6.70419 26.17931,-4.15507 35.70654,6.87645c3.73152,4.32071 4.85812,19.26892 5.50147,25.76608c1.32115,13.34233 1.00262,27.73213 -0.90779,41.212c-0.21964,1.5498 -1.67356,4.97645 -1.84709,6.74134c-0.77769,7.9095 1.23926,16.18938 2,24.11325c2.14887,22.38253 4.90126,45.23601 0.49571,67.47942c-1.41416,7.14001 -1.33182,14.82743 -4.62071,21.4052c-0.58335,1.16669 -1.20946,2.25742 -1.875,3.27489z" fill="#49c4ff" stroke="none"/><path d="M-13.49999,364.5v-25h518v25z" fill="#af7145" stroke="#000000"/></g></g></svg>