<svg version="1.1" xmlns="http://www.w3.org/2000/svg" xmlns:xlink="http://www.w3.org/1999/xlink" width="85.87355" height="34.8488" viewBox="0,0,85.87355,34.8488"><g transform="translate(-197.00566,-162.44517)"><g data-paper-data="{&quot;isPaintingLayer&quot;:true}" fill-rule="nonzero" stroke="none" stroke-width="0.5" stroke-linecap="butt" stroke-linejoin="miter" stroke-miterlimit="10" stroke-dasharray="" stroke-dashoffset="0" style="mix-blend-mode: normal"><path d="M220.22994,166.14442l1.2216,0.11887c0,0 1.68404,0.16387 2.14646,1.6074c1.14555,0.16777 2.2917,0.2859 3.44096,0.20191c2.27093,-0.16597 4.54815,-0.59797 6.8185,-0.556c0.11848,-1.36995 0.1599,-2.77408 1.26558,-3.24729c2.82826,-1.21046 4.55967,0.56978 5.62637,2.59539c0.53566,0.02565 1.06677,0.08976 1.5882,0.19785c0.66898,0.13868 1.40875,1.44858 1.83442,0.91419c0.76473,-0.96002 -0.66746,-2.98827 0.35662,-3.6648c1.18733,-0.78437 7.37675,-0.01786 9.15997,0.15567l2.4432,0.23774c0,0 0.11682,0.01137 0.29738,0.05449c1.5557,-1.83452 3.83543,-3.27205 6.09875,-1.52328c1.02954,0.79547 0.94774,2.243 0.78708,3.70292c0.64303,-0.23939 1.24912,-0.18041 1.24912,-0.18041l3.6648,0.35662c3.17358,0.30882 5.79644,1.12508 8.75333,-0.1162c0,0 1.35276,-0.51947 2.39398,0.26248c0.70093,-0.3087 1.85876,-0.51581 2.87611,0.72087c1.58824,1.93067 -0.34242,3.51891 -0.34242,3.51891c-3.75016,2.94258 -3.05741,5.57201 -5.34383,9.75427c-0.73189,1.33878 -2.05891,2.27372 -2.86868,3.56689c-2.09839,3.35107 -2.47228,8.39472 -7.97359,8.03647c-1.42008,-0.09247 -2.64003,-1.15988 -3.73353,-2.07059c-4.40408,-3.66795 -5.02408,-9.55365 -4.53457,-14.81061c0.01193,-0.12817 0.01972,-0.27951 0.02482,-0.45033c-0.63473,1.1035 -1.2266,2.25997 -1.46498,3.17887c-0.94833,3.65566 -1.33071,7.18861 -3.82219,10.41159c-0.9065,1.17263 -2.16278,2.05352 -3.4118,2.85148c-0.66189,0.42286 -1.6291,0.25132 -2.23231,0.75437c-1.88112,1.56878 -1.66251,6.70172 -6.78556,3.58369c-1.77277,-1.07896 -1.86997,-3.77888 -2.18397,-5.83028c-0.65585,-4.2848 1.7576,-8.97676 1.32521,-13.26114c-0.1302,-1.29012 -0.8358,-2.68774 -1.43099,-4.09165c-0.71797,1.32979 -1.74511,2.561 -2.3589,3.94006c-0.55009,1.23594 -1.10402,2.47019 -1.65603,3.70527c-0.44309,0.7091 -3.09537,5.0243 -3.53663,5.40341c-0.6939,0.59616 -1.85558,0.40267 -2.56207,0.98386c-0.70649,0.58119 -0.69604,1.82007 -1.45934,2.32433c-3.33574,2.20363 -5.57568,2.1795 -8.40531,-0.81792c-1.68899,-1.78913 -3.15476,-8.33923 -3.25849,-11.35087c-0.22294,0.40901 -0.46831,0.79677 -0.8228,1.08839c-0.8073,0.66411 -2.00079,0.6667 -2.89184,1.21334c-1.62972,0.99981 -3.10192,2.34771 -4.91326,2.95982l-3.85493,2.75971c-0.44142,-2.09099 -1.10697,-4.14698 -1.32429,-6.27298c-0.10536,-1.03078 0.46343,-2.05494 0.36756,-3.08665c-0.27535,-2.96335 -2.71458,-6.88253 -3.79193,-9.68812l5.01917,-3.14671c0,0 1.54852,0.15068 2.08349,1.43591c3.85356,0.37499 7.70711,0.74998 11.56067,1.12497c0.34845,-0.35574 0.69666,-0.7116 1.01063,-1.08935l0.75552,1.18592c0.01855,0.0269 0.0371,0.05381 0.05567,0.08071c0.91304,0.08885 1.82609,0.1777 2.73912,0.26655zM205.91931,176.67019c0.68852,-0.47156 1.37501,-0.94741 2.08623,-1.37585c0.67279,-0.4053 1.62574,-0.25538 2.23231,-0.75437c0.60657,-0.49899 0.63476,-1.47071 1.17059,-2.04499c0.66392,-0.71155 1.88678,-0.87512 2.35177,-1.73003c0.03827,-0.07035 0.06735,-0.1431 0.08887,-0.21781c-3.3295,-0.32399 -6.73918,-0.65579 -9.92603,-0.9659c1.01511,2.33546 1.9314,4.83983 1.99627,7.08897zM227.3581,173.06241c-0.21511,0.01375 -4.9739,-0.44974 -6.92978,-0.64132c0.18467,0.83533 0.27424,1.70109 0.20834,2.61862c-0.06553,0.91247 -1.34928,1.41615 -1.45934,2.32433c-0.11754,0.96982 0.59323,1.86267 0.83729,2.80862c0.30846,1.19554 0.51699,2.41521 0.81935,3.61231c0.03459,0.13696 0.349,2.18288 1.15881,2.26169c1.16669,0.11353 1.28579,-2.00591 2.19104,-2.75061c0.70649,-0.58119 1.83901,-0.42342 2.56207,-0.98386c1.19159,-0.92357 1.49597,-2.61905 2.30076,-3.89389c0.87096,-1.96584 1.96424,-3.92495 2.96407,-5.8786c-1.54943,0.1218 -3.10194,0.42362 -4.6526,0.52272zM253.20436,169.44411c-1.2216,-0.11887 -2.46894,-0.08027 -3.6648,-0.35662c-0.66566,-0.15382 -1.40875,-1.44858 -1.83442,-0.91419c-0.76473,0.96002 0.66746,2.98827 -0.35662,3.6648c-1.18798,0.78479 -2.81273,0.74016 -4.52354,0.5689c0.46965,1.35451 0.89204,2.72047 1.03456,4.13738c0.04718,0.46907 -0.8146,9.064 -0.82118,9.12935c-0.12013,1.1921 -0.03616,2.47628 -0.15253,3.68788c0.145,-0.18319 0.30586,-0.35157 0.48695,-0.4988c1.4431,-1.17329 3.78086,-1.24525 4.84193,-2.77275c3.17974,-4.57752 2.91728,-9.97609 6.05503,-14.69851c0.05878,-0.60403 0.04381,-1.2248 0.06449,-1.83749zM267.74469,172.0922l-3.6648,-0.35662c0,0 -0.48193,-0.0469 -1.00097,-0.31151c-0.30282,3.9015 -1.38604,7.52772 -0.23509,11.51619c0.41907,1.45223 1.68362,4.51214 3.36427,4.94263c0.8206,0.21019 1.20937,-1.23082 1.57311,-1.99584c0.57686,-1.21327 0.94046,-2.53674 1.65257,-3.6759c0.77525,-1.24015 2.06575,-2.12041 2.77159,-3.40134c1.56674,-2.84324 1.24897,-4.24338 2.10317,-6.26402c-2.08329,0.08704 -4.13313,-0.21707 -6.56385,-0.4536z" fill="#540000"/><path d="M201.70476,169.74001c3.18684,0.31011 6.67853,0.64989 10.00803,0.97388c-0.0215,0.07472 -0.05001,0.14857 -0.08827,0.21892c-0.46498,0.85491 -1.68491,1.02531 -2.34883,1.73684c-0.53583,0.57427 -0.56899,1.58894 -1.17556,2.08793c-0.60657,0.49899 -1.61627,0.37029 -2.28907,0.7756c-0.71122,0.42845 -1.41509,0.89498 -2.10361,1.36654c-0.06487,-2.24914 -0.98759,-4.82427 -2.00269,-7.15973z" data-paper-data="{&quot;noHover&quot;:false,&quot;origItem&quot;:[&quot;Path&quot;,{&quot;applyMatrix&quot;:true,&quot;segments&quot;:[[[241.22542,213.02051],[-2.23228,0.2824],[-0.53603,-0.63961]],[[239.65398,211.07733],[0.49532,0.66638],[-0.46856,-0.63037]],[[238.68695,208.92859],[0.55539,0.55539],[-0.55539,-0.55539]],[[236.5382,207.96155],[0.62347,0.4777],[-0.7725,-0.59188]],[[234.58853,205.78841],[0.89593,0.37999],[-0.07373,-0.03127]],[[234.36313,205.72106],[0.07645,0.01417],[0,3.34522]],[[234.36313,215.69398],[0,-3.2019],[2.22616,-1.23653]]],&quot;closed&quot;:true}]}" fill="#a00000"/><path d="M233.65034,171.831c-0.99983,1.95365 -2.0799,3.93856 -2.95087,5.90439c-0.80478,1.27483 -1.13646,3.02418 -2.32805,3.94774c-0.72307,0.56044 -1.88918,0.40633 -2.59567,0.98752c-0.90526,0.7447 -1.0336,2.86093 -2.2003,2.74739c-0.80981,-0.0788 -1.13739,-2.13357 -1.17197,-2.27052c-0.30236,-1.1971 -0.52578,-2.44333 -0.83423,-3.63888c-0.24406,-0.94594 -0.95383,-1.86279 -0.83629,-2.8326c0.11006,-0.90818 1.40457,-1.43121 1.4701,-2.34369c0.06591,-0.91753 -0.0154,-1.79067 -0.20007,-2.62601c1.95588,0.19157 6.76051,0.64875 6.97562,0.63501c1.55067,-0.0991 3.12229,-0.38856 4.67173,-0.51035z" data-paper-data="{&quot;noHover&quot;:false,&quot;origItem&quot;:[&quot;Path&quot;,{&quot;applyMatrix&quot;:true,&quot;segments&quot;:[[[235.55821,192.03193],[-0.24882,-1.53378],[0.03452,0.21277]],[[235.59107,198.99124],[0.00124,-1.96524],[0.81352,-0.2647]],[[238.1772,198.53026],[-0.9196,0.02327],[0.91453,-0.02315]],[[240.63194,199.75763],[-0.91457,-0.02159],[0.97665,0.02305]],[[243.34625,198.65226],[-0.91786,0.33453],[1.16004,-0.4228]],[[246.86222,197.4869],[-1.16218,0.41688],[0.13296,-0.04769]],[[249.00104,196.11449],[0,0.81364],[0,-1.1722]],[[246.05117,194.20015],[0.82887,0.82887],[-0.64688,-0.64688]],[[244.8238,191.74541],[0.62783,0.66539],[-1.03464,-1.09654]],[[240.72538,189.8326],[1.34679,0.67752],[-2.04095,-0.67647]],[[234.58733,187.45183],[2.0413,0.80592],[0.27129,1.53035]]],&quot;closed&quot;:true}]}" fill="#a00000"/><path d="M254.74464,168.72004c-0.02068,0.61268 -0.00174,1.23651 -0.06051,1.84053c-3.13776,4.72242 -2.90519,10.20907 -6.08493,14.78657c-1.06108,1.52751 -3.42189,1.59508 -4.86501,2.76837c-0.18108,0.14722 -0.34288,0.31517 -0.48788,0.49836c0.11638,-1.2116 0.02484,-2.50026 0.14495,-3.69236c0.00659,-0.06535 0.85458,-8.72661 0.8074,-9.19568c-0.14253,-1.41692 -0.55254,-2.79679 -1.02219,-4.1513c1.71082,0.17127 3.36247,0.20563 4.55045,-0.57917c1.02409,-0.67653 -0.40523,-2.7049 0.35949,-3.66492c0.42568,-0.53439 1.17789,0.76108 1.84355,0.91491c1.19586,0.27636 2.45932,0.24346 3.68092,0.36233z" data-paper-data="{&quot;noHover&quot;:false,&quot;origItem&quot;:[&quot;Path&quot;,{&quot;applyMatrix&quot;:true,&quot;segments&quot;:[[[229.45365,166.65762],[0,0],[0,1.22737]],[[229.45365,170.33973],[0.15923,-1.217],[-0.08863,0.67743]],[[228.72141,172.25407],[-0.5731,-0.37192],[1.02957,0.66815]],[[232.40352,172.25407],[-0.77253,-0.95375],[0.89616,1.10639]],[[233.40786,176.70124],[0.00477,-1.71936],[1.30266,-0.59863]],[[237.42559,175.27082],[-1.39645,0.27909],[0.4623,-0.09239]],[[246.59156,175.20395],[-0.06568,-0.00023],[1.19813,0.00411]],[[250.27688,174.99858],[-1.21718,0.00152],[-0.19637,-0.12657]],[[249.73327,174.56224],[0.16407,0.16597],[-1.30754,-1.32268]],[[246.5046,170.01162],[1.62309,0.90814],[-4.86396,-2.72145]],[[231.28874,165.40863],[5.00412,2.66563],[-0.60688,0]],[[229.45365,165.52241],[0.6118,-0.03876],[0,0]]],&quot;closed&quot;:true}]}" fill="#a00000"/><path d="M273.62064,170.3747c-0.8542,2.02065 -0.52091,3.44563 -2.08764,6.28887c-0.70585,1.28093 -2.01594,2.21505 -2.79119,3.4552c-0.71212,1.13917 -1.10511,2.47167 -1.68197,3.68495c-0.36373,0.76502 -0.76205,2.20498 -1.58265,1.99479c-1.68063,-0.43048 -2.97799,-3.51387 -3.39706,-4.96611c-1.15095,-3.98849 -0.04913,-7.68379 0.25369,-11.58529c0.51904,0.26462 1.00451,0.3097 1.00451,0.3097l3.68491,0.35205c2.43074,0.23653 4.51409,0.55287 6.59739,0.46584z" data-paper-data="{&quot;noHover&quot;:false,&quot;origItem&quot;:[&quot;Path&quot;,{&quot;applyMatrix&quot;:true,&quot;segments&quot;:[[[230.68102,151.92918],[0,-2.44222],[0,0]],[230.68102,155.61129],[[230.46792,156.63772],[0.2131,-0.54222],[3.91249,-0.07647]],[[241.95274,155.75633],[-3.85826,1.53184],[1.40482,-0.55775]],[[246.5463,151.92918],[-0.26568,1.71442],[0.12972,-0.8371]],[[244.40748,150.55677],[0.79665,0.28793],[-1.26344,-0.45664]],[[240.58881,149.26798],[1.20278,0.59844],[-1.3094,-0.65149]],[[236.93502,146.83885],[1.34327,0.57847],[-2.98161,-1.284]],[[230.49675,145.35225],[2.09388,0.65448],[0.2884,2.06507]]],&quot;closed&quot;:true}]}" fill="#a00000"/></g></g></svg>