<svg version="1.1" xmlns="http://www.w3.org/2000/svg" xmlns:xlink="http://www.w3.org/1999/xlink" width="85.93594" height="35.61327" viewBox="0,0,85.93594,35.61327"><g transform="translate(-196.46867,-161.52985)"><g data-paper-data="{&quot;isPaintingLayer&quot;:true}" fill-rule="nonzero" stroke="none" stroke-width="0.5" stroke-linecap="butt" stroke-linejoin="miter" stroke-miterlimit="10" stroke-dasharray="" stroke-dashoffset="0" style="mix-blend-mode: normal"><path d="M259.20948,191.66379l-1.22567,-0.06458c0,0 -1.68965,-0.08903 -2.21563,-1.51063c-1.15186,-0.1168 -2.30212,-0.18399 -3.44653,-0.04911c-2.26134,0.26652 -4.51716,0.79908 -6.78713,0.85784c-0.05761,1.37386 -0.03672,2.77844 -1.12032,3.30022c-2.7718,1.3347 -4.58045,-0.36701 -5.73593,-2.34332c-0.53627,-0.00187 -1.0697,-0.04236 -1.59541,-0.12722c-0.67447,-0.10888 -1.47161,-1.38468 -1.87316,-0.83194c-0.7214,0.99299 0.79933,2.95573 -0.19374,3.67701c-1.15138,0.83625 -7.3687,0.34498 -9.15786,0.25071l-2.45134,-0.12916c0,0 -0.11721,-0.00618 -0.2995,-0.04125c-1.47281,1.90171 -3.68655,3.43892 -6.0252,1.79225c-1.0638,-0.74903 -1.04628,-2.19876 -0.95052,-3.66437c-0.63178,0.26767 -1.23989,0.23563 -1.23989,0.23563l-3.67701,-0.19374c-3.18415,-0.16778 -5.84063,-0.86691 -8.73956,0.50428c0,0 -1.32839,0.57895 -2.40326,-0.15605c-0.68655,0.33948 -1.83406,0.59773 -2.90525,-0.59261c-1.6723,-1.85834 0.18603,-3.53063 0.18603,-3.53063c3.61597,-3.106 2.8073,-5.70212 4.90599,-9.98166c0.6718,-1.36992 1.95605,-2.36279 2.70767,-3.6906c1.94771,-3.44083 2.09756,-8.4961 7.60935,-8.38217c1.42278,0.0294 2.68887,1.04166 3.82168,1.90298c4.56241,3.46903 5.44282,9.32144 5.18693,14.59494c-0.00623,0.12857 -0.0073,0.28011 -0.00482,0.45099c0.58517,-1.13056 1.12517,-2.31214 1.32256,-3.24071c0.78528,-3.69412 1.0106,-7.24055 3.3567,-10.57085c0.8536,-1.21168 2.06958,-2.14741 3.28199,-2.99998c0.64249,-0.4518 1.61635,-0.32332 2.19666,-0.85263c1.8097,-1.65066 1.36367,-6.76886 6.61996,-3.88109c1.81888,0.99928 2.03572,3.69223 2.44038,5.72769c0.84523,4.2515 -1.35777,9.04587 -0.7358,13.30686c0.18729,1.28308 0.95417,2.64803 1.61104,4.02416c0.65829,-1.36032 1.62982,-2.63587 2.18185,-4.0408c0.49474,-1.25912 0.99339,-2.51672 1.49008,-3.77507c0.41121,-0.72805 2.86951,-5.15663 3.29352,-5.55494c0.66678,-0.62635 1.8359,-0.48456 2.51592,-1.09651c0.68002,-0.61195 0.61464,-1.84915 1.35483,-2.38676c3.23473,-2.34939 5.47354,-2.42462 8.43331,0.44436c1.76667,1.71247 3.52148,8.19112 3.75867,11.1952c0.20458,-0.41849 0.43251,-0.81675 0.77372,-1.12381c0.77705,-0.69926 1.96926,-0.75477 2.83519,-1.34039c1.58378,-1.0711 2.99475,-2.48296 4.77716,-3.1748l3.72875,-2.92795c0.53372,2.06936 1.28979,4.09381 1.60118,6.20808c0.15097,1.02509 -0.37184,2.07347 -0.23031,3.09991c0.4065,2.94822 3.01713,6.75537 4.21785,9.51042l-4.87468,3.3662c0,0 -1.55368,-0.08186 -2.14512,-1.3421c-3.8664,-0.20372 -7.73279,-0.40745 -11.59919,-0.61117c-0.33233,0.37084 -0.66442,0.7418 -0.96133,1.1331l-0.80737,-1.15125c-0.01972,-0.02605 -0.03945,-0.05211 -0.05919,-0.07816c-0.91608,-0.04827 -1.83217,-0.09654 -2.74825,-0.14481zM273.03924,180.51374c-0.66693,0.50163 -1.33164,1.00746 -2.02316,1.46702c-0.65415,0.43474 -1.61281,0.32723 -2.19666,0.85263c-0.58384,0.5254 -0.56891,1.49741 -1.07875,2.09489c-0.63171,0.74029 -1.84611,0.95793 -2.27273,1.83262c-0.03511,0.07198 -0.06094,0.14595 -0.07912,0.22154c3.34059,0.17602 6.76163,0.35628 9.9591,0.52475c-1.11768,-2.28814 -2.14414,-4.74941 -2.30869,-6.99347zM251.78154,185.06873c0.21429,-0.02328 4.98895,0.22872 6.9514,0.33337c-0.22153,-0.82632 -0.34941,-1.68725 -0.32426,-2.6068c0.025,-0.91448 1.28515,-1.47459 1.35483,-2.38676c0.07441,-0.97408 -0.67525,-1.83453 -0.96102,-2.76872c-0.36118,-1.18068 -0.62359,-2.38991 -0.97874,-3.57242c-0.04063,-0.13529 -0.44546,-2.16526 -1.25797,-2.20807c-1.17058,-0.06168 -1.19557,2.06096 -2.0669,2.84507c-0.68002,0.61195 -1.81842,0.50456 -2.51592,1.09651c-1.14946,0.97551 -1.37835,2.68282 -2.12581,3.99209c-0.78292,2.00253 -1.78824,4.0082 -2.70045,6.00427c1.5425,-0.19039 3.0801,-0.56077 4.62484,-0.72854zM226.12117,189.82969c1.22567,0.06458 2.47007,-0.0293 3.67701,0.19374c0.67183,0.12415 1.47161,1.38468 1.87316,0.83194c0.7214,-0.99299 -0.79933,-2.95573 0.19374,-3.67701c1.15201,-0.8367 2.77714,-0.86417 4.49386,-0.76895c-0.52926,-1.33235 -1.01181,-2.67823 -1.21703,-4.08743c-0.06794,-0.46652 0.41183,-9.09121 0.41551,-9.15679c0.06715,-1.19625 -0.07369,-2.47545 -0.01117,-3.69102c-0.13673,0.18944 -0.28997,0.36479 -0.46435,0.5199c-1.38965,1.23613 -3.72192,1.4117 -4.7142,2.98475c-2.97361,4.71403 -2.47199,10.09565 -5.39723,14.95258c-0.03193,0.60604 0.01055,1.22554 0.01706,1.83854zM211.47771,187.82904l3.67701,0.19374c0,0 0.48354,0.02548 1.0138,0.26681c0.1295,-3.91109 1.05084,-7.58178 -0.27586,-11.51529c-0.48306,-1.43222 -1.88207,-4.43304 -3.58015,-4.78857c-0.82911,-0.17359 -1.1536,1.28324 -1.48305,2.06364c-0.52249,1.23766 -0.82704,2.57595 -1.48793,3.74557c-0.71949,1.27331 -1.96968,2.20994 -2.61802,3.52091c-1.43911,2.90992 -1.05956,4.29459 -1.82331,6.35113c2.07738,-0.17934 4.13869,0.03356 6.57751,0.16206z" fill="#540000"/><path d="M277.55698,187.25019c-3.19746,-0.16848 -6.70078,-0.35307 -10.04137,-0.52909c0.01817,-0.0756 0.04337,-0.15064 0.07847,-0.22262c0.42661,-0.87469 1.63778,-1.09902 2.26949,-1.8393c0.50984,-0.59747 0.49796,-1.61261 1.08181,-2.13801c0.58384,-0.5254 1.59826,-0.4416 2.25242,-0.87635c0.69152,-0.45957 1.37401,-0.95686 2.04094,-1.45849c0.16455,2.24405 1.20056,4.77573 2.31824,7.06387z" data-paper-data="{&quot;noHover&quot;:false,&quot;origItem&quot;:[&quot;Path&quot;,{&quot;applyMatrix&quot;:true,&quot;segments&quot;:[[[241.22542,213.02051],[-2.23228,0.2824],[-0.53603,-0.63961]],[[239.65398,211.07733],[0.49532,0.66638],[-0.46856,-0.63037]],[[238.68695,208.92859],[0.55539,0.55539],[-0.55539,-0.55539]],[[236.5382,207.96155],[0.62347,0.4777],[-0.7725,-0.59188]],[[234.58853,205.78841],[0.89593,0.37999],[-0.07373,-0.03127]],[[234.36313,205.72106],[0.07645,0.01417],[0,3.34522]],[[234.36313,215.69398],[0,-3.2019],[2.22616,-1.23653]]],&quot;closed&quot;:true}]}" fill="#a00000"/><path d="M245.5501,186.57797c0.91221,-1.99607 1.90319,-4.02692 2.68612,-6.02945c0.74745,-1.30927 1.00123,-3.0716 2.15069,-4.0471c0.6975,-0.59195 1.8693,-0.48971 2.54932,-1.10166c0.87134,-0.78411 0.90571,-2.90395 2.07629,-2.84227c0.81251,0.04281 1.23089,2.08103 1.27151,2.21631c0.35515,1.18251 0.63362,2.41761 0.99479,3.5983c0.28577,0.93419 1.0355,1.81866 0.96109,2.79273c-0.06968,0.91217 -1.33972,1.49209 -1.36472,2.40658c-0.02515,0.91955 0.0948,1.78823 0.31633,2.61455c-1.96245,-0.10464 -6.78263,-0.3483 -6.99692,-0.32503c-1.54475,0.16777 -3.10199,0.52664 -4.6445,0.71703z" data-paper-data="{&quot;noHover&quot;:false,&quot;origItem&quot;:[&quot;Path&quot;,{&quot;applyMatrix&quot;:true,&quot;segments&quot;:[[[235.55821,192.03193],[-0.24882,-1.53378],[0.03452,0.21277]],[[235.59107,198.99124],[0.00124,-1.96524],[0.81352,-0.2647]],[[238.1772,198.53026],[-0.9196,0.02327],[0.91453,-0.02315]],[[240.63194,199.75763],[-0.91457,-0.02159],[0.97665,0.02305]],[[243.34625,198.65226],[-0.91786,0.33453],[1.16004,-0.4228]],[[246.86222,197.4869],[-1.16218,0.41688],[0.13296,-0.04769]],[[249.00104,196.11449],[0,0.81364],[0,-1.1722]],[[246.05117,194.20015],[0.82887,0.82887],[-0.64688,-0.64688]],[[244.8238,191.74541],[0.62783,0.66539],[-1.03464,-1.09654]],[[240.72538,189.8326],[1.34679,0.67752],[-2.04095,-0.67647]],[[234.58733,187.45183],[2.0413,0.80592],[0.27129,1.53035]]],&quot;closed&quot;:true}]}" fill="#a00000"/><path d="M224.61451,190.62136c-0.00651,-0.61299 -0.0531,-1.23537 -0.02117,-1.8414c2.92524,-4.85693 2.44958,-10.32786 5.42319,-15.04188c0.99229,-1.57306 3.34779,-1.74526 4.73745,-2.9814c0.17437,-0.15511 0.32857,-0.33007 0.4653,-0.51951c-0.06253,1.21557 0.08607,2.4989 0.01894,3.69516c-0.00369,0.06558 -0.46673,8.75592 -0.3988,9.22244c0.20523,1.4092 0.67603,2.76953 1.20529,4.10188c-1.71673,-0.09523 -3.36828,-0.05631 -4.52029,0.7804c-0.99308,0.72128 0.52479,2.68427 -0.19661,3.67726c-0.40156,0.55274 -1.21048,-0.70809 -1.88231,-0.83225c-1.20694,-0.22305 -2.4677,-0.13415 -3.69337,-0.19873z" data-paper-data="{&quot;noHover&quot;:false,&quot;origItem&quot;:[&quot;Path&quot;,{&quot;applyMatrix&quot;:true,&quot;segments&quot;:[[[229.45365,166.65762],[0,0],[0,1.22737]],[[229.45365,170.33973],[0.15923,-1.217],[-0.08863,0.67743]],[[228.72141,172.25407],[-0.5731,-0.37192],[1.02957,0.66815]],[[232.40352,172.25407],[-0.77253,-0.95375],[0.89616,1.10639]],[[233.40786,176.70124],[0.00477,-1.71936],[1.30266,-0.59863]],[[237.42559,175.27082],[-1.39645,0.27909],[0.4623,-0.09239]],[[246.59156,175.20395],[-0.06568,-0.00023],[1.19813,0.00411]],[[250.27688,174.99858],[-1.21718,0.00152],[-0.19637,-0.12657]],[[249.73327,174.56224],[0.16407,0.16597],[-1.30754,-1.32268]],[[246.5046,170.01162],[1.62309,0.90814],[-4.86396,-2.72145]],[[231.28874,165.40863],[5.00412,2.66563],[-0.60688,0]],[[229.45365,165.52241],[0.6118,-0.03876],[0,0]]],&quot;closed&quot;:true}]}" fill="#a00000"/><path d="M205.68371,189.80543c0.76375,-2.05654 0.36759,-3.46534 1.80669,-6.37526c0.64835,-1.31097 1.91572,-2.30227 2.63521,-3.57558c0.6609,-1.16963 0.99441,-2.51825 1.5169,-3.75592c0.32945,-0.7804 0.66351,-2.23661 1.49263,-2.06301c1.69807,0.35552 3.13089,3.37835 3.61395,4.81057c1.3267,3.93352 0.38984,7.67405 0.26034,11.58514c-0.53026,-0.24134 -1.01726,-0.26485 -1.01726,-0.26485l-3.6969,-0.18829c-2.43884,-0.1285 -4.53417,-0.35214 -6.61156,-0.1728z" data-paper-data="{&quot;noHover&quot;:false,&quot;origItem&quot;:[&quot;Path&quot;,{&quot;applyMatrix&quot;:true,&quot;segments&quot;:[[[230.68102,151.92918],[0,-2.44222],[0,0]],[230.68102,155.61129],[[230.46792,156.63772],[0.2131,-0.54222],[3.91249,-0.07647]],[[241.95274,155.75633],[-3.85826,1.53184],[1.40482,-0.55775]],[[246.5463,151.92918],[-0.26568,1.71442],[0.12972,-0.8371]],[[244.40748,150.55677],[0.79665,0.28793],[-1.26344,-0.45664]],[[240.58881,149.26798],[1.20278,0.59844],[-1.3094,-0.65149]],[[236.93502,146.83885],[1.34327,0.57847],[-2.98161,-1.284]],[[230.49675,145.35225],[2.09388,0.65448],[0.2884,2.06507]]],&quot;closed&quot;:true}]}" fill="#a00000"/></g></g></svg>