<svg version="1.1" xmlns="http://www.w3.org/2000/svg" xmlns:xlink="http://www.w3.org/1999/xlink" width="129.8093" height="180.62675" viewBox="0,0,129.8093,180.62675"><g transform="translate(-128.41292,-137.10205)"><g data-paper-data="{&quot;isPaintingLayer&quot;:true}" fill-rule="nonzero" stroke="none" stroke-width="0.5" stroke-linecap="butt" stroke-linejoin="miter" stroke-miterlimit="10" stroke-dasharray="" stroke-dashoffset="0" style="mix-blend-mode: normal"><path d="" fill="#540000"/><path d="" data-paper-data="{&quot;noHover&quot;:false,&quot;origItem&quot;:[&quot;Path&quot;,{&quot;applyMatrix&quot;:true,&quot;segments&quot;:[[[10.35872,577.0335],[-1.02464,-5.03631],[0.02244,0.11032]],[[10.44142,577.35874],[-0.03246,-0.1066],[2.79606,-2.97191]],[[21.52689,570.86128],[-5.06202,1.07933],[2.40077,-0.5119]],[[28.8911,570.86128],[-2.40707,0.48141],[1.79412,-0.35882]],[[33.80058,568.40654],[-1.79689,0.34471],[2.16197,-0.41475]],[[40.40015,568.65339],[-2.20136,0.0113],[0.61527,-0.00316]],[[42.22304,568.36331],[0.40737,0.4611],[-0.65299,-0.73911]],[[39.39001,567.51004],[0.91255,0.37408],[-2.78462,-1.1415]],[[31.34584,563.41059],[2.95971,0.5452],[-2.41412,-0.4447]],[[23.98163,563.41059],[2.40707,0.48141],[-1.79412,-0.35882]],[[19.07215,560.95585],[1.79109,0.37367],[-2.27014,-0.47362]],[[9.80661,561.38683],[3.30145,-0.25469],[-0.39272,5.34032]]],&quot;closed&quot;:true}]}" fill="#a60000"/><path d="" data-paper-data="{&quot;noHover&quot;:false,&quot;origItem&quot;:[&quot;Path&quot;,{&quot;applyMatrix&quot;:true,&quot;segments&quot;:[[[10.35872,532.84819],[-0.08174,-0.39765],[0.89538,4.35584]],[[11.0845,546.30802],[0.24368,-4.58271],[3.48585,0.11266]],[[21.52689,546.31388],[-3.46897,0.29835],[0.81011,-0.06967]],[[23.80786,545.44938],[-0.39829,0.70887],[1.14334,-2.03488]],[[25.78662,538.73252],[-1.19252,2.00646],[1.19472,-2.01015]],[[30.67887,533.70288],[-1.81779,1.48208],[-2.4395,0.12427]],[[23.54925,531.37615],[2.17461,0.72252],[-5.51116,-1.8311]],[[7.02077,525.86779],[5.50882,1.83814],[1.48393,2.97879]]],&quot;closed&quot;:true}]}" fill="#a60000"/><path d="M128.94664,313.74786c0.44088,1.25225 1.49755,2.73936 1.42815,3.98094c-0.65892,-1.78667 -1.33178,-3.56886 -1.96187,-5.3641c0.1674,0.38195 0.34095,0.83562 0.53372,1.38316z" fill="#540000"/><g><path d="M229.36313,199.7966v-1.22737c0,0 0,-1.69199 1.39196,-2.29205c0.05603,-1.15641 0.0626,-2.30861 -0.13231,-3.44434c-0.38514,-2.24418 -1.03566,-4.46886 -1.21378,-6.73259c-1.37499,0.01476 -2.77652,0.10953 -3.3546,-0.94512c-1.4787,-2.69773 0.12549,-4.59342 2.03826,-5.85128c-0.02635,-0.53563 -0.01398,-1.07045 0.0431,-1.59989c0.07324,-0.67926 1.30533,-1.54243 0.73223,-1.91434c-1.02957,-0.66815 -2.90958,0.95375 -3.68211,0c-0.89567,-1.10578 -0.73223,-7.34034 -0.73223,-9.13198v-2.45474c0,0 0,-0.11737 0.02543,-0.30126c-1.97657,-1.37071 -3.62813,-3.50049 -2.1068,-5.92255c0.69202,-1.10174 2.14066,-1.16052 3.60928,-1.14201c-0.30054,-0.61682 -0.30054,-1.22577 -0.30054,-1.22577v-3.68211c0,-3.18857 0.55839,-5.87815 -0.96344,-8.70092c0,0 -0.64805,-1.29609 0.02938,-2.40814c-0.37513,-0.66774 -0.69341,-1.80007 0.43892,-2.93241c1.76777,-1.76777 3.53553,0 3.53553,0c3.29196,3.44753 5.84194,2.50338 10.22598,4.37398c1.40337,0.59879 2.46244,1.82902 3.82796,2.50973c3.53855,1.76396 8.5947,1.64761 8.77095,7.15776c0.0455,1.42236 -0.89873,2.73995 -1.69926,3.91652c-3.22416,4.73862 -9.02214,5.92575 -14.3018,5.9477c-0.12872,0.00054 -0.28011,0.00745 -0.45062,0.01892c1.15978,0.52487 2.36814,1.00195 3.30581,1.15021c3.73032,0.58982 7.2837,0.62822 10.73283,2.79583c1.25492,0.78866 2.25333,1.95372 3.16852,3.11959c0.48498,0.61783 0.40792,1.5971 0.96703,2.14875c1.7436,1.72034 6.83124,1.00562 4.22404,6.40658c-0.90219,1.86894 -3.58,2.22718 -5.59135,2.73838c-4.20114,1.06776 -9.10478,-0.87992 -13.32714,-0.0346c-1.27145,0.25454 -2.59416,1.09218 -3.93382,1.82055c1.39307,0.5858 2.71798,1.48887 4.15001,1.96621c1.28341,0.4278 2.5655,0.85959 3.84825,1.28938c0.74868,0.37233 5.30047,2.5942 5.72054,2.99667c0.66057,0.6329 0.58049,1.80786 1.22737,2.45474c0.64688,0.64688 1.87893,0.51649 2.45474,1.22737c2.51634,3.10663 2.70927,5.33838 0,8.44501c-1.61714,1.85433 -7.99448,3.9476 -10.98192,4.34253c0.42868,0.18228 0.83838,0.38894 1.16296,0.71352c0.73918,0.73918 0.85734,1.92682 1.48771,2.76073c1.15295,1.52523 2.6371,2.85995 3.42177,4.60349l3.12009,3.56952c-2.03841,0.64187 -4.02027,1.50341 -6.11523,1.92562c-1.01573,0.2047 -2.09016,-0.26222 -3.10773,-0.06688c-2.92275,0.56107 -6.58726,3.3684 -9.27531,4.71242l-3.61803,-4.69081c0,0 0,-1.55584 1.22737,-2.21277c0,-3.87176 0,-7.74352 0,-11.61528c-0.38781,-0.31236 -0.77573,-0.62447 -1.18211,-0.90038l1.10717,-0.86683c0.02498,-0.02106 0.04996,-0.04214 0.07494,-0.06322c0,-0.91735 0,-1.83471 0,-2.75206zM241.22542,213.02051c-0.53603,-0.63961 -1.07613,-1.27679 -1.57144,-1.94317c-0.46856,-0.63037 -0.41164,-1.59336 -0.96703,-2.14875c-0.55539,-0.55539 -1.52527,-0.48933 -2.14875,-0.96703c-0.7725,-0.59188 -1.05374,-1.79315 -1.94967,-2.17315c-0.07373,-0.03127 -0.14895,-0.05318 -0.2254,-0.06735c0,3.34522 0,6.77101 0,9.97292c2.22616,-1.23653 4.63001,-2.39107 6.8623,-2.67347zM235.55821,192.03193c0.03452,0.21277 0.0341,4.99407 0.03286,6.95931c0.81352,-0.2647 1.66653,-0.43771 2.58613,-0.46098c0.91453,-0.02315 1.54017,1.20578 2.45474,1.22737c0.97665,0.02305 1.79646,-0.77084 2.71432,-1.10537c1.16004,-0.4228 2.35379,-0.74848 3.51597,-1.16536c0.13296,-0.04769 2.13882,-0.55877 2.13882,-1.37241c0,-1.1722 -2.12101,-1.08547 -2.94988,-1.91434c-0.64688,-0.64688 -0.59954,-1.78935 -1.22737,-2.45474c-1.03464,-1.09654 -2.75163,-1.23528 -4.09842,-1.91281c-2.04095,-0.67647 -4.09674,-1.57486 -6.13804,-2.38078c0.27129,1.53035 0.72206,3.04633 0.97088,4.5801zM229.45365,166.65762c0,1.22737 0.15923,2.46511 0,3.68211c-0.08863,0.67743 -1.30533,1.54243 -0.73223,1.91434c1.02957,0.66815 2.90958,-0.95375 3.68211,0c0.89616,1.10639 1.0091,2.72782 1.00434,4.44717c1.30266,-0.59863 2.62128,-1.15133 4.01773,-1.43042c0.4623,-0.09239 9.10029,-0.0671 9.16597,-0.06688c1.19813,0.00411 2.46814,-0.20384 3.68532,-0.20537c-0.19637,-0.12657 -0.37954,-0.27037 -0.54361,-0.43635c-1.30754,-1.32268 -1.60558,-3.64248 -3.22867,-4.55062c-4.86396,-2.72145 -10.21174,-1.93735 -15.21586,-4.60298c-0.60688,0 -1.22329,0.07502 -1.8351,0.11378zM230.68102,151.92918v3.68211c0,0 0,0.48421 -0.2131,1.02643c3.91249,-0.07647 7.62657,0.65045 11.48482,-0.88139c1.40482,-0.55775 4.32787,-2.11272 4.59356,-3.82715c0.12972,-0.8371 -1.34216,-1.08448 -2.13882,-1.37241c-1.26344,-0.45664 -2.6159,-0.69035 -3.81867,-1.28879c-1.3094,-0.65149 -2.31052,-1.85067 -3.65379,-2.42913c-2.98161,-1.284 -4.34439,-0.83212 -6.43827,-1.4866c0.2884,2.06507 0.18426,4.13472 0.18426,6.57693z" fill="#540000"/><path d="M234.73602,217.88645c0,-3.2019 0,-6.71008 0,-10.0553c0.07645,0.01417 0.15271,0.03538 0.22644,0.06665c0.89593,0.37999 1.18367,1.57768 1.95617,2.16957c0.62347,0.4777 1.63658,0.41242 2.19197,0.96781c0.55539,0.55539 0.52509,1.57281 0.99365,2.20319c0.49532,0.66638 1.02783,1.32176 1.56386,1.96137c-2.23228,0.2824 -4.70594,1.45019 -6.9321,2.68671z" data-paper-data="{&quot;noHover&quot;:false,&quot;origItem&quot;:[&quot;Path&quot;,{&quot;applyMatrix&quot;:true,&quot;segments&quot;:[[[241.22542,213.02051],[-2.23228,0.2824],[-0.53603,-0.63961]],[[239.65398,211.07733],[0.49532,0.66638],[-0.46856,-0.63037]],[[238.68695,208.92859],[0.55539,0.55539],[-0.55539,-0.55539]],[[236.5382,207.96155],[0.62347,0.4777],[-0.7725,-0.59188]],[[234.58853,205.78841],[0.89593,0.37999],[-0.07373,-0.03127]],[[234.36313,205.72106],[0.07645,0.01417],[0,3.34522]],[[234.36313,215.69398],[0,-3.2019],[2.22616,-1.23653]]],&quot;closed&quot;:true}]}" fill="#a00000"/><path d="M233.72318,185.88854c2.0413,0.80592 4.12148,1.68867 6.16244,2.36514c1.34679,0.67752 3.12003,0.83822 4.15466,1.93476c0.62783,0.66539 0.58739,1.84094 1.23427,2.48782c0.82887,0.82887 2.94758,0.75166 2.94758,1.92386c0,0.81364 -2.01338,1.33868 -2.14634,1.38637c-1.16218,0.41688 -2.38092,0.75995 -3.54097,1.18275c-0.91786,0.33453 -1.76165,1.12976 -2.73829,1.10671c-0.91457,-0.02159 -1.56052,-1.25935 -2.47505,-1.2362c-0.9196,0.02327 -1.78076,0.18876 -2.59428,0.45346c0.00124,-1.96524 -0.00907,-6.79156 -0.04358,-7.00433c-0.24882,-1.53378 -0.68913,-3.06998 -0.96042,-4.60034z" data-paper-data="{&quot;noHover&quot;:false,&quot;origItem&quot;:[&quot;Path&quot;,{&quot;applyMatrix&quot;:true,&quot;segments&quot;:[[[235.55821,192.03193],[-0.24882,-1.53378],[0.03452,0.21277]],[[235.59107,198.99124],[0.00124,-1.96524],[0.81352,-0.2647]],[[238.1772,198.53026],[-0.9196,0.02327],[0.91453,-0.02315]],[[240.63194,199.75763],[-0.91457,-0.02159],[0.97665,0.02305]],[[243.34625,198.65226],[-0.91786,0.33453],[1.16004,-0.4228]],[[246.86222,197.4869],[-1.16218,0.41688],[0.13296,-0.04769]],[[249.00104,196.11449],[0,0.81364],[0,-1.1722]],[[246.05117,194.20015],[0.82887,0.82887],[-0.64688,-0.64688]],[[244.8238,191.74541],[0.62783,0.66539],[-1.03464,-1.09654]],[[240.72538,189.8326],[1.34679,0.67752],[-2.04095,-0.67647]],[[234.58733,187.45183],[2.0413,0.80592],[0.27129,1.53035]]],&quot;closed&quot;:true}]}" fill="#a00000"/><path d="M228.5838,165.1947c0.6118,-0.03876 1.23086,-0.11803 1.83774,-0.11803c5.00412,2.66563 10.44244,1.90276 15.3064,4.62421c1.62309,0.90814 1.919,3.25132 3.22654,4.57401c0.16407,0.16597 0.3469,0.31075 0.54327,0.43732c-1.21718,0.00152 -2.49091,0.21744 -3.68904,0.21334c-0.06568,-0.00023 -8.76835,-0.00537 -9.23065,0.08702c-1.39645,0.27909 -2.73012,0.82082 -4.03278,1.41945c0.00477,-1.71936 -0.121,-3.36658 -1.01717,-4.47297c-0.77253,-0.95375 -2.65294,0.6653 -3.68251,-0.00285c-0.5731,-0.37192 0.64342,-1.24606 0.73205,-1.92349c0.15923,-1.217 0.00412,-2.47134 0.00412,-3.69871z" data-paper-data="{&quot;noHover&quot;:false,&quot;origItem&quot;:[&quot;Path&quot;,{&quot;applyMatrix&quot;:true,&quot;segments&quot;:[[[229.45365,166.65762],[0,0],[0,1.22737]],[[229.45365,170.33973],[0.15923,-1.217],[-0.08863,0.67743]],[[228.72141,172.25407],[-0.5731,-0.37192],[1.02957,0.66815]],[[232.40352,172.25407],[-0.77253,-0.95375],[0.89616,1.10639]],[[233.40786,176.70124],[0.00477,-1.71936],[1.30266,-0.59863]],[[237.42559,175.27082],[-1.39645,0.27909],[0.4623,-0.09239]],[[246.59156,175.20395],[-0.06568,-0.00023],[1.19813,0.00411]],[[250.27688,174.99858],[-1.21718,0.00152],[-0.19637,-0.12657]],[[249.73327,174.56224],[0.16407,0.16597],[-1.30754,-1.32268]],[[246.5046,170.01162],[1.62309,0.90814],[-4.86396,-2.72145]],[[231.28874,165.40863],[5.00412,2.66563],[-0.60688,0]],[[229.45365,165.52241],[0.6118,-0.03876],[0,0]]],&quot;closed&quot;:true}]}" fill="#a00000"/><path d="M228.4025,146.2472c2.09388,0.65448 3.47988,0.18474 6.46149,1.46874c1.34327,0.57847 2.39988,1.79193 3.70929,2.44342c1.20278,0.59844 2.56709,0.86053 3.83053,1.31717c0.79665,0.28793 2.26842,0.54491 2.13869,1.38201c-0.26568,1.71442 -3.20893,3.30431 -4.61375,3.86207c-3.85826,1.53184 -7.64291,0.79309 -11.55539,0.86956c0.2131,-0.54222 0.21096,-1.02979 0.21096,-1.02979l-0.00649,-3.70169c0,-2.44222 0.11307,-4.54642 -0.17533,-6.61149z" data-paper-data="{&quot;noHover&quot;:false,&quot;origItem&quot;:[&quot;Path&quot;,{&quot;applyMatrix&quot;:true,&quot;segments&quot;:[[[230.68102,151.92918],[0,-2.44222],[0,0]],[230.68102,155.61129],[[230.46792,156.63772],[0.2131,-0.54222],[3.91249,-0.07647]],[[241.95274,155.75633],[-3.85826,1.53184],[1.40482,-0.55775]],[[246.5463,151.92918],[-0.26568,1.71442],[0.12972,-0.8371]],[[244.40748,150.55677],[0.79665,0.28793],[-1.26344,-0.45664]],[[240.58881,149.26798],[1.20278,0.59844],[-1.3094,-0.65149]],[[236.93502,146.83885],[1.34327,0.57847],[-2.98161,-1.284]],[[230.49675,145.35225],[2.09388,0.65448],[0.2884,2.06507]]],&quot;closed&quot;:true}]}" fill="#a00000"/></g></g></g></svg>