<svg version="1.1" xmlns="http://www.w3.org/2000/svg" xmlns:xlink="http://www.w3.org/1999/xlink" width="106.87649" height="414.57074" viewBox="0,0,106.87649,414.57074"><g transform="translate(-183.13941,-57.05899)"><g data-paper-data="{&quot;isPaintingLayer&quot;:true}" fill-rule="nonzero" stroke="none" stroke-width="0.5" stroke-linecap="butt" stroke-linejoin="miter" stroke-miterlimit="10" stroke-dasharray="" stroke-dashoffset="0" style="mix-blend-mode: normal"><path d="M209.19739,468.88205c0,2.5 -2.5,2.5 -2.5,2.5h-1c-5.56476,0 -11.48249,0.55729 -17.01172,-0.00003c-1.60662,-0.16194 -3.84354,0.52998 -4.7802,-0.78535c-1.31798,-1.85081 -0.51331,-4.5188 -0.61338,-6.78872c-0.03681,-0.83492 -0.06298,-1.67179 -0.08012,-2.51022c1.45347,0.33268 3.16926,0.31394 5.17954,-0.28144c0.00866,0.96448 0.00403,1.92811 -0.1003,2.88539c-0.11946,1.09615 -0.98404,2.1222 -0.80085,3.20952c0.07865,0.46682 0.7523,-0.64828 1.21874,-0.72912c0.98146,-0.1701 1.99219,-0.00002 2.98828,-0.00003c4.66667,-0.00002 9.33333,0 14,0h1c0,0 2.5,0 2.5,2.5z" fill="#990000"/><g><g><path d="M248.47261,66.04838c2.27802,2.05993 5.73507,6.93378 8.76775,7.91697c1.19068,0.38602 2.71683,-0.36017 3.73732,0.36462c0.85939,0.61037 0.20525,2.30756 1,3c0.4996,0.43529 1.29413,-0.59336 1.93868,-0.43961c1.63535,0.3901 3.58671,0.68572 4.62765,2.00594c0.5532,0.70162 0.47943,5.68685 0.47238,7.27566c0.27502,0.44648 0.47114,0.93042 0.56832,1.45548c0.30657,1.6565 0.16509,3.08553 -0.29418,4.32997c0.38739,2.66326 1.31627,5.04775 3.53507,7.44396c0.16566,3.44438 0.80844,7.26728 -0.76548,10.51082c1.65674,0.35842 2.42113,2.68607 3.53591,4.05914c1.5118,1.86207 2.28392,4.22582 3.22957,6.43004c1.91477,4.46314 3.15802,6.62922 3.15802,11.55625c1.39864,4.60728 -0.20692,8.21186 -1,12.80091c-0.32582,1.8853 -0.02923,3.88603 0.08921,5.85809c5.04618,4.14512 1.20485,8.65159 -2.81887,12.12281c-0.10498,0.09056 -0.2104,0.17928 -0.31626,0.2662c-0.0101,0.02543 -0.0198,0.05107 -0.02907,0.07691c-0.25643,0.71475 0.09183,1.51634 0.10727,2.27554c0.07786,3.82919 0.45672,6.93291 0.98127,10.69454c0.6638,4.76017 0.52525,9.81297 0.3159,14.82249c1.04233,-0.62539 2.29855,-0.98652 3.80237,-0.98475c0.1338,0.00016 0.26727,0.00346 0.40046,0.00964v-0.04192h4c1.38071,0 2.5,1.11929 2.5,2.5c0,0.57481 -0.19399,1.10432 -0.52008,1.52661l-1.47461,1.95201c-2.39682,4.52945 -4.80015,9.05545 -7.20475,13.58078c0.17438,3.22765 -0.41821,6.25837 -3.71559,8.87396c-0.55002,0.43629 -1.09259,0.85791 -1.64033,1.23775c-4.68367,9.13262 -8.34957,18.58999 -12.68776,27.90428c-0.85545,1.83668 -3.41402,6.28111 -4.28637,7.46314c-0.43228,0.58573 -1.38411,0.74484 -1.66081,1.41818c-0.70875,1.72467 0.08109,3.74185 -0.15238,5.5918c-0.03946,0.31265 -0.08215,0.62478 -0.12767,0.93646l0.70999,1.06499l-0.98876,0.65918c-0.01352,0.07686 -0.02716,0.1537 -0.04092,0.23053c0.14788,0.8263 0.29546,1.65275 0.53453,2.4304l-0.92778,-0.37536c-0.65414,3.24864 -1.42385,6.47575 -1.82887,9.75165c-0.13049,1.05544 0.1971,2.15057 -0.02626,3.19033c-1.00056,4.65759 -3.22975,9.09105 -3.9803,13.86879c-0.34631,2.20449 0.01873,4.46302 0.01873,6.69454c0,2.1181 -0.81027,6.30174 -0.10727,8.27554c0.35946,1.00925 1.37238,1.66861 1.85306,2.62608c1.32262,2.63455 1.34932,6.29562 2.88084,8.78405c0.49416,0.80293 1.53625,1.17913 2,2c1.0248,1.81393 2.76883,7.5861 0.4119,9.28484c-1.58584,1.14298 -3.89226,-0.37947 -5.84399,-0.48924c-3.62584,-0.20394 -6.42585,-1.48932 -10,-2c-3.96724,-0.56684 -7.2232,0.66352 -10.90397,1.89044c0,0 -0.30996,0.10332 -0.74312,0.1232c-0.34745,0.53352 -0.96167,1.00509 -2.04745,1.00509c-1.92887,0 -2.36952,-1.48821 -2.47019,-2.16818c-0.67114,0.82469 -1.36141,1.63154 -2.10253,2.37265l-2,2c0,0 -1.76777,1.76777 -3.53553,0c-1.76777,-1.76777 0,-3.53553 0,-3.53553l2,-2c1.90169,-1.90169 3.458,-4.22402 5.22823,-6.1854c-0.44939,-2.44265 -1.27159,-4.96392 -2.33442,-6.82326c-1.20828,-2.11378 -3.20505,-3.6684 -4.71891,-5.57529c-1.73763,-2.18876 -3.28908,-5.0996 -4.37634,-7.62826c-2.24672,-5.22526 -3.60261,-10.50643 -4.36205,-15.90316c-1.33873,-0.52611 -2.6747,-1.12736 -4.05549,-2.03672c0,0 -1.3116,-0.8744 -1.15748,-2.27604c-0.0153,-0.00018 -0.03062,-0.00031 -0.04596,-0.0004c-0.05683,-1.65963 -0.10411,-3.33129 0.83907,-4.58795c0.75155,-1.00133 2.25701,-0.78329 3.64017,-0.71171c-0.02942,-1.00994 -0.04482,-2.02485 -0.04795,-3.04511l-0.96832,-2.99516c0.05267,-0.81458 0.43306,-1.6752 0.15802,-2.44375c-0.72899,-2.03701 -4.08081,-2.79596 -4.1903,-4.95671c-0.06877,-1.35708 1.72412,-2.12064 2.37337,-3.31433c0.98952,-1.81929 1.35243,-3.94097 1.64536,-5.99113c0.77737,-5.44069 -0.3408,-11.23648 0.17157,-16.73783c-0.66667,-0.66667 -1.67463,-1.11512 -2,-2c-0.99683,-2.71098 -0.51796,-7.07345 -0.2886,-10.56314c-1.32665,0.0684 -2.68908,0.20489 -3.50996,-0.6891c-2.98812,-3.25427 0.11505,-6.81194 1.68764,-9.15452c0.82099,-1.22297 1.39028,-2.70824 2.56264,-3.60002c0.12904,-0.09815 0.26259,-0.18923 0.40003,-0.27398c0.81055,-0.98009 1.82769,-1.86104 1.99022,-3.07641c0.68591,-5.12898 0.16032,-10.25265 0.10888,-15.36706l-2.71753,-0.90584c-1.02156,-0.31417 -1.76412,-1.26534 -1.76412,-2.38994c0,-0.89002 0.46508,-1.67141 1.16548,-2.11439l3.6789,-2.40553l0.0058,0.00887l0.03491,-0.03493c0.043,-0.0258 0.086,-0.05164 0.12901,-0.07751c0.11142,-0.64003 0.24398,-1.27988 0.40103,-1.91955c0,0 0.03859,-0.15436 0.13524,-0.37545c-0.20988,-0.53888 -0.20988,-1.01821 -0.20988,-1.01821v-3c0,-6.31445 -0.73665,-13.09171 0.03237,-19.35124c0.16454,-1.33926 0.39293,-2.72716 0.63694,-4.13982c-2.96806,-1.19796 -2.44731,-3.35631 1.05928,-6.59189c0.23968,-1.92528 0.37383,-3.82915 0.28532,-5.65367c-0.09995,-2.0605 -1.6329,-3.82969 -1.98163,-5.86292c-0.50771,-2.96013 -0.5061,-6.03661 -1,-9c-0.16199,-0.97192 -0.74826,-1.83886 -0.96115,-2.79781c-1.8341,0.18166 -3.76536,0.01411 -4.93972,-1.20417c-1.61126,-1.67152 2.13698,-8.47794 2.86583,-9.71659c0.21472,-0.36491 0.43434,-0.7066 0.65905,-1.0276c0.49431,-1.57264 1.13396,-3.35596 1.376,-4.05473c-0.06456,-5.19924 -0.03228,-10.39993 -0.03228,-15.59954c0,-4.54102 -0.40574,-7.39718 2.47189,-11.46178c0.80675,-1.13952 1.79987,-2.27123 3.0714,-2.84792c1.08064,-0.49012 2.37023,-0.12142 3.55625,-0.15802c0.33555,-0.01035 0.76102,0.18782 1.0787,0.1545c0.11533,-0.12208 0.23561,-0.24195 0.35963,-0.35955c-0.02328,-0.28394 -0.39818,-0.62336 -0.50559,-0.92678c-0.2703,-0.76357 -0.40214,-1.58459 -0.77807,-2.30208c-0.55779,-1.06457 -1.46418,-1.9242 -2,-3c-0.43395,-0.87127 -0.37872,-1.95021 -0.88084,-2.78405c-0.48636,-0.80768 -1.52243,-1.18709 -2,-2c-0.20892,-0.35562 -2.02503,-5.86362 -2.24508,-6.52376c0,0 -0.79057,-2.37171 1.58114,-3.16228c1.43324,-0.47775 2.28907,0.19933 2.74196,0.80996c7.54697,0.01969 14.96979,0.25131 22.31447,2.07309c1.58233,0.39248 8.21977,1.68925 8.75834,3.61402c0.12986,0.4641 0.11226,0.9228 -0.00343,1.37564zM241.82136,323.87681c2.43369,0.34762 4.66898,1.61587 7.095,2.01355c0.95559,0.15664 1.97644,-0.28825 2.905,-0.01355c0.4152,0.12283 0.77208,0.36756 1.1127,0.64552c-0.23559,-0.59364 -0.19498,-1.31236 -0.54478,-1.84992c-0.51422,-0.79023 -1.52243,-1.18709 -2,-2c-0.63102,-1.07411 -0.8397,-2.34581 -1.24508,-3.52376c-0.65003,-1.88887 -0.98357,-3.90408 -1.87408,-5.69219c-0.59425,-1.19324 -1.74347,-2.10342 -2.14694,-3.37392c-0.17799,-0.56049 -0.28358,-1.20818 -0.33986,-1.90676c-0.54524,0.39029 -1.08587,0.82873 -1.57979,1.58077c-1.39258,2.12034 -2.48461,4.49439 -4.26034,6.30599c-2.29195,2.29195 -4.63766,5.12948 -7.18279,7.16559c-0.55784,0.44627 -1.22734,0.74704 -1.84472,1.11174c0.03615,0.41647 0.06272,0.82583 0.07954,1.22558c3.89562,-1.27749 7.57218,-2.29627 11.82615,-1.68865zM245.03463,293.05262c0.74313,-4.88198 2.99224,-9.39205 4.0197,-14.13121c0.19845,-0.91533 -0.14199,-1.88025 -0.02626,-2.80967c0.47317,-3.80011 1.41913,-7.5323 2.12223,-11.30699c-0.25487,-0.25341 -0.51496,-0.50649 -0.77939,-0.75892c-0.71503,-0.02727 -1.42106,-0.16343 -2.06286,-0.40633c-2.60209,-0.98483 -2.65481,-2.82853 -4.81831,-1.21809c-3.18837,2.37333 -5.67036,6.08221 -8.64702,8.73619c-3.63579,3.24167 -7.24784,4.95992 -11.41249,7.29946c-1.21359,0.68175 -2.20996,1.78984 -3.53036,2.23045c-1.08143,0.36087 -2.29103,-0.07696 -3.419,0.08854c-1.07135,0.15719 -2.09254,0.5696 -3.14329,0.83033c0.03564,0.42158 0.07458,0.84221 0.11697,1.26194c0.90851,0.32936 1.83993,0.69198 2.81924,1.18067c7.63249,3.80871 13.44219,10.13082 21.69219,12.87408c2.14569,0.71348 4.32702,1.3192 6.51489,1.89044c0.15861,0.04141 0.32702,0.07214 0.50237,0.0953c-0.07705,-1.95913 -0.2425,-3.92549 0.05139,-5.85619zM252.2062,254.40137c0.42559,-1.08051 1.66228,-1.6382 2.33919,-2.58182c0.66488,-0.92686 3.01874,-5.03876 3.71363,-6.53686c3.77232,-8.13271 7.06073,-16.35951 10.94161,-24.39309c-0.20973,-0.06262 -0.42345,-0.13634 -0.64144,-0.22182c-2.08384,-0.81707 -3.8785,-3.56748 -4.57563,-6.36302c-5.44701,1.33637 -10.82929,-0.83622 -16.15931,-1.53477c-3.18902,-0.41795 -6.43254,0.02479 -9.64883,0.02479c-3.47477,0 -7.30262,-0.43871 -10.75366,-0.01217c-2.67846,0.33105 -5.18712,1.5448 -7.85054,1.98064c-2.93245,0.47986 -6.05138,-0.32044 -8.99535,-0.00075c-0.34542,0.03751 -0.66743,0.15121 -0.9685,0.31922c-0.17559,1.17685 0.2602,2.46699 0.37938,3.7083c0.20468,-0.00281 0.40977,0.00977 0.61534,0.04144c1.47146,0.22673 2.52469,1.58157 3.82814,2.30104c5.20115,2.87093 9.68693,6.51434 14.33016,10.22892c2.78049,2.22439 4.52284,2.18016 6.59053,5.70161c2.19397,3.73652 1.88012,9.07479 4.77383,12.66646c1.95803,2.4303 4.28048,2.75013 6.59366,4.59826c1.66278,1.32849 3.38947,2.75907 5.05051,4.23295c-0.04115,-1.43022 -0.07676,-2.85427 0.43728,-4.15933zM271.72533,204.98637c0.66067,-0.18863 1.50532,0.05591 2.0228,-0.39606c1.06467,-0.92987 0.28532,-2.81878 0.26777,-4.23223c0,-7.67208 1.12762,-16.12931 0.01873,-23.69454c-0.44924,-3.06487 -1.40955,-7.03821 -1.45385,-10.68132c-4.17701,1.47997 -8.73431,1.64528 -13.28575,2.61352c-11.20987,5.22938 -23.44157,7.99085 -34.75179,12.8428c-2.13928,0.91773 -4.22404,2.04481 -6.27334,3.24711c3.06922,-0.21791 6.24282,0.16933 8.81927,1.30318c3.02335,1.33053 5.00013,4.32356 7.62174,6.33306c2.52898,1.93849 5.38516,3.42098 8.20447,4.9059c8.0526,4.24126 16.96652,5.07168 25.14019,8.72514l0.41335,0.13778c1.13875,-0.47621 2.30319,-0.83218 3.25642,-1.10434zM275.12317,158.63362c0.28661,-0.84507 -0.21852,-1.79527 -0.07499,-2.676c0.12426,-0.76245 0.50706,-1.46075 0.77337,-2.18826c-0.15568,-0.02691 -0.30285,-0.05998 -0.43671,-0.10287c-3.59623,-1.15242 -6.84914,-2.26333 -10.60989,-2.90399c-8.61283,-1.46724 -18.07401,-2.69346 -26.79314,-1.67933c-6.27394,0.72973 -12.32564,3.01992 -18.27242,5.00218c-1.7127,0.5378 -3.35495,1.74256 -5.12645,1.72377c-0.21096,1.26521 -0.40789,2.50631 -0.56058,3.70601c-0.7728,6.07186 -0.00647,12.71073 -0.00647,18.84295v3c0,0 0,0.01824 -0.00156,0.0516c2.76734,-1.67895 5.58696,-3.29376 8.50849,-4.54476c11.46769,-4.91046 23.77586,-7.83181 35.19244,-13.01306c5.85938,-1.27387 12.4855,-0.86264 17.27303,-4.89894c0.05202,-0.10299 0.09751,-0.20917 0.13486,-0.31931zM276.04818,143.95763c0.63829,-3.95761 2.4285,-7.36177 1,-11.19909c0,-4.9044 -1.59115,-8.90527 -3.77807,-13.30208c-0.33317,-0.66985 -0.83786,-1.23314 -1.26967,-1.81195c-0.00512,0.03809 -0.01073,0.0761 -0.01683,0.11403c-0.18853,1.17257 -0.68735,2.27501 -1.09601,3.39011c-0.49188,1.34219 -0.56796,2.99224 -1.60394,3.9772c-0.50103,0.47636 -1.40038,0.91694 -2.46327,1.25085c0.14909,0.12777 0.27868,0.27767 0.38313,0.4563c1.99636,3.41432 0.19531,6.93346 -2.76029,8.61645c-5.69038,3.24025 -12.74645,2.33434 -18.85501,3.311c-4.91699,0.78615 -10.27327,3.46003 -14.81941,5.33815c-1.88692,0.77953 -3.59752,1.76474 -5.27587,2.79378c3.90031,-1.23599 7.85836,-2.30245 11.91001,-2.7756c8.34286,-0.97428 16.77777,0.28263 25.04394,1.31747c4.74127,0.59356 9.13667,1.68913 13.62486,3.1858c-0.12503,-1.57309 -0.26727,-3.15143 -0.02357,-4.66244zM259.0159,121.35808c-0.32916,-3.84122 0.90736,-8.37988 3.98252,-10.98677c1.2636,-1.07119 3.57702,-0.88472 4.39086,-2.32756c1.12626,-1.99673 0.61321,-4.54164 0.81693,-6.72896c-1.47264,-1.33116 -2.42777,-2.90356 -3.04725,-4.61264c-1.76571,1.17645 -3.79018,2.07724 -5.59447,2.86009c-3.42018,1.48396 -7.35998,2.79996 -11.08361,3.21381c-3.81636,0.42415 -4.41556,-0.33044 -8.09926,0.01021c-3.13065,0.28951 -6.2025,1.03379 -9.30661,1.53306c-4.36963,2.17181 -8.75169,4.31736 -13.13357,6.46434c-2.3605,1.15657 -5.13284,1.6702 -7.11908,3.39196c-0.20599,0.17856 -0.4723,0.56376 -0.76501,1.05828c0.24373,0.63132 0.88318,1.07647 1.35824,1.6043c2.23232,-1.26195 6.4257,-2.9913 8.37075,-3.81089c9.60932,-4.04907 19.66426,2.45029 28.34578,5.95776c3.03585,1.22653 6.21446,2.06486 9.32069,3.10027c0.53447,0.18257 1.05475,0.39963 1.56559,0.63921c0.01913,-0.47073 0.03441,-0.93563 -0.00251,-1.36648zM264.4878,81.81986c-0.23177,-0.3944 -0.91635,0.04234 -1.37235,0.00594c-0.51219,-0.04088 -1.05576,-0.00452 -1.59461,0.01548c0.88558,0.25736 1.82269,0.56243 2.73359,0.92935c0.19315,-0.33392 0.40522,-0.65834 0.23337,-0.95077zM258.05412,78.38619c-0.5943,-0.48004 -1.53985,0.61191 -2.26268,0.36462c-3.61509,-1.23672 -6.87872,-5.19677 -9.23225,-8.08303l-2.04329,0.1903c0,0 -1.58274,0 -2.22953,-1.25934c-0.06162,0.09404 -0.12101,0.18771 -0.1776,0.28101c-2.50396,4.12837 -7.77277,6.31307 -12.08032,7.76499c-1.96621,0.66274 -3.91378,1.41862 -5.76322,2.36036c0.13004,-0.05156 0.26007,-0.10317 0.39006,-0.15485c3.32304,-0.47554 6.56302,-1.43302 9.87899,-1.9556c8.08474,-1.2741 16.38693,1.2469 24.09819,3.18745c0.05505,0.01385 0.11118,0.02793 0.16835,0.04224c-0.47319,-0.73725 -0.02594,-2.15598 -0.74669,-2.73816zM279.89443,200.4937c0.94491,-1.77685 1.89032,-3.55343 2.83652,-5.32959c-1.34257,0.72485 -2.51254,1.46401 -2.74734,3.59443c-0.06368,0.57776 -0.09023,1.1565 -0.08918,1.73516zM275.27266,209.19174c-0.81796,0.23989 -1.74125,0.39855 -2.64225,0.57771c-0.16576,0.86245 -0.77471,1.56725 -1.58059,1.86816l-2.37192,0.94877c0.24829,1.28535 1.16636,3.19253 1.79471,3.46201c0.33788,0.14491 0.73331,0.13406 1.15178,0.01693c0.12436,-0.23732 0.24944,-0.47442 0.37528,-0.71128c1.09119,-2.054 2.18205,-4.10817 3.273,-6.1623zM267.14104,113.9443c-0.40115,0.06932 -0.78783,0.16695 -1.10765,0.40055c-2.26156,1.65189 -1.6163,4.81703 -2.01748,7.01323c-0.08586,0.47001 -0.82006,0.76258 -0.73223,1.23223c0.06661,0.35619 0.496,-0.5637 0.83178,-0.69995c0.51274,-0.20805 1.26869,0.11672 1.63269,-0.30005c0.45197,-0.51749 0.21042,-1.36129 0.39606,-2.0228c0.38097,-1.35759 0.47462,-3.62228 0.99685,-5.62321zM213.0159,273.35808c0,0.97224 0.01122,1.93789 0.03545,2.89761c0.93863,-0.15429 1.87692,-0.31176 2.8186,-0.44218c0.8527,-0.1181 1.76421,0.36039 2.581,0.08854c0.9609,-0.31982 1.59457,-1.25979 2.46964,-1.76955c5.3365,-3.10868 9.50532,-5.62027 13.95152,-10.06996c1.99086,-1.99242 4.47122,-5.38202 7.49043,-6.7171c-2.13502,-1.41067 -4.53994,-2.51532 -6.13646,-4.48538c-1.09685,-1.35348 -3.87899,-8.10846 -4.4294,-9.79611c-0.37477,-1.14911 -0.21476,-2.47809 -0.79677,-3.53743c-0.96829,-1.76242 -3.98806,-3.16126 -5.40947,-4.29839c-4.45145,-3.56116 -8.80828,-6.86568 -13.66984,-9.77108c-0.70818,-0.42322 -1.16005,-1.36346 -1.9047,-1.63419c0,1.51174 0,3.02348 0,4.53522c0,1.68229 -0.87756,3.50778 -0.1903,5.04329c0.38516,0.86055 1.33333,1.33333 2,2c0.36471,7.58298 1.24418,16.33068 -0.9094,23.65568c-0.3604,1.22584 -0.55932,2.55599 -1.27367,3.61536c-0.32898,0.48786 -1.41238,0.13765 -1.62663,0.68567c-0.15643,0.40013 0.9321,-0.03591 1.26777,0.23223c0.98704,0.78847 2.04875,1.64799 2.54193,2.81106c0.46323,1.09243 0.10535,2.37084 0.15802,3.55625l0.90399,2.60989c0,0 0.05061,0.15182 0.0878,0.39145c0.04049,0.23909 0.04049,0.39912 0.04049,0.39912zM217.8256,300.40137c2.20657,5.16797 6.18078,8.02825 8.90475,12.79644c0.95741,1.67592 1.71899,3.71564 2.26697,5.82935c2.26079,-1.90492 4.36082,-4.45064 6.41033,-6.50015c2.5192,-2.45309 3.48865,-5.47121 6,-8c0.29402,-0.29606 0.55879,-0.63117 0.83855,-0.94684c-0.93169,-0.23464 -1.84735,-0.62512 -2.76976,-0.88509c-3.6626,-1.03224 -7.2418,-2.35149 -10.55585,-4.23803c-5.05428,-2.87716 -9.46764,-7.16715 -14.63932,-9.81305c0.74686,3.95914 1.88073,7.86108 3.54432,11.75737zM212.98362,208.75854c-0.05773,0.30745 -0.12321,0.61511 -0.1979,0.92105c2.01317,0.1125 4.06906,0.477 5.99389,0.14672c2.75833,-0.4733 5.37226,-1.67364 8.14946,-2.01936c3.61353,-0.44984 7.60808,-0.01217 11.24634,-0.01217c0.46219,0 10.09896,-0.00772 10.35117,0.02479c2.9447,0.37954 5.71899,1.849 8.68536,1.97548c2.01608,0.08596 3.8356,-0.30758 5.6873,-0.54005c-7.37166,-2.69521 -15.17344,-3.84245 -22.31393,-7.60331c-0.21481,-0.11314 -8.83343,-5.29866 -8.94539,-5.38402c-2.46548,-1.87984 -3.62471,-4.39459 -6.57245,-5.70578c-3.18062,-1.41478 -7.84025,-1.1026 -11.0247,0.0776c-0.31941,0.11838 -0.62916,0.28082 -0.93384,0.46392c-0.06308,5.89536 0.96116,11.86874 -0.12532,17.65513zM204.94295,220.52717c0.00008,-0.00005 0.00015,-0.00011 0.00023,-0.00016c0.0009,-0.00061 0.00179,-0.00122 0.00269,-0.00183c0,-0.00002 0,-0.00003 0,-0.00005c-0.00099,0.00069 -0.00196,0.00137 -0.00292,0.00204zM215.64253,65.04375c0.49416,0.80293 1.51612,1.19084 2,2c0.58254,0.97415 0.6101,2.20147 1.11916,3.21595c0.53903,1.07419 1.47901,1.91694 2,3c0.28956,0.60195 0.61586,1.43438 0.88756,2.36007c4.08723,-2.62183 8.87559,-2.98765 13.14994,-5.41209c1.39694,-0.79236 2.12395,-2.62305 3.45245,-3.5495c-1.29077,-0.26114 -6.73312,-1.7899 -7.38945,-1.8831c-5.27093,-0.74843 -10.49964,-0.93242 -15.8144,-0.9711c0.16063,0.43046 0.35272,0.84652 0.59475,1.23977zM214.47261,83.66778c-2.27165,0.66961 -2.47909,4.87469 -2.45671,6.6903c0.07265,5.89422 0.03697,11.79811 -0.01642,17.69419c1.15569,-0.55579 2.39981,-1.10099 3.74199,-1.75861c4.59845,-2.2531 9.19701,-4.50493 13.80648,-6.73544c0.48548,-0.08336 9.84151,-1.7018 10.42126,-1.75492c2.6226,-0.24028 5.28264,0.29538 7.90074,0.01021c3.27421,-0.35664 6.70821,-1.57316 9.72493,-2.847c1.55451,-0.6564 5.06318,-1.73656 6.52749,-3.74505c-0.06254,-0.92221 -0.08839,-1.85195 -0.09905,-2.77686c-0.11157,-0.03669 -0.21932,-0.07463 -0.3097,-0.12172c-1.99022,-1.03689 -4.11585,-1.84932 -6.29385,-2.39007c-7.065,-1.75408 -14.79009,-4.30047 -22.20722,-3.08438c-3.25688,0.53399 -6.44463,1.4588 -9.71123,1.92972c-2.19358,0.2263 -4.69751,1.82626 -6.58075,0.67891c-0.90748,-0.55288 -1.57764,-1.09361 -2.05231,-1.61969c-0.77693,0.17106 -1.62855,-0.39571 -2.39568,-0.16958zM211.98362,123.95763c0.69415,4.01661 1.35218,7.97984 2,12c0.38744,2.40431 1.85889,3.56768 2.01837,6.13708c0.08764,1.412 0.04849,2.87488 -0.07018,4.36161c0.53144,-0.16684 0.95781,-0.31347 1.17836,-0.42323c2.789,-1.38801 5.16463,-3.50834 7.92058,-4.96086c4.16292,-2.19407 8.90966,-3.66674 13.35409,-5.14915c0.44057,-0.14695 6.13144,-2.05319 6.37776,-2.09397c4.36357,-0.72243 8.58385,-0.50265 12.98585,-1.58278c1.39325,-0.34187 2.81498,-0.60497 4.15914,-1.10621c0.58021,-0.21636 1.80528,-1.13138 1.23971,-1.38355c-0.6337,-0.28254 -1.43451,0.06188 -2.07027,-0.21599c-1.79272,-0.78352 -3.34348,-2.11086 -5.20536,-2.7118c-0.23116,-0.07705 -9.53033,-3.17464 -9.65297,-3.22429c-3.78285,-1.53127 -6.95668,-3.70188 -10.93569,-4.77098c-3.37487,-0.90678 -8.00118,-2.80551 -11.60494,-2.08978c-3.2071,0.63695 -7.40632,2.95898 -10.18834,4.67768c-0.57369,0.35442 -1.08776,0.83033 -1.59701,1.31061c-0.00705,0.38802 0.01611,0.79293 0.09089,1.22561z" fill="#990000"/><path d="M233.22261,325.10977c-0.01683,-0.39976 -0.04553,-0.81234 -0.08168,-1.22881c0.61738,-0.36471 1.28689,-0.66544 1.84473,-1.11171c2.54513,-2.03611 4.88917,-4.92264 7.18112,-7.21459c1.77573,-1.8116 2.92355,-4.21132 4.31613,-6.33166c0.49392,-0.75204 1.04033,-1.18876 1.58558,-1.57904c0.05627,0.69857 0.16735,1.34866 0.34535,1.90915c0.40347,1.2705 1.57162,2.19752 2.16588,3.39076c0.89051,1.78811 1.23112,3.84239 1.88116,5.73126c0.40538,1.17795 0.60836,2.46382 1.23938,3.53794c0.47757,0.81291 1.48437,1.21201 1.99859,2.00224c0.3498,0.53756 0.30671,1.25967 0.5423,1.85331c-0.34062,-0.27796 -0.69794,-0.52214 -1.11314,-0.64497c-0.92856,-0.2747 -1.9551,0.17607 -2.91069,0.01943c-2.42602,-0.39768 -4.69124,-1.65361 -7.12494,-2.00123c-4.25396,-0.60762 -7.97416,0.39044 -11.86978,1.66793z" data-paper-data="{&quot;noHover&quot;:false,&quot;origItem&quot;:[&quot;Path&quot;,{&quot;applyMatrix&quot;:true,&quot;selected&quot;:true,&quot;segments&quot;:[[[241.82136,345.84868],[-4.25396,-0.60762],[2.43369,0.34762],7],[[248.91636,347.86223],[-2.42602,-0.39768],[0.95559,0.15664],7],[[251.82136,347.84868],[-0.92856,-0.2747],[0.4152,0.12283],7],[[252.93406,348.4942],[-0.34062,-0.27796],[-0.23559,-0.59364],7],[[252.38927,346.64428],[0.3498,0.53756],[-0.51422,-0.79023],7],[[250.38927,344.64428],[0.47757,0.81291],[-0.63102,-1.07411],7],[[249.14419,341.12052],[0.40538,1.17795],[-0.65003,-1.88887],7],[[247.27011,335.42833],[0.89051,1.78811],[-0.59425,-1.19324],7],[[245.12317,332.05441],[0.40347,1.2705],[-0.17799,-0.56049],7],[[244.78331,330.14766],[0.05627,0.69857],[-0.54524,0.39029],7],[[243.20352,331.72843],[0.49392,-0.75204],[-1.39258,2.12034],7],[[238.94318,338.03442],[1.77573,-1.8116],[-2.29195,2.29195],7],[[231.76039,345.20001],[2.54513,-2.03611],[-0.55784,0.44627],7],[[229.91567,346.31175],[0.61738,-0.36471],[0.03615,0.41647],7],[[229.99521,347.53733],[-0.01683,-0.39976],[3.89562,-1.27749],7]],&quot;closed&quot;:true}]}" fill="#a80000"/><path d="M217.51542,288.12234c5.17168,2.64591 9.62496,6.92305 14.67924,9.80021c3.31405,1.88653 6.93693,3.25035 10.59953,4.2826c0.92241,0.25997 1.83832,0.6546 2.77001,0.88924c-0.27976,0.31567 -0.5446,0.65432 -0.83862,0.95038c-2.51135,2.52879 -3.49898,5.58291 -6.01818,8.036c-2.04951,2.04951 -4.17888,4.60655 -6.43967,6.51147c-0.54798,-2.11371 -1.32005,-4.15404 -2.27746,-5.82995c-2.72397,-4.7682 -6.7376,-7.69344 -8.94416,-12.86141c-1.6636,-3.89629 -2.78383,-7.81939 -3.53069,-11.77853z" data-paper-data="{&quot;noHover&quot;:false,&quot;origItem&quot;:[&quot;Path&quot;,{&quot;applyMatrix&quot;:true,&quot;selected&quot;:true,&quot;segments&quot;:[[[217.8256,322.37324],[-1.6636,-3.89629],[2.20657,5.16797],7],[[226.73035,335.16969],[-2.72397,-4.7682],[0.95741,1.67592],7],[[228.99732,340.99904],[-0.54798,-2.11371],[2.26079,-1.90492],7],[[235.40765,334.49889],[-2.04951,2.04951],[2.5192,-2.45309],7],[[241.40765,326.49889],[-2.51135,2.52879],[0.29402,-0.29606],7],[[242.2462,325.55204],[-0.27976,0.31567],[-0.93169,-0.23464],7],[[239.47645,324.66695],[0.92241,0.25997],[-3.6626,-1.03224],7],[[228.9206,320.42893],[3.31405,1.88653],[-5.05428,-2.87716],7],[[214.28128,310.61587],[5.17168,2.64591],[0.74686,3.95914],7]],&quot;closed&quot;:true}]}" fill="#a80000"/><path d="M248.27953,298.46516c-0.17535,-0.02316 -0.34443,-0.05343 -0.50304,-0.09484c-2.18786,-0.57124 -4.3805,-1.17138 -6.52619,-1.88486c-8.25,-2.74326 -14.12473,-9.10134 -21.75722,-12.91005c-0.97931,-0.48869 -1.91157,-0.85595 -2.82008,-1.18531c-0.04239,-0.41974 -0.08166,-0.84369 -0.11731,-1.26527c1.05075,-0.26073 2.07184,-0.6751 3.14319,-0.83229c1.12797,-0.1655 2.33758,0.27235 3.419,-0.08852c1.3204,-0.44062 2.31786,-1.56057 3.53145,-2.24232c4.16465,-2.33954 7.83919,-4.09542 11.47498,-7.33708c2.97666,-2.65399 5.47162,-6.35711 8.65999,-8.73044c2.1635,-1.61044 2.22429,0.23957 4.82639,1.2244c0.6418,0.24291 1.35036,0.38167 2.06539,0.40894c0.26443,0.25243 0.52597,0.50719 0.78084,0.7606c-0.70311,3.77469 -1.63921,7.5264 -2.11238,11.32651c-0.11573,0.92942 0.22605,1.90235 0.02761,2.81768c-1.02746,4.73916 -3.29092,9.28869 -4.03405,14.17067c-0.29389,1.9307 -0.13562,3.90305 -0.05857,5.86218z" data-paper-data="{&quot;noHover&quot;:false,&quot;origItem&quot;:[&quot;Path&quot;,{&quot;applyMatrix&quot;:true,&quot;selected&quot;:true,&quot;segments&quot;:[[[245.03463,315.02449],[-0.29389,1.9307],[0.74313,-4.88198],7],[[249.05433,300.89328],[-1.02746,4.73916],[0.19845,-0.91533],7],[[249.02807,298.08361],[-0.11573,0.92942],[0.47317,-3.80011],7],[[251.1503,286.77662],[-0.70311,3.77469],[-0.25487,-0.25341],7],[[250.37091,286.0177],[0.26443,0.25243],[-0.71503,-0.02727],7],[[248.30805,285.61136],[0.6418,0.24291],[-2.60209,-0.98483],7],[[243.48974,284.39328],[2.1635,-1.61044],[-3.18837,2.37333],7],[[234.84272,293.12947],[2.97666,-2.65399],[-3.63579,3.24167],7],[[223.43023,300.42893],[4.16465,-2.33954],[-1.21359,0.68175],7],[[219.89987,302.65938],[1.3204,-0.44062],[-1.08143,0.36087],7],[[216.48087,302.74792],[1.12797,-0.1655],[-1.07135,0.15719],7],[[213.33759,303.57825],[1.05075,-0.26073],[0.03564,0.42158],7],[[213.45456,304.8402],[-0.04239,-0.41974],[0.90851,0.32936],7],[[216.27379,306.02086],[-0.97931,-0.48869],[7.63249,3.80871],7],[[237.96598,318.89494],[-8.25,-2.74326],[2.14569,0.71348],7],[[244.48087,320.78538],[-2.18786,-0.57124],[0.15861,0.04141],7],[[244.98324,320.88068],[-0.17535,-0.02316],[-0.07705,-1.95913],7]],&quot;closed&quot;:true}]}" fill="#a80000"/><path d="M216.21991,272.51822c-0.03719,-0.23962 -0.08825,-0.39169 -0.08825,-0.39169l-0.90766,-2.6121c-0.05267,-1.18542 0.30121,-2.46677 -0.16202,-3.5592c-0.49318,-1.16306 -1.56133,-2.02888 -2.54837,-2.81736c-0.33567,-0.26814 -1.42565,0.16611 -1.26922,-0.23402c0.21425,-0.54802 1.29836,-0.19692 1.62733,-0.68478c0.71436,-1.05937 0.90981,-2.39435 1.27021,-3.62018c2.15358,-7.32499 1.28267,-16.13635 0.91796,-23.71933c-0.66667,-0.66667 -1.61505,-1.13926 -2.00021,-1.99981c-0.68726,-1.53551 0.19555,-3.36523 0.19555,-5.04752c0,-1.51174 0.00362,-3.02579 0.00362,-4.53753c0.74465,0.27073 1.19782,1.21024 1.90599,1.63347c4.86156,2.9054 9.24352,6.20395 13.69496,9.7651c1.42141,1.13713 4.46402,2.5422 5.4323,4.30463c0.582,1.05933 0.43219,2.39578 0.80696,3.54489c0.55042,1.68765 3.34659,8.49128 4.44344,9.84476c1.59652,1.97006 3.999,3.08191 6.13403,4.49258c-3.01921,1.33508 -5.51716,4.74625 -7.50802,6.73867c-4.4462,4.44968 -8.65215,6.96938 -13.98865,10.07806c-0.87507,0.50976 -1.51263,1.44888 -2.47353,1.7687c-0.81679,0.27185 -1.73269,-0.208 -2.58539,-0.0899c-0.94168,0.13042 -1.88399,0.28625 -2.82261,0.44053c-0.02423,-0.95972 -0.03758,-1.92642 -0.03758,-2.89866c0,0 -0.00038,-0.16023 -0.04087,-0.39932z" data-paper-data="{&quot;noHover&quot;:false,&quot;origItem&quot;:[&quot;Path&quot;,{&quot;applyMatrix&quot;:true,&quot;selected&quot;:true,&quot;segments&quot;:[[[213.0159,295.32995],[0,0],[0,0.97224],7],[[213.05135,298.22756],[-0.02423,-0.95972],[0.93863,-0.15429],7],[[215.86996,297.78538],[-0.94168,0.13042],[0.8527,-0.1181],7],[[218.45095,297.87392],[-0.81679,0.27185],[0.9609,-0.31982],7],[[220.9206,296.10438],[-0.87507,0.50976],[5.3365,-3.10868],7],[[234.87211,286.03442],[-4.4462,4.44968],[1.99086,-1.99242],7],[[242.36254,279.31732],[-3.01921,1.33508],[-2.13502,-1.41067],7],[[236.22608,274.83193],[1.59652,1.97006],[-1.09685,-1.35348],7],[[231.79668,265.03583],[0.55042,1.68765],[-0.37477,-1.14911],7],[[230.99991,261.4984],[0.582,1.05933],[-0.96829,-1.76242],7],[[225.59044,257.20001],[1.42141,1.13713],[-4.45145,-3.56116],7],[[211.9206,247.42893],[4.86156,2.9054],[-0.70818,-0.42322],7],[[210.0159,245.79473],[0.74465,0.27073],[0,1.51174],7],[[210.0159,250.32995],[0,-1.51174],[0,1.68229],7],[[209.8256,255.37324],[-0.68726,-1.53551],[0.38516,0.86055],7],[[211.8256,257.37324],[-0.66667,-0.66667],[0.36471,7.58298],7],[[210.9162,281.02892],[2.15358,-7.32499],[-0.3604,1.22584],7],[[209.64253,284.64428],[0.71436,-1.05937],[-0.32898,0.48786],7],[[208.0159,285.32995],[0.21425,-0.54802],[-0.15643,0.40013],7],[[209.28367,285.56219],[-0.33567,-0.26814],[0.98704,0.78847],7],[[211.8256,288.37324],[-0.49318,-1.16306],[0.46323,1.09243],7],[[211.98362,291.9295],[-0.05267,-1.18542],[0,0],7],[[212.88761,294.53938],[0,0],[0,0],7],[[212.97541,294.93083],[-0.03719,-0.23962],[0.04049,0.23909],7]],&quot;closed&quot;:true}]}" fill="#a80000"/><path d="M255.06064,258.11985c-1.66104,-1.47387 -3.39324,-2.90191 -5.05602,-4.2304c-2.31318,-1.84813 -4.65123,-2.16459 -6.60926,-4.59489c-2.89371,-3.59167 -2.62938,-8.96257 -4.82336,-12.69909c-2.06769,-3.52145 -3.8096,-3.51296 -6.59009,-5.73735c-4.64322,-3.71458 -9.12581,-7.3646 -14.32695,-10.23553c-1.30344,-0.71947 -2.27018,-2.02413 -3.74164,-2.25085c-0.20558,-0.03168 -0.4973,-0.09419 -0.70198,-0.09138c-0.11918,-1.24131 -0.55274,-2.53501 -0.37715,-3.71185c0.30107,-0.16801 0.62374,-0.28264 0.96916,-0.32015c2.94397,-0.31969 6.06896,0.47367 9.00141,-0.00618c2.66342,-0.43583 5.18331,-1.65764 7.86178,-1.98869c3.45103,-0.42654 7.29948,0.00651 10.77424,0.00651c3.21629,0 6.47982,-0.4397 9.66884,-0.02175c5.33003,0.69855 10.73277,2.88532 16.17978,1.54896c0.69713,2.79553 2.49849,5.5559 4.58233,6.37297c0.21799,0.08547 0.43203,0.15986 0.64177,0.22248c-3.88088,8.03358 -7.16968,16.30534 -10.942,24.43805c-0.69489,1.49811 -3.05909,5.62368 -3.72398,6.55055c-0.6769,0.94362 -1.91957,1.50609 -2.34515,2.58659c-0.51404,1.30507 -0.48286,2.73181 -0.44171,4.16202z" data-paper-data="{&quot;noHover&quot;:false,&quot;origItem&quot;:[&quot;Path&quot;,{&quot;applyMatrix&quot;:true,&quot;selected&quot;:true,&quot;segments&quot;:[[[252.2062,276.37324],[-0.51404,1.30507],[0.42559,-1.08051],7],[[254.54539,273.79142],[-0.6769,0.94362],[0.66488,-0.92686],7],[[258.25901,267.25456],[-0.69489,1.49811],[3.77232,-8.13271],7],[[269.20063,242.86147],[-3.88088,8.03358],[-0.20973,-0.06262],7],[[268.55919,242.63965],[0.21799,0.08547],[-2.08384,-0.81707],7],[[263.98356,236.27663],[0.69713,2.79553],[-5.44701,1.33637],7],[[247.82425,234.74187],[5.33003,0.69855],[-3.18902,-0.41795],7],[[238.17541,234.76665],[3.21629,0],[-3.47477,0],7],[[227.42176,234.75449],[3.45103,-0.42654],[-2.67846,0.33105],7],[[219.57122,236.73512],[2.66342,-0.43583],[-2.93245,0.47986],7],[[210.57587,236.73437],[2.94397,-0.31969],[-0.34542,0.03751],7],[[209.60737,237.05359],[0.30107,-0.16801],[-0.17559,1.17685],7],[[209.98675,240.76189],[-0.11918,-1.24131],[0.20468,-0.00281],7],[[210.6021,240.80333],[-0.20558,-0.03168],[1.47146,0.22673],7],[[214.43023,243.10438],[-1.30344,-0.71947],[5.20115,2.87093],7],[[228.76039,253.3333],[-4.64322,-3.71458],[2.78049,2.22439],7],[[235.35091,259.03491],[-2.06769,-3.52145],[2.19397,3.73652],7],[[240.12475,271.70137],[-2.89371,-3.59167],[1.95803,2.4303],7],[[246.71841,276.29963],[-2.31318,-1.84813],[1.66278,1.32849],7],[[251.76892,280.53258],[-1.66104,-1.47387],[-0.04115,-1.43022],7]],&quot;closed&quot;:true}]}" fill="#a80000"/><path d="M275.26812,214.91916c-0.12583,0.23686 -0.25652,0.4737 -0.38088,0.71102c-0.41846,0.11712 -0.82909,0.12391 -1.16697,-0.02099c-0.62835,-0.26948 -1.57607,-2.22366 -1.82436,-3.50901l2.38859,-0.98474c0.80588,-0.30091 1.45914,-1.0172 1.62491,-1.87965c0.901,-0.17916 1.84767,-0.32534 2.66563,-0.56523c-1.09095,2.05413 -2.21574,4.1946 -3.30693,6.2486z" data-paper-data="{&quot;noHover&quot;:false,&quot;origItem&quot;:[&quot;Path&quot;,{&quot;applyMatrix&quot;:true,&quot;selected&quot;:true,&quot;segments&quot;:[[[275.27266,231.16361],[-1.09095,2.05413],[-0.81796,0.23989],7],[[272.63041,231.74131],[0.901,-0.17916],[-0.16576,0.86245],7],[[271.04982,233.60947],[0.80588,-0.30091],[0,0],7],[[268.6779,234.55824],[0,0],[0.24829,1.28535],7],[[270.47261,238.02025],[-0.62835,-0.26948],[0.33788,0.14491],7],[[271.62438,238.03719],[-0.41846,0.11712],[0.12436,-0.23732],7],[[271.99966,237.32591],[-0.12583,0.23686],[1.09119,-2.054],7]],&quot;closed&quot;:true}]}" fill="#a80000"/><path d="M283.21065,198.30232c0.2348,-2.13042 1.46923,-2.94238 2.8118,-3.66723c-0.9462,1.77616 -1.9386,3.64101 -2.88351,5.41786c-0.00105,-0.57866 0.00803,-1.17288 0.0717,-1.75064z" data-paper-data="{&quot;noHover&quot;:false,&quot;origItem&quot;:[&quot;Path&quot;,{&quot;applyMatrix&quot;:true,&quot;selected&quot;:true,&quot;segments&quot;:[[[279.89443,222.46557],[-0.00105,-0.57866],[0.94491,-1.77685],7],[[282.73096,217.13598],[-0.9462,1.77616],[-1.34257,0.72485],7],[[279.98362,220.73041],[0.2348,-2.13042],[-0.06368,0.57776],7]],&quot;closed&quot;:true}]}" fill="#a80000"/><path d="M216.32977,190.60196c0.30468,-0.18309 0.61494,-0.34691 0.93435,-0.46529c3.18445,-1.1802 7.85022,-1.50372 11.03084,-0.08894c2.94775,1.3112 4.19098,3.87992 6.65645,5.75977c0.11195,0.08536 8.64572,5.21812 8.86053,5.33125c7.14049,3.76086 15.03042,4.95382 22.40208,7.64903c-1.8517,0.23248 -3.67357,0.63129 -5.68965,0.54533c-2.96637,-0.12648 -5.74511,-1.58885 -8.68981,-1.96839c-0.25221,-0.03251 -9.92687,-0.00486 -10.38906,-0.00486c-3.63826,0 -7.67519,-0.45803 -11.28872,-0.00819c-2.77721,0.34573 -5.39508,1.53976 -8.15341,2.01306c-1.92483,0.33028 -3.98299,-0.03916 -5.99616,-0.15166c0.0747,-0.30595 0.13965,-0.615 0.19738,-0.92244c1.08648,-5.78638 0.0621,-11.79331 0.12518,-17.68866z" data-paper-data="{&quot;noHover&quot;:false,&quot;origItem&quot;:[&quot;Path&quot;,{&quot;applyMatrix&quot;:true,&quot;selected&quot;:true,&quot;segments&quot;:[[[212.98362,230.73041],[1.08648,-5.78638],[-0.05773,0.30745],7],[[212.78572,231.65146],[0.0747,-0.30595],[2.01317,0.1125],7],[[218.77961,231.79818],[-1.92483,0.33028],[2.75833,-0.4733],7],[[226.92907,229.77882],[-2.77721,0.34573],[3.61353,-0.44984],7],[[238.17541,229.76665],[-3.63826,0],[0.46219,0],7],[[248.52658,229.79144],[-0.25221,-0.03251],[2.9447,0.37954],7],[[257.21194,231.76692],[-2.96637,-0.12648],[2.01608,0.08596],7],[[262.89925,231.22687],[-1.8517,0.23248],[-7.37166,-2.69521],7],[[240.58532,223.62356],[7.14049,3.76086],[-0.21481,-0.11314],7],[[231.63993,218.23954],[0.11195,0.08536],[-2.46548,-1.87984],7],[[225.06748,212.53376],[2.94775,1.3112],[-3.18062,-1.41478],7],[[214.04278,212.61136],[3.18445,-1.1802],[-0.31941,0.11838],7],[[213.10894,213.07528],[0.30468,-0.18309],[-0.06308,5.89536],7]],&quot;closed&quot;:true}]}" fill="#a80000"/><path d="M218.27123,63.29642c5.31476,0.03867 10.62048,0.20731 15.89141,0.95575c0.65634,0.09319 6.11458,1.64726 7.40535,1.90841c-1.3285,0.92645 -2.05395,2.77291 -3.45089,3.56526c-4.27435,2.42445 -9.14492,2.82539 -13.23215,5.44722c-0.27169,-0.92568 -0.60852,-1.77047 -0.89808,-2.37243c-0.52099,-1.08306 -1.46802,-1.94815 -2.00705,-3.02234c-0.50907,-1.01448 -0.53468,-2.25947 -1.11722,-3.23361c-0.48388,-0.80916 -1.50393,-1.20239 -1.99809,-2.00532c-0.24203,-0.39325 -0.43264,-0.81247 -0.59327,-1.24294z" data-paper-data="{&quot;noHover&quot;:false,&quot;origItem&quot;:[&quot;Path&quot;,{&quot;applyMatrix&quot;:true,&quot;selected&quot;:true,&quot;segments&quot;:[[[215.64253,87.01562],[-0.24203,-0.39325],[0.49416,0.80293],7],[[217.64253,89.01562],[-0.48388,-0.80916],[0.58254,0.97415],7],[[218.76169,92.23157],[-0.50907,-1.01448],[0.53903,1.07419],7],[[220.76169,95.23157],[-0.52099,-1.08306],[0.28956,0.60195],7],[[221.64925,97.59164],[-0.27169,-0.92568],[4.08723,-2.62183],7],[[234.79919,92.17955],[-4.27435,2.42445],[1.39694,-0.79236],7],[[238.25163,88.63005],[-1.3285,0.92645],[-1.29077,-0.26114],7],[[230.86218,86.74695],[0.65634,0.09319],[-5.27093,-0.74843],7],[[215.04778,85.77586],[5.31476,0.03867],[0.16063,0.43046],7]],&quot;closed&quot;:true}]}" fill="#a80000"/><path d="M262.11625,80.6553c-0.05717,-0.01431 -0.11331,-0.02835 -0.16836,-0.0422c-7.71126,-1.94055 -16.10788,-4.46039 -24.19262,-3.1863c-3.31597,0.52257 -6.55725,1.47589 -9.88029,1.95143c-0.12999,0.05168 -0.25998,0.10343 -0.39002,0.15499c1.84945,-0.94175 3.79626,-1.70088 5.76246,-2.36361c4.30755,-1.45192 9.63063,-3.69608 12.13458,-7.82445c0.05659,-0.0933 0.11724,-0.18682 0.17886,-0.28086c0.64679,1.25934 2.25066,1.26723 2.25066,1.26723l2.05222,-0.18274c2.35352,2.88626 5.62926,6.892 9.24435,8.12872c0.72283,0.24728 1.66892,-0.84722 2.26322,-0.36718c0.72075,0.58217 0.27175,2.00773 0.74494,2.74498z" data-paper-data="{&quot;noHover&quot;:false,&quot;origItem&quot;:[&quot;Path&quot;,{&quot;applyMatrix&quot;:true,&quot;selected&quot;:true,&quot;segments&quot;:[[[258.05412,100.35806],[0.72075,0.58217],[-0.5943,-0.48004],7],[[255.79144,100.72268],[0.72283,0.24728],[-3.61509,-1.23672],7],[[246.55919,92.63965],[2.35352,2.88626],[0,0],7],[[244.5159,92.82995],[0,0],[0,0],7],[[242.28637,91.57061],[0.64679,1.25934],[-0.06162,0.09404],7],[[242.10877,91.85162],[0.05659,-0.0933],[-2.50396,4.12837],7],[[230.02845,99.61662],[4.30755,-1.45192],[-1.96621,0.66274],7],[[224.26523,101.97698],[1.84945,-0.94175],[0.13004,-0.05156],7],[[224.65529,101.82212],[-0.12999,0.05168],[3.32304,-0.47554],7],[[234.53428,99.86652],[-3.31597,0.52257],[8.08474,-1.2741],7],[[258.63247,103.05397],[-7.71126,-1.94055],[0.05505,0.01385],7],[[258.80082,103.09621],[-0.05717,-0.01431],[-0.47319,-0.73725],7]],&quot;closed&quot;:true}]}" fill="#a80000"/><path d="M220.0923,83.32872c0.47467,0.52608 1.14435,1.06774 2.05183,1.62062c1.88324,1.14735 4.3933,-0.46185 6.58688,-0.68815c3.2666,-0.47092 6.48153,-1.41238 9.73841,-1.94636c7.41712,-1.21609 15.19839,1.35728 22.26339,3.11136c2.178,0.54075 4.30687,1.36184 6.29709,2.39873c0.09038,0.04709 0.19822,0.08539 0.30979,0.12207c0.01066,0.92491 0.03756,1.85969 0.1001,2.78189c-1.46431,2.00849 -4.97239,3.09553 -6.5269,3.75194c-3.01672,1.27383 -6.45229,2.50364 -9.7265,2.86028c-2.6181,0.28517 -5.29632,-0.22313 -7.91892,0.01715c-0.57976,0.05312 -10.01074,1.65415 -10.49621,1.73751c-4.60947,2.23051 -9.20817,4.48204 -13.80662,6.73514c-1.34218,0.65763 -2.58636,1.2027 -3.74205,1.75849c0.05339,-5.89608 0.08485,-11.83126 0.0122,-17.72548c-0.02238,-1.81561 0.18934,-6.03349 2.46098,-6.7031c0.76712,-0.22612 1.61961,0.33897 2.39654,0.16791z" data-paper-data="{&quot;noHover&quot;:false,&quot;origItem&quot;:[&quot;Path&quot;,{&quot;applyMatrix&quot;:true,&quot;selected&quot;:true,&quot;segments&quot;:[[[214.47261,105.63965],[0.76712,-0.22612],[-2.27165,0.66961],7],[[212.0159,112.32995],[-0.02238,-1.81561],[0.07265,5.89422],7],[[211.99948,130.02414],[0.05339,-5.89608],[1.15569,-0.55579],7],[[215.74147,128.26553],[-1.34218,0.65763],[4.59845,-2.2531],7],[[229.54795,121.53009],[-4.60947,2.23051],[0.48548,-0.08336],7],[[239.96921,119.77517],[-0.57976,0.05312],[2.6226,-0.24028],7],[[247.86996,119.78538],[-2.6181,0.28517],[3.27421,-0.35664],7],[[257.59489,116.93839],[-3.01672,1.27383],[1.55451,-0.6564],7],[[264.12238,113.19333],[-1.46431,2.00849],[-0.06254,-0.92221],7],[[264.02334,110.41647],[0.01066,0.92491],[-0.11157,-0.03669],7],[[263.71364,110.29476],[0.09038,0.04709],[-1.99022,-1.03689],7],[[257.41979,107.90469],[2.178,0.54075],[-7.065,-1.75408],7],[[235.21257,104.8203],[7.41712,-1.21609],[-3.25688,0.53399],7],[[225.50135,106.75002],[3.2666,-0.47092],[-2.19358,0.2263],7],[[218.9206,107.42893],[1.88324,1.14735],[-0.90748,-0.55288],7],[[216.86829,105.80924],[0.47467,0.52608],[-0.77693,0.17106],7]],&quot;closed&quot;:true}]}" fill="#a80000"/><path d="M262.32825,122.26706c-0.51084,-0.23958 -1.03153,-0.45603 -1.566,-0.6386c-3.10624,-1.03541 -6.29145,-1.86584 -9.3273,-3.09237c-8.68152,-3.50747 -18.82057,-10.03427 -28.42989,-5.98519c-1.94505,0.81959 -6.13758,2.55294 -8.3699,3.81489c-0.47506,-0.52783 -1.1152,-0.9761 -1.35893,-1.60742c0.29271,-0.49452 0.55875,-0.88126 0.76474,-1.05982c1.98624,-1.72176 4.75803,-2.24065 7.11853,-3.39723c4.38187,-2.14698 8.77233,-4.32287 13.14195,-6.49468c3.10412,-0.49927 6.22639,-1.26494 9.35704,-1.55445c3.68369,-0.34065 4.31417,0.43335 8.13053,0.0092c3.72364,-0.41385 7.66806,-1.7223 11.08824,-3.20626c1.80429,-0.78285 3.8287,-1.68376 5.59441,-2.8602c0.61948,1.70908 1.57792,3.28996 3.05056,4.62112c-0.20372,2.18732 0.31121,4.74317 -0.81505,6.73989c-0.81384,1.44284 -3.12719,1.2607 -4.39079,2.33189c-3.07515,2.60688 -4.31851,7.16944 -3.98935,11.01066c0.03692,0.43084 0.02034,0.89785 0.0012,1.36858z" data-paper-data="{&quot;noHover&quot;:false,&quot;origItem&quot;:[&quot;Path&quot;,{&quot;applyMatrix&quot;:true,&quot;selected&quot;:true,&quot;segments&quot;:[[[259.0159,143.32995],[0.03692,0.43084],[-0.32916,-3.84122],7],[[262.99842,132.34319],[-3.07515,2.60688],[1.2636,-1.07119],7],[[267.38927,130.01562],[-0.81384,1.44284],[1.12626,-1.99673],7],[[268.2062,123.28666],[-0.20372,2.18732],[-1.47264,-1.33116],7],[[265.15896,118.67402],[0.61948,1.70908],[-1.76571,1.17645],7],[[259.56449,121.53411],[1.80429,-0.78285],[-3.42018,1.48396],7],[[248.48087,124.74792],[3.72364,-0.41385],[-3.81636,0.42415],7],[[240.38162,124.75813],[3.68369,-0.34065],[-3.13065,0.28951],7],[[231.075,126.29119],[3.10412,-0.49927],[-4.36963,2.17181],7],[[217.94144,132.75554],[4.38187,-2.14698],[-2.3605,1.15657],7],[[210.82236,136.1475],[1.98624,-1.72176],[-0.20599,0.17856],7],[[210.05735,137.20578],[0.29271,-0.49452],[0.24373,0.63132],7],[[211.41559,138.81008],[-0.47506,-0.52783],[2.23232,-1.26195],7],[[219.78634,134.99919],[-1.94505,0.81959],[9.60932,-4.04907],7],[[248.13212,140.95695],[-8.68152,-3.50747],[3.03585,1.22653],7],[[257.45282,144.05722],[-3.10624,-1.03541],[0.53447,0.18257],7],[[259.01841,144.69643],[-0.51084,-0.23958],[0.01913,-0.47073],7]],&quot;closed&quot;:true}]}" fill="#a80000"/><path d="M215.11342,122.23096c0.50925,-0.48027 1.02452,-0.95933 1.59821,-1.31375c2.78201,-1.7187 6.99308,-4.05781 10.20018,-4.69476c3.60376,-0.71573 8.2554,1.17021 11.63026,2.07699c3.979,1.0691 7.19863,3.25509 10.98148,4.78636c0.12264,0.04964 9.43341,3.16861 9.66456,3.24566c1.86188,0.60094 3.41403,1.93652 5.20675,2.72003c0.63577,0.27787 1.43663,-0.0658 2.07033,0.21675c0.56557,0.25217 -0.65939,1.16985 -1.2396,1.38621c-1.34416,0.50124 -2.76592,0.76693 -4.15917,1.1088c-4.402,1.08013 -8.62465,0.87387 -12.98822,1.5963c-0.24632,0.04078 -5.97593,1.98091 -6.41649,2.12786c-4.44443,1.48241 -9.23983,2.93614 -13.40275,5.13021c-2.75595,1.45252 -5.13258,3.5715 -7.92158,4.95951c-0.22056,0.10976 -0.64729,0.25586 -1.17873,0.42271c0.11867,-1.48673 0.15408,-2.95601 0.06644,-4.36801c-0.15948,-2.5694 -1.63517,-3.74552 -2.0226,-6.14984c-0.64782,-4.02016 -1.30466,-8.00679 -1.99881,-12.0234c-0.07478,-0.43268 -0.0973,-0.83961 -0.09025,-1.22763z" data-paper-data="{&quot;noHover&quot;:false,&quot;origItem&quot;:[&quot;Path&quot;,{&quot;applyMatrix&quot;:true,&quot;selected&quot;:true,&quot;segments&quot;:[[[211.98362,145.9295],[-0.07478,-0.43268],[0.69415,4.01661],7],[[213.98362,157.9295],[-0.64782,-4.02016],[0.38744,2.40431],7],[[216.00199,164.06658],[-0.15948,-2.5694],[0.08764,1.412],7],[[215.93181,168.42819],[0.11867,-1.48673],[0.53144,-0.16684],7],[[217.11017,168.00496],[-0.22056,0.10976],[2.789,-1.38801],7],[[225.03075,163.0441],[-2.75595,1.45252],[4.16292,-2.19407],7],[[238.38484,157.89494],[-4.44443,1.48241],[0.44057,-0.14695],7],[[244.76261,155.80097],[-0.24632,0.04078],[4.36357,-0.72243],7],[[257.74845,154.21819],[-4.402,1.08013],[1.39325,-0.34187],7],[[261.9076,153.11198],[-1.34416,0.50124],[0.58021,-0.21636],7],[[263.14731,151.72843],[0.56557,0.25217],[-0.6337,-0.28254],7],[[261.07704,151.51244],[0.63577,0.27787],[-1.79272,-0.78352],7],[[255.87168,148.80064],[1.86188,0.60094],[-0.23116,-0.07705],7],[[246.21871,145.57635],[0.12264,0.04964],[-3.78285,-1.53127],7],[[235.28302,140.80537],[3.979,1.0691],[-3.37487,-0.90678],7],[[223.67808,138.7156],[3.60376,-0.71573],[-3.2071,0.63695],7],[[213.48974,143.39328],[2.78201,-1.7187],[-0.57369,0.35442],7],[[211.89273,144.70389],[0.50925,-0.48027],[-0.00705,0.38802],7]],&quot;closed&quot;:true}]}" fill="#a80000"/><path d="M269.44201,119.12278c-0.18564,0.66152 0.0342,1.51451 -0.41776,2.032c-0.364,0.41677 -1.14265,0.09048 -1.65539,0.29853c-0.33578,0.13625 -0.77107,1.05392 -0.83768,0.69773c-0.08783,-0.46965 0.64867,-0.76126 0.73452,-1.23127c0.40118,-2.1962 -0.21567,-5.45686 2.04588,-7.10875c0.31982,-0.2336 0.71656,-0.32799 1.11771,-0.39732c-0.52222,2.00094 -0.60631,4.35149 -0.98728,5.70907z" data-paper-data="{&quot;noHover&quot;:false,&quot;origItem&quot;:[&quot;Path&quot;,{&quot;applyMatrix&quot;:true,&quot;selected&quot;:true,&quot;segments&quot;:[[[267.14104,135.91617],[-0.52222,2.00094],[-0.40115,0.06932],7],[[266.03338,136.31672],[0.31982,-0.2336],[-2.26156,1.65189],7],[[264.0159,143.32995],[0.40118,-2.1962],[-0.08586,0.47001],7],[[263.28367,144.56219],[-0.08783,-0.46965],[0.06661,0.35619],7],[[264.11544,143.86223],[-0.33578,0.13625],[0.51274,-0.20805],7],[[265.74813,143.56219],[-0.364,0.41677],[0.45197,-0.51749],7],[[266.14419,141.53938],[-0.18564,0.66152],[0.38097,-1.35759],7]],&quot;closed&quot;:true}]}" fill="#a80000"/><path d="M279.38203,148.16188c-4.48819,-1.49667 -8.89269,-2.58152 -13.63397,-3.17508c-8.26617,-1.03484 -16.77373,-2.29849 -25.11659,-1.32421c-4.05165,0.47315 -8.01443,1.53229 -11.91474,2.76828c1.67835,-1.02904 3.47738,-2.06096 5.3643,-2.84048c4.54614,-1.87811 9.89453,-4.563 14.81152,-5.34916c6.10856,-0.97666 13.07909,-0.04524 18.76947,-3.28549c2.9556,-1.68299 4.75947,-5.17464 2.76311,-8.58896c-0.10445,-0.17864 -0.23338,-0.32697 -0.38247,-0.45474c1.06289,-0.33391 1.9624,-0.77415 2.46343,-1.25051c1.03599,-0.98496 1.11513,-2.62925 1.60701,-3.97143c0.40866,-1.1151 0.91003,-2.21382 1.09856,-3.38639c0.0061,-0.03793 0.09153,-0.13617 0.09665,-0.17426c0.4318,0.57881 0.93895,1.14565 1.27212,1.8155c2.18692,4.39681 3.78575,8.42357 3.78575,13.32798c1.4285,3.83732 -0.36596,7.26241 -1.00426,11.22002c-0.2437,1.51101 -0.10493,3.09583 0.02011,4.66893z" data-paper-data="{&quot;noHover&quot;:false,&quot;origItem&quot;:[&quot;Path&quot;,{&quot;applyMatrix&quot;:true,&quot;selected&quot;:true,&quot;segments&quot;:[[[276.04818,165.9295],[-0.2437,1.51101],[0.63829,-3.95761],7],[[277.04818,154.73041],[1.4285,3.83732],[0,-4.9044],7],[[273.27011,141.42833],[2.18692,4.39681],[-0.33317,-0.66985],7],[[272.00045,139.61638],[0.4318,0.57881],[-0.00512,0.03809],7],[[271.98362,139.73041],[0.0061,-0.03793],[-0.18853,1.17257],7],[[270.88761,143.12052],[0.40866,-1.1151],[-0.49188,1.34219],7],[[269.28367,147.09772],[1.03599,-0.98496],[-0.50103,0.47636],7],[[266.82039,148.34857],[1.06289,-0.33391],[0.14909,0.12777],7],[[267.20352,148.80488],[-0.10445,-0.17864],[1.99636,3.41432],7],[[264.44323,157.42133],[2.9556,-1.68299],[-5.69038,3.24025],7],[[245.58822,160.73233],[6.10856,-0.97666],[-4.91699,0.78615],7],[[230.76882,166.07048],[4.54614,-1.87811],[-1.88692,0.77953],7],[[225.49294,168.86426],[1.67835,-1.02904],[3.90031,-1.23599],7],[[237.40295,166.08866],[-4.05165,0.47315],[8.34286,-0.97428],7],[[262.44689,167.40613],[-8.26617,-1.03484],[4.74127,0.59356],7],[[276.07175,170.59193],[-4.48819,-1.49667],[-0.12503,-1.57309],7]],&quot;closed&quot;:true}]}" fill="#a80000"/><path d="M278.30532,158.45816c-4.78754,4.03629 -11.41288,3.63033 -17.27226,4.90419c-11.41658,5.18125 -23.81869,8.1307 -35.28638,13.04116c-2.92153,1.251 -5.65285,2.81888 -8.42019,4.49782c0.00156,-0.03336 -0.08676,-0.0047 -0.08676,-0.0047l-0.00172,-3.00357c0,-6.13223 -0.76965,-12.79982 0.00315,-18.87169c0.15269,-1.1997 0.35103,-2.44658 0.56199,-3.71179c1.7715,0.01879 3.41575,-1.19138 5.12846,-1.72918c5.94677,-1.98226 12.02477,-4.29842 18.29871,-5.02815c8.71913,-1.01413 18.2405,0.22908 26.85334,1.69632c3.76074,0.64066 7.01982,1.7632 10.61606,2.91561c0.13386,0.0429 0.28116,0.07632 0.43684,0.10323c-0.26631,0.72752 -0.64823,1.42851 -0.77248,2.19095c-0.14353,0.88073 0.36263,1.83496 0.07602,2.68003c-0.03735,0.11014 -0.08275,0.21677 -0.13477,0.31976z" data-paper-data="{&quot;noHover&quot;:false,&quot;origItem&quot;:[&quot;Path&quot;,{&quot;applyMatrix&quot;:true,&quot;selected&quot;:true,&quot;segments&quot;:[[[275.12317,180.60549],[-0.03735,0.11014],[0.28661,-0.84507],7],[[275.04818,177.9295],[-0.14353,0.88073],[0.12426,-0.76245],7],[[275.82156,175.74123],[-0.26631,0.72752],[-0.15568,-0.02691],7],[[275.38484,175.63836],[0.13386,0.0429],[-3.59623,-1.15242],7],[[264.77496,172.73437],[3.76074,0.64066],[-8.61283,-1.46724],7],[[237.98182,171.05504],[8.71913,-1.01413],[-6.27394,0.72973],7],[[219.7094,176.05722],[5.94677,-1.98226],[-1.7127,0.5378],7],[[214.58295,177.78099],[1.7715,0.01879],[-0.21096,1.26521],7],[[214.02237,181.487],[0.15269,-1.1997],[-0.7728,6.07186],7],[[214.0159,200.32995],[0,-6.13223],[0,0],7],[[214.0159,203.32995],[0,0],[0,0],7],[[214.01434,203.38155],[0.00156,-0.03336],[2.76734,-1.67895],7],[[222.52283,198.8368],[-2.92153,1.251],[11.46769,-4.91046],7],[[257.71527,185.82373],[-11.41658,5.18125],[5.85938,-1.27387],7],[[274.98831,180.9248],[-4.78754,4.03629],[0.05202,-0.10299],7]],&quot;closed&quot;:true}]}" fill="#a80000"/><path d="M270.77392,205.63946l-0.41355,-0.13756c-8.17368,-3.65346 -17.13925,-4.46998 -25.19185,-8.71124c-2.81931,-1.48491 -5.70468,-2.99147 -8.23366,-4.92996c-2.62161,-2.0095 -4.60436,-5.02633 -7.62771,-6.35686c-2.57645,-1.13386 -5.74999,-1.52337 -8.81921,-1.30546c2.0493,-1.2023 4.13507,-2.33728 6.27436,-3.255c11.31022,-4.85195 23.62058,-7.64332 34.83045,-12.87271c4.55144,-0.96824 9.11871,-1.12375 13.29572,-2.60372c0.0443,3.64311 1.01227,7.63079 1.46151,10.69566c1.10889,7.56523 -0.02169,16.06153 -0.02169,23.73362c0.01755,1.41346 0.79389,3.30742 -0.27078,4.23729c-0.51749,0.45197 -1.36348,0.20931 -2.02415,0.39794c-0.95323,0.27216 -2.1207,0.6318 -3.25945,1.10801z" data-paper-data="{&quot;noHover&quot;:false,&quot;origItem&quot;:[&quot;Path&quot;,{&quot;applyMatrix&quot;:true,&quot;selected&quot;:true,&quot;segments&quot;:[[[271.72533,226.95824],[-0.95323,0.27216],[0.66067,-0.18863],7],[[273.74813,226.56219],[-0.51749,0.45197],[1.06467,-0.92987],7],[[274.0159,222.32995],[0.01755,1.41346],[0,-7.67208],7],[[274.03463,198.63541],[1.10889,7.56523],[-0.44924,-3.06487],7],[[272.58078,187.95409],[0.0443,3.64311],[-4.17701,1.47997],7],[[259.29503,190.56761],[4.55144,-0.96824],[-11.20987,5.22938],7],[[224.54323,203.41041],[11.31022,-4.85195],[-2.13928,0.91773],7],[[218.26989,206.65752],[2.0493,-1.2023],[3.06922,-0.21791],7],[[227.08915,207.96071],[-2.57645,-1.13386],[3.02335,1.33053],7],[[234.71089,214.29376],[-2.62161,-2.0095],[2.52898,1.93849],7],[[242.91537,219.19966],[-2.81931,-1.48491],[8.0526,4.24126],7],[[268.05556,227.9248],[-8.17368,-3.65346],[0,0],7],[[268.46891,228.06259],[0,0],[1.13875,-0.47621],7]],&quot;closed&quot;:true}]}" fill="#a80000"/></g><path d="M265.51558,266.39754c0,0 -0.72964,0.72964 -1.72017,0.78264c0.26998,0.36748 0.54855,0.73322 0.83948,1.09602c3.59417,4.48201 6.92721,9.10664 10.46279,13.60163c1.34603,1.71128 1.98865,3.45412 2.83428,5.09181c-0.09296,-5.64264 -0.15037,-11.26691 1.2023,-16.76116c1.79901,-5.22011 1.29349,-11.57549 1.0456,-17.4102c-4.06913,5.71902 -9.77331,8.66422 -14.66428,13.59926zM261.98004,262.86201c4.62672,-4.59174 10.48542,-7.44268 14.16989,-12.93224l0.92036,-2.83103c0,0 0.7401,-2.2203 2.93639,-1.64829c-0.17865,-4.85754 -0.571,-9.95987 0.09289,-14.60707c0.18919,-1.32436 1.02755,-2.54185 1.02755,-3.87966c0,-1.33781 -0.83835,-2.5553 -1.02755,-3.87966c-0.63454,-4.44176 -0.01873,-9.40593 -0.01873,-13.90709c0,0 0,-2.5 2.5,-2.5c2.5,0 2.5,2.5 2.5,2.5c0,4.29261 -0.62315,9.06522 -0.01873,13.29617c0.21756,1.52292 1.06501,2.9522 1.06501,4.49058c0,1.53838 -0.84745,2.96766 -1.06501,4.49058c-0.79494,5.56455 0.01873,11.85198 0.01873,17.48129c0,7.35069 1.12435,15.66363 -1.14598,22.67084c-1.47301,5.78579 -0.81793,11.73546 -0.59726,17.65068c0.117,0.00068 0.23449,0.00363 0.35228,0.00803c0.35047,-0.52245 0.96217,-0.97838 2.02979,-0.97838c2.5,0 2.5,2.5 2.5,2.5l-2.5,3.54628c-0.72738,-0.06343 -1.50599,-0.46586 -2.18213,-0.1903c-0.06174,0.02516 -0.11945,0.05564 -0.17377,0.09061c-0.05507,1.43225 -0.17866,2.85914 -0.40778,4.27782c-0.17584,1.08877 -0.85877,2.05202 -1.04628,3.13884c-0.34704,2.01148 0.26278,4.09684 0.02011,6.12357c-0.19908,1.66265 -0.77216,3.26526 -0.98303,4.92646c-0.47558,3.7466 0.79346,7.31237 -1.47074,10.78944c-2.23617,3.43403 -3.88458,3.72109 -7.75848,3.24595c-3.61566,-0.44346 -6.57879,-4.04207 -9.34085,-0.69995l-4.58181,-1.04628c0,0 -1.76777,-1.76777 0,-3.53553c0.94975,-0.94975 1.89951,-0.87897 2.57511,-0.6101c0.40346,-0.41565 0.84046,-0.77646 1.37478,-0.97811c1.40301,-0.52948 3.00756,-0.34058 4.496,-0.15802c2.06015,0.25268 7.51642,4.1444 8.98199,1.15339c1.3475,-2.75006 0.39362,-5.78092 0.75322,-8.70058c0.20277,-1.64637 0.77354,-3.23321 0.97814,-4.87935c0.38075,-3.06337 -0.50782,-3.16294 0.02011,-6.43179c0.10444,-0.64663 0.38774,-1.24899 0.63988,-1.85926c-0.62492,0.35999 -1.30175,0.75262 -2.06669,1.2334c-3.02541,1.90154 -6.37576,3.8704 -9.16842,6.09851c-0.85669,0.6835 -1.42493,1.71951 -2.3632,2.28583c-1.01351,0.61174 -2.29525,0.63743 -3.35479,1.16544c-2.15194,1.0724 -3.98877,2.68577 -5.9893,4.01946c0,0 -2.08013,1.38675 -3.46688,-0.69338c-1.38675,-2.08013 0.69338,-3.46688 0.69338,-3.46688c0.3554,-0.23693 6.35562,-4.24522 6.56605,-4.35078c0.91363,-0.4583 2.04475,-0.40402 2.92289,-0.92712c0.7537,-0.44897 1.13761,-1.35033 1.82191,-1.89929c2.93631,-2.35556 6.47439,-4.45394 9.66461,-6.45685c1.07965,-0.67783 2.19612,-1.3114 3.27592,-1.99403c-0.25392,-0.58061 -0.25392,-1.12484 -0.25392,-1.12484l0.73223,0.72149c-2.67098,-2.77403 -3.01637,-5.6363 -5.39699,-8.55303c-3.62162,-4.4372 -6.87901,-9.11217 -10.46279,-13.60163c-2.19932,-2.75512 -3.59043,-5.6883 -6.11209,-8.18744c0,0 -1.76777,-1.76777 0,-3.53553c1.76777,-1.76777 3.53553,0 3.53553,0c1.25455,1.26411 2.25835,2.62205 3.21619,4.00872c0.23266,-0.53031 0.57223,-0.86988 0.57223,-0.86988z" fill="#990000"/><path d="M280.2012,252.75307c0.24789,5.8347 0.78202,12.23761 -1.01699,17.45772c-1.35267,5.49425 -1.32909,11.16354 -1.23614,16.80618c-0.84563,-1.63769 -1.4923,-3.37934 -2.83833,-5.09062c-3.53559,-4.49499 -6.92957,-9.17865 -10.52374,-13.66066c-0.29093,-0.3628 -0.56816,-0.73348 -0.83815,-1.10096c0.99052,-0.053 1.72351,-0.79054 1.72351,-0.79054c4.89097,-4.93504 10.6607,-7.9021 14.72983,-13.62112z" data-paper-data="{&quot;noHover&quot;:false,&quot;origItem&quot;:[&quot;Path&quot;,{&quot;applyMatrix&quot;:true,&quot;segments&quot;:[[[265.51558,266.39754],[4.89097,-4.93504],[0,0]],[[263.79541,267.18018],[0.99052,-0.053],[0.26998,0.36748]],[[264.63489,268.2762],[-0.29093,-0.3628],[3.59417,4.48201]],[[275.09768,281.87783],[-3.53559,-4.49499],[1.34603,1.71128]],[[277.93196,286.96964],[-0.84563,-1.63769],[-0.09296,-5.64264]],[[279.13426,270.20848],[-1.35267,5.49425],[1.79901,-5.22011]],[[280.17986,252.79828],[0.24789,5.8347],[-4.06913,5.71902]]],&quot;closed&quot;:true}]}" fill="#a80000"/></g><path d="M272.44284,224.54636c-1.76777,-1.76777 0,-3.53553 0,-3.53553l3.86033,-2.82479c1.46742,1.21195 3.43028,1.99957 4.40226,3.63585c0.61034,1.02748 0.25025,2.34584 0.19264,3.57354c0.12833,0.56496 -0.00373,1.08126 -0.18954,1.48c-0.15148,0.41583 -0.42554,0.87732 -0.92137,1.1861c-0.52988,0.52988 -1.11301,1.11301 -1.72046,1.72046c0.26142,0.10268 0.51094,0.23007 0.74451,0.38502c3.12552,2.07343 2.82842,10.15685 0.46571,13.00396c0.10751,0.14544 0.21052,0.29919 0.30858,0.46146c0.98091,1.62324 -0.38553,3.83802 -1.15572,5.5712c-1.07915,2.42842 -4.7795,4.4698 -6.47095,6.54832c-0.91294,1.12186 -1.23389,2.85683 -2.50843,3.54063c-1.82524,0.97926 -4.31859,2.11339 -6.1181,1.08762c-0.64915,-0.37004 -1.05197,-4.1291 -1.09999,-6.65698c-0.1929,0.81019 -0.33779,1.641 -0.90186,2.21152c-0.69656,0.70451 -2.11502,0.10891 -2.8785,0.74029c-0.34683,0.28682 0.29272,0.85119 0.43961,1.27661c0.67635,1.95881 1.34123,3.92161 1.99655,5.88756c0,0 0.79057,2.37171 -1.58114,3.16228c-2.37171,0.79057 -3.16228,-1.58114 -3.16228,-1.58114c-1.0706,-3.21179 -3.80448,-8.26688 -1.74896,-11.66886c0.63062,-1.0437 2.53173,-0.49521 3.39918,-1.35227c0.65729,-0.64942 0.22274,-1.88675 0.68742,-2.6854c0.49609,-0.85262 1.57599,-1.25219 2.09256,-2.09256c1.15509,-1.87913 0.96746,-4.38044 2.09256,-6.27768c0.43866,-0.7397 1.59577,-0.93422 1.90949,-1.73494c0.38167,-0.97418 -0.41816,-2.17975 0,-3.13884c0.52231,-1.19797 1.73631,-1.9543 2.63449,-2.90362c2.70783,-2.86199 5.58412,-5.58412 8.37024,-8.37024l0.395,-0.395c0.01227,-0.14577 0.02666,-0.29113 0.0449,-0.43553l-0.0432,0.18095c0,0 -1.76777,1.76777 -3.53553,0zM272.73118,239.38106c0.39669,-0.07085 0.79022,-0.1492 1.17396,-0.25071c0.27112,0.06197 0.55236,0.20225 0.83127,0.32445l1.25104,-1.87655c0.14278,-1.20502 0.40793,-4.10402 -0.82014,-3.07345c-1.6106,1.3516 -0.71376,1.77087 -1.84976,4.02008c-0.15551,0.3079 -0.36278,0.58685 -0.58637,0.85618z" fill="#a80000"/><path d="M254.97013,313.80491c0,-0.95969 0.54075,-1.79308 1.33418,-2.2121c0.41902,-0.79343 1.25241,-1.33418 2.2121,-1.33418c0.29691,0 0.58173,0.05176 0.84593,0.14675l3.08348,1.02783l-0.04635,0.13905l0.35416,-0.01313c0.15234,0.10156 0.3023,0.21006 0.45065,0.32333c0.09687,-0.08419 0.20712,-0.16975 0.32987,-0.24964c-0.03294,-0.07849 -0.06199,-0.15901 -0.08691,-0.24132c-0.39379,-0.24272 -0.77986,-0.49615 -1.1426,-0.78212c-0.88108,-0.69459 -1.60537,-1.56773 -2.40806,-2.3516l-0.00584,-0.0123l-0.00325,0.00325l-2.09256,-2.09256c-0.07312,-0.07312 -0.14173,-0.15075 -0.20538,-0.23243c-0.6955,-0.06557 -1.32189,-0.24423 -1.76855,-0.64609c-0.02233,0.76037 -0.03598,1.51129 -0.03598,2.24959c0,0 0,2.5 -2.5,2.5c-2.5,0 -2.5,-2.5 -2.5,-2.5c0,-5.8326 1.02095,-12.70219 0.03228,-18.43257c-0.58748,-3.40506 -2.35365,-3.60904 -0.88826,-7.63484c0.41889,-1.1508 1.71582,-1.75507 2.4689,-2.72082c0.62046,-0.79568 1.18876,-1.62889 1.73773,-2.47605c0.13507,-1.27651 0.33072,-2.54984 1.15897,-3.4484c0.15181,-0.1647 0.3111,-0.31991 0.47691,-0.46685l-0.06917,-0.06917l0.31415,-0.31415c-0.00004,-0.00355 -0.00007,-0.0071 -0.0001,-0.01064l0.00889,0.00186l2.81591,-2.81591c0.45241,-0.45241 1.07741,-0.73223 1.76777,-0.73223c1.38071,0 2.5,1.11929 2.5,2.5c0,0.32687 -0.06273,0.6391 -0.17682,0.92528c0.83731,0.58118 1.56,1.77762 2.40063,2.37276c3.87504,2.74345 6.0066,5.36707 6.15958,9.93138c1.18045,0.19998 2.0794,1.2274 2.0794,2.46477c0,0.29691 -0.05176,0.58173 -0.14675,0.84593l-0.25114,0.75342c0.86486,0.13086 1.60674,0.4606 2.03532,1.13205h1.09396c1.38071,0 2.5,1.11929 2.5,2.5c0,0.69036 -0.27982,1.31536 -0.73223,1.76777v0l-2.09256,2.09256l-0.05753,-0.05753c-0.28348,0.28149 -0.60681,0.51528 -0.98577,0.6825c-0.23422,0.10335 -0.88002,0.09498 -1.73901,-0.00386c-0.63733,1.45762 -1.6114,2.94294 -2.80715,4.29322l0.04402,1.68815c0,0 0,0.31769 -0.11325,0.72656c0.07589,-0.01923 0.15507,-0.03558 0.23768,-0.04877c1.02074,-2.04509 2.43532,-3.85252 4.5223,-4.21779c1.91864,-0.3358 3.58769,1.95317 4.57948,3.62956c1.84324,3.11558 -1.2056,9.9869 -1.9769,13.07212c0,0 -0.44284,1.77137 -2.08544,1.908c-0.09852,0.5122 -0.29404,0.97532 -0.66471,1.34599c-1.16931,1.16931 -3.25976,0.58235 -4.90661,0.73223c-0.15612,0.01421 -0.31275,0.02697 -0.46985,0.0384c-0.41501,0.68427 -1.04779,1.4685 -1.9475,2.36821c-5.40642,5.40642 -6.74871,1.097 -7.11809,-2.40661h-3.01992c-1.38071,0 -2.5,-1.11929 -2.5,-2.5c0,-0.59441 0.20745,-1.14036 0.55389,-1.56942c-0.34644,-0.42906 -0.55389,-0.97501 -0.55389,-1.56942zM267.93293,304.79583c-0.43952,0 -0.80177,-0.07727 -1.10033,-0.20464c-0.30418,0.13167 -0.63968,0.20464 -0.99223,0.20464c-0.01266,0 -0.0253,-0.00009 -0.03792,-0.00028c0.68175,0.54416 1.42362,1.12602 2.02839,1.57051c0.27348,-0.21088 0.5533,-0.40768 0.83842,-0.58489l-0.0975,-0.3465c0,0 0,-0.31769 0.11325,-0.72656c-0.22145,0.05611 -0.47096,0.08773 -0.75209,0.08773zM274.94973,305.15356c-0.16453,0.42218 -0.33552,0.84236 -0.48689,1.26886c0.09171,0.13683 0.17722,0.28102 0.2569,0.43153c0.05282,-0.22539 0.10266,-0.45146 0.14844,-0.67846c0.06748,-0.33458 0.07026,-0.679 0.08155,-1.02194zM266.25665,283.13899c-0.14784,-1.12232 -0.42046,-2.20477 -1.07773,-3.0528c-0.01941,0.2997 -0.029,0.59627 -0.00967,0.8836c0.24596,0.72831 0.6289,1.44956 1.0874,2.1692zM262.11414,286.40914c-0.16377,-0.31813 -0.31988,-0.64082 -0.46921,-0.96703c-0.14085,0.27198 -0.22377,0.52882 -0.05413,0.74403c0.1296,0.16442 0.31326,0.21868 0.52334,0.223z" fill="#a80000"/><path d="M209.98012,176.7423c0,-2.5 2.5,-2.5 2.5,-2.5l0.42971,0.08151c0.09818,-0.33887 0.18026,-0.68008 0.22786,-1.0258c0.14703,-1.06788 -0.16805,-2.17129 0.01355,-3.23384c0.3716,-2.17422 1.7286,-4.10216 2.09256,-6.27768c1.004,-6.00124 -0.0719,-12.97902 0,-19.0784c-1.2726,-3.69267 -2.60527,-7.73334 -3.15239,-11.60407c-0.57309,-4.0545 0.70719,-8.43996 0.01355,-12.46036c-0.18751,-1.08682 -0.87044,-2.05007 -1.04628,-3.13884c-0.81877,-5.06958 -0.03228,-10.95254 -0.03228,-16.09465c0,-0.47532 -0.00954,-6.42645 0.03228,-6.67813c0.36158,-2.17591 1.7286,-4.10216 2.09256,-6.27768c0.52837,-3.15824 -0.03228,-6.84796 -0.03228,-10.06234v-2.09256c0,0 0,-2.5 2.5,-2.5c2.5,0 2.5,2.5 2.5,2.5v2.09256c0,3.48146 0.53755,7.43413 -0.03228,10.86325c-0.36158,2.17591 -1.7286,4.10216 -2.09256,6.27768c-0.32326,1.93225 0.03228,3.91812 0.03228,5.87722c0,4.8341 -0.85169,10.5444 -0.03228,15.29374c0.18751,1.08682 0.87044,2.05007 1.04628,3.13884c0.66584,4.1227 -0.58275,8.5277 0.01355,12.65035c0.55131,3.8116 1.94081,7.75826 3.12529,11.41408c0.05314,5.82662 0.85744,12.43809 0.29507,18.38636c0.78349,0.73994 0.78349,1.8934 0.78349,1.8934c0,4.68019 0,9.96332 0,15.20209c1.07613,0.48747 2.16697,0.94958 3.14689,1.60283c0.7726,0.51504 1.14892,1.51627 1.94511,1.99404c2.76553,1.65952 6.29681,2.60458 9.20057,4.06596c0.17472,0.08793 6.57118,4.34265 6.76427,4.49755c0.6843,0.54896 1.06758,1.45139 1.82191,1.89929c0.9483,0.56308 2.19313,0.47885 3.13884,1.04628c0.84587,0.50752 1.24747,1.58375 2.09256,2.09256c0.87567,0.52722 2.00799,0.47136 2.92289,0.92712c4.64457,2.31371 9.71158,5.17162 14.99627,6.05575c1.93225,0.32326 3.91812,-0.03228 5.87722,-0.03228c0,0 2.5,0 2.5,2.5c0,2.5 -2.5,2.5 -2.5,2.5c-0.47532,0 -6.42645,0.00954 -6.67813,-0.03228c-5.7495,-0.95543 -11.33849,-3.96409 -16.39211,-6.49961c-1.05811,-0.53088 -2.33882,-0.5578 -3.35479,-1.16544c-0.84658,-0.50633 -1.24669,-1.58504 -2.09256,-2.09256c-0.94571,-0.56742 -2.19547,-0.47497 -3.13884,-1.04628c-2.83957,-1.71968 -5.0499,-4.61745 -8.15429,-6.15852c-3.05808,-1.51807 -6.71259,-2.55254 -9.63246,-4.30428c-0.89566,-0.53734 -1.37096,-1.61169 -2.24001,-2.19108c-0.07384,-0.04923 -0.1483,-0.09737 -0.22334,-0.14451c0,0.36331 0,0.72525 0,1.08559c0.1604,1.18228 0.24794,2.42519 0,3.58371c0,0.97505 0,1.9313 0,2.86362c0,2.89576 0.69625,7.22278 -0.06688,9.9909c-1.01205,3.67104 -2.94015,6.3655 -3.74827,9.75079c0.13315,0.00811 0.26721,0.01674 0.40224,0.02599c2.33582,3.13886 4.17834,6.33544 5.92051,9.77194l1.01438,0.52333c4.04599,1.37603 10.11422,4.42647 11.98192,8.73896c0.44672,1.03146 -0.27325,2.30501 0.08303,3.37109c0.39857,1.19263 1.69491,1.9459 2.09256,3.13884c0.33086,0.99259 -0.31615,2.14147 0,3.13884c0.88262,2.78449 4.33372,6.3072 5.96507,8.75423c0,0 0.21733,0.32599 0.35086,0.8059c0.59247,0.07207 1.18243,0.15499 1.71924,0.38713c3.09899,1.34013 6.2318,4.00714 9.09516,6.00763c0.03549,-0.20195 0.07711,-0.3268 0.07711,-0.3268c1.25939,-3.64287 0.62819,-7.00383 2.17798,-10.68361c1.43833,-3.41513 4.37014,-6.14338 6.63061,-8.94382c1.73385,-2.14802 2.55701,-4.90532 4.09037,-7.20076c2.11149,-3.16092 4.21458,-5.35143 5.99608,-8.91145l0.98427,-2.9727c0,0 0.79057,-2.37171 3.16228,-1.58114c2.37171,0.79057 1.58114,3.16228 1.58114,3.16228l-1.10829,3.30498c-1.62526,3.25289 -2.34082,5.15624 -4.56146,7.95222c-0.58157,0.73224 -1.47991,1.19078 -1.99781,1.96936c-1.58573,2.38389 -2.49996,5.20452 -4.27987,7.44715c-1.13143,1.42557 -2.48593,2.79973 -3.6824,4.27844c0.24125,0.04643 0.49942,0.13321 0.77452,0.27075c2.23607,1.11803 1.11803,3.3541 1.11803,3.3541l-1.8955,3.64147c0.062,3.69541 -0.60317,7.62782 -2.27989,10.98679c-0.50333,1.00831 -1.5874,1.69642 -1.94562,2.76492c-0.29835,0.88993 0.22882,1.88891 0.07499,2.81483c-0.42757,2.57361 -1.50272,4.99872 -2.13492,7.52984c-1.22606,4.90874 -2.07127,10.57081 -4.36469,15.13995c-0.50555,1.0072 -1.4576,1.74912 -1.94562,2.76492c-1.06224,2.21103 3.8455,4.23131 4.22551,6.02511c0.1893,0.89357 -1.73195,6.37655 -2.15397,7.64263c0,0 -0.79057,2.37171 -3.16228,1.58114c-2.37171,-0.79057 -1.58114,-3.16228 -1.58114,-3.16228c0.34876,-1.04628 0.6249,-2.11964 1.04628,-3.13884c0.25841,-0.625 1.09528,-1.10664 0.98487,-1.77389c-0.0918,-0.55474 -1.01675,-0.51488 -1.4272,-0.89917c-0.12715,-0.11905 -0.25073,-0.23455 -0.37067,-0.347c-0.15189,0.21999 -0.27891,0.347 -0.27891,0.347c-1.09531,0.9193 -1.87596,2.5196 -3.28594,2.75791c-1.71119,0.28922 -3.47056,-0.58624 -5.02755,-1.35277c-0.98324,-0.48407 -1.50652,-1.60233 -2.3632,-2.28583c-1.96591,-1.56849 -4.31217,-2.61613 -6.27768,-4.18512c-1.98743,-1.5865 -3.71987,-3.50421 -5.83901,-4.90995c-1.68454,-1.11745 -3.37805,-2.23854 -5.18347,-3.14785c-1.62316,-0.81752 -2.63677,-0.84736 -3.8048,-1.11243c-0.06702,0.8908 -0.10357,1.7789 0.04694,2.6513c0.18751,1.08682 0.87708,2.04902 1.04628,3.13884c0.13231,0.85226 -0.46792,1.77771 -0.15802,2.58259c0.27021,0.70178 1.23682,0.88491 1.71622,1.4643c1.94216,2.34722 5.72714,6.40585 6.73705,9.23075c0.35222,0.98521 -0.33086,2.14625 0,3.13884c0.39765,1.19294 1.70029,1.94412 2.09256,3.13884c1.22028,3.7166 -0.55065,4.42958 2.51388,7.32693c0,0 1.76777,1.76777 0,3.53553c-1.76777,1.76777 -3.53553,0 -3.53553,0c-1.765,-1.8331 -3.36114,-4.09924 -3.83879,-6.59871c-0.17618,-0.92193 0.37624,-1.92588 0.07499,-2.81483c-0.40359,-1.19095 -1.69491,-1.9459 -2.09256,-3.13884c-0.33086,-0.99259 0.30201,-2.13709 0,-3.13884c-1.17403,-3.89418 -6.76082,-6.50256 -8.2872,-10.23055c-0.46713,-1.1409 0.05594,-2.48098 -0.15802,-3.69509c-0.1914,-1.08614 -0.87044,-2.05007 -1.04628,-3.13884c-0.32947,-2.04 0.33872,-4.16193 0.01284,-6.20041c-1.01706,-0.89017 -1.99374,-1.83946 -3.11699,-2.58271l-1.4273,-1.35864c0,0 -1.76777,-1.76777 0,-3.53553c1.66417,-1.66417 3.32834,-0.19505 3.51768,-0.01715c0.072,-1.02146 0.1147,-2.04091 -0.03251,-3.04603c-0.32676,-2.23109 -1.058,-4.42334 -1.07856,-6.67813c0,-2.81188 0.50969,-6.24898 0.03228,-9.01606c-0.18751,-1.08682 -0.87044,-2.05007 -1.04628,-3.13884c-0.65779,-4.07284 -0.03228,-8.82418 -0.03228,-12.95581c0,-7.32396 0,-14.64791 0,-21.97187v-1.95481c-1.10491,-0.18531 -2.2368,-0.48888 -3.52197,-0.90488l-1.70943,-3.41799c0,0 0,-2.5 2.5,-2.5c1.5057,0 2.10455,0.90686 2.34272,1.62821c0.93223,0.22429 1.84138,0.35995 2.75473,0.44966c0.34455,-2.31405 1.01363,-4.51245 2.00937,-6.81225c0.16999,-0.39261 0.37825,-0.76861 0.59759,-1.13952c-0.52338,0.40187 -1.29365,0.65693 -2.35521,0.2323c-2.32119,-0.92848 -1.39272,-3.24967 -1.39272,-3.24967c0.58211,-1.43125 1.32315,-2.80774 1.74632,-4.29376c0.61571,-2.16214 0.46364,-4.60763 1.58708,-6.55489c0.37189,-0.64459 1.24291,-0.89632 1.71919,-1.45123c0,-0.96233 0,-1.92466 0,-2.88699c-0.76071,-1.3727 -2.26835,-2.58254 -2.76547,-3.49592c-0.51396,-0.94433 -0.97689,-1.96199 -1.22707,-3.01414c-0.60603,-0.06672 -2.28514,-0.43646 -2.28514,-2.48531zM217.97956,280.2899c1.81519,1.10478 4.15873,1.02787 6.06173,1.9734c1.9695,0.97857 3.8222,2.18387 5.64956,3.4075c3.3672,2.25473 5.94555,4.99351 9.28672,7.22096c1.83436,1.2229 3.48669,2.70202 5.15897,4.13862c0.36729,0.31552 0.78894,0.88729 1.25013,0.73978c0.53555,-0.17129 0.59945,-0.95147 0.89917,-1.4272c0,0 0.44192,-0.44192 1.10481,-0.6629c-0.14576,-0.89835 -0.03298,-1.99592 0.36278,-3.52519c0.34791,-1.34435 1.62037,-2.26978 2.2395,-3.51276c0.91987,-1.84675 1.37151,-3.89441 1.93805,-5.87827c1.40475,-4.91908 3.27969,-10.38344 4.1177,-15.39568c0.19039,-1.13875 -0.2886,-2.36704 0.07499,-3.46284c0.4373,-1.31798 1.61766,-2.27113 2.2395,-3.51276c0.09163,-0.18295 0.17894,-0.3676 0.26213,-0.5538c-0.22159,-0.00209 -0.46222,-0.03517 -0.72306,-0.10737c-0.05711,0.32598 -0.19445,0.67858 -0.44455,1.05374c-1.38675,2.08013 -3.46688,0.69338 -3.46688,0.69338c-2.79301,-1.86201 -5.95642,-4.76194 -9.04115,-6.07152c-1.39757,-0.59332 -3.09331,-0.39324 -4.40548,-1.15707c-1.76068,-1.02491 -6.99956,-6.16257 -8.21884,-8.18513c-1.67683,-2.78157 -1.49852,-6.66364 -3.13884,-9.41652c-1.9404,-3.25648 -6.36221,-5.0942 -8.37024,-8.37024c-0.56991,-0.92979 -0.62831,-2.09556 -1.04901,-3.10068c-0.14488,-0.2021 -0.27012,-0.43887 -0.34521,-0.71031c-1.1546,-2.30348 -2.28238,-4.569 -3.44388,-6.87716c-0.26393,0.16732 -0.5915,0.29116 -0.99807,0.34084c0,7.07224 0,16.10202 0,22.63462c0,3.83173 -0.68191,8.38959 -0.03228,12.1549c0.18751,1.08682 0.87044,2.05007 1.04628,3.13884c0.4939,3.05811 0.03228,6.71215 0.03228,9.81697c-0.02343,1.98788 0.73908,3.9083 1.014,5.87722c0.33761,2.41786 -0.41507,4.91818 0,7.32396c0.05804,0.33642 0.16355,0.66099 0.2868,0.98111c0.21222,0.15125 0.42922,0.29574 0.65237,0.43155z" fill="#990000"/><path d="M266.47921,121.28949c0,-1.38071 1.11929,-2.5 2.5,-2.5c1.38071,0 2.5,1.11929 2.5,2.5c0,0.66786 -0.26189,1.27456 -0.68857,1.723c0.22576,-0.08254 0.43248,-0.19328 0.60592,-0.35193c0.54269,-0.49641 0.29489,-1.44109 0.44234,-2.16164l-0.12829,-0.25571c0,0 0,-2.5 2.5,-2.5c2.5,0 2.5,2.5 2.5,2.5l-0.12829,1.83685c-0.55007,1.37201 -0.64209,3.03498 -1.65022,4.11604c-0.67568,0.72456 -2.24722,-0.02326 -2.8785,0.74029c-0.48588,0.58768 0.60378,1.51528 0.40502,2.25144c-0.45649,1.69076 -1.52641,3.15251 -2.28961,4.72877c0,0 -1.11803,2.23607 -3.3541,1.11803c-2.23607,-1.11803 -1.11803,-3.3541 -1.11803,-3.3541c0.63183,-1.21382 1.50226,-2.33077 1.8955,-3.64147c0.38762,-1.29195 -0.37388,-2.925 0.40502,-4.02623c0.08905,-0.1259 0.19555,-0.22842 0.31548,-0.31313c-1.05722,-0.29164 -1.83365,-1.26026 -1.83365,-2.41021z" fill="#990000"/><path d="M261.24781,120.24321c0,-1.38071 1.11929,-2.5 2.5,-2.5c1.38071,0 2.5,1.11929 2.5,2.5c0,1.38071 -1.11929,2.5 -2.5,2.5c-1.38071,0 -2.5,-1.11929 -2.5,-2.5z" fill="#990000"/><path d="M229.24338,277.38063c-1.16763,1.314 -2.40404,2.57419 -3.48643,3.66483c0,0 -1.76777,1.76777 -3.53553,0c-1.76777,-1.76777 0,-3.53553 0,-3.53553c1.52786,-1.51422 2.67097,-3.37271 4.01953,-5.0486c0.54999,-0.68348 1.45139,-1.06758 1.89929,-1.82191c1.28867,-2.1703 2.02138,-5.15963 4.30876,-6.22677c1.11722,-0.52122 2.48011,0.05095 3.69509,-0.15802c2.01,-0.3457 3.89706,-1.12884 5.67544,-2.09878c1.0765,-1.4748 2.31424,-2.89253 3.18482,-2.9746c0.32192,-0.03035 0.64059,-0.02645 0.95671,0.00441v-0.19471h3.13884c1.38071,0 2.5,1.11929 2.5,2.5c0,1.1246 -0.74256,2.07576 -1.76412,2.38994l-2.84655,0.94885c-0.43582,0.28946 -0.88024,0.57445 -1.33271,0.85197c-0.50593,0.71411 -1.14503,1.45414 -1.80045,2.42739c-2.94086,4.36695 -6.80174,7.60971 -11.75235,9.35519l-1.83685,0.12829c0,0 -0.48246,0 -1.02348,-0.21194zM232.91505,271.72866c1.27528,-0.67243 2.45439,-1.53366 3.52349,-2.52309c-0.69542,-0.05345 -1.40673,-0.35289 -2.07613,-0.17353c-1.02025,0.27336 -1.19118,1.51221 -1.44736,2.69663z" fill="#990000"/><path d="M222.27179,62.29738c-0.04711,4.03709 1.5896,6.17418 3.79752,9.4765c0,0 1.38675,2.08013 -0.69338,3.46688c-2.08013,1.38675 -3.46688,-0.69338 -3.46688,-0.69338c-2.12972,-3.20311 -3.87715,-5.82009 -4.40783,-9.34382l-0.43213,-0.07283l-0.8113,0.70594c0,-0.27993 0.00914,-0.55934 0.02656,-0.8382l-0.80891,-0.13633c0,0 -0.99977,-1.99954 0.78235,-3.16237v-2.14078c0,-1.38071 1.11929,-2.5 2.5,-2.5c1.1246,0 2.07576,0.74256 2.38994,1.76412l1.02805,3.08415l-0.15777,0.05259z" fill="#990000"/></g></g></svg>