<svg version="1.1" xmlns="http://www.w3.org/2000/svg" xmlns:xlink="http://www.w3.org/1999/xlink" width="80.09181" height="76.13879" viewBox="0,0,80.09181,76.13879"><g transform="translate(-200.14395,-157.24325)"><g data-paper-data="{&quot;isPaintingLayer&quot;:true}" fill-rule="nonzero" stroke-linejoin="miter" stroke-miterlimit="10" stroke-dasharray="" stroke-dashoffset="0" style="mix-blend-mode: normal"><path d="M214.21136,199.5l27,-39l21,36c0,0 8.57392,0.07553 -0.82572,0.44415c-5.83158,0.22869 -47.17428,2.55585 -47.17428,2.55585z" fill="#8300db" stroke="#ff00b9" stroke-width="3.5" stroke-linecap="round"/><path d="M237.5,180c0,-1.38071 1.11929,-2.5 2.5,-2.5c1.38071,0 2.5,1.11929 2.5,2.5c0,1.38071 -1.11929,2.5 -2.5,2.5c-1.38071,0 -2.5,-1.11929 -2.5,-2.5z" fill="#4f00db" stroke="none" stroke-width="0.5" stroke-linecap="butt"/><path d="" fill="#4f00db" stroke="none" stroke-width="0.5" stroke-linecap="butt"/><path d="M200.92962,160.11427c1.76777,-1.76777 3.53553,0 3.53553,0l1,1c3.80003,3.80003 8.32412,7.01177 11.31236,11.38102c0,0 1.38675,2.08013 -0.69338,3.46688c-2.08013,1.38675 -3.46688,-0.69338 -3.46688,-0.69338c-2.60398,-4.04101 -7.19996,-7.1313 -10.68764,-10.61898l-1,-1c0,0 -1.76777,-1.76777 0,-3.53553z" fill="#4f00db" stroke="none" stroke-width="0.5" stroke-linecap="butt"/><path d="M240.69739,233.38204c-2.5,0 -2.5,-2.5 -2.5,-2.5l0.12829,-1.20943c-0.15388,-0.46164 -2.05219,-6.12635 -2.09601,-6.39011c-0.5824,-3.50513 -0.04918,-6.23462 -0.95764,-9.79412c0,0 -0.60634,-2.42536 1.81902,-3.0317c2.42536,-0.60634 3.0317,1.81902 3.0317,1.81902c0.89695,3.65339 0.45011,6.66652 1.04236,10.20588c0.32591,1.94765 1.27953,3.73649 1.90399,5.60989l0.12829,2.79057c0,0 0,2.5 -2.5,2.5z" fill="#4f00db" stroke="none" stroke-width="0.5" stroke-linecap="butt"/><path d="" fill="#4f00db" stroke="none" stroke-width="0.5" stroke-linecap="butt"/><path d="M266.46515,174.64982c0,0 -1.76777,1.76777 -3.53553,0c-1.76777,-1.76777 0,-3.53553 0,-3.53553c2.14074,-2.1318 3.74991,-3.9378 6.6075,-5.44668c2.76587,-1.46045 5.93842,-2.48611 9.16847,-3.37672c0.07259,1.80531 0.62379,3.4874 1.53016,4.92284c-5.06976,1.55241 -9.89106,3.53811 -13.7706,7.4361z" fill="#4f00db" stroke="none" stroke-width="0.5" stroke-linecap="butt"/></g></g></svg>