<svg version="1.1" xmlns="http://www.w3.org/2000/svg" xmlns:xlink="http://www.w3.org/1999/xlink" width="41.78752" height="41.12438" viewBox="0,0,41.78752,41.12438"><g transform="translate(-219.10624,-159.43781)"><g data-paper-data="{&quot;isPaintingLayer&quot;:true}" stroke-miterlimit="10" stroke-dasharray="" stroke-dashoffset="0" style="mix-blend-mode: normal"><g fill-rule="evenodd"><path d="" fill="#ffab19" stroke="#001026" stroke-width="1.2" stroke-linecap="round" stroke-linejoin="round"/><path d="" fill="#ffffff" stroke="none" stroke-width="1" stroke-linecap="butt" stroke-linejoin="miter"/></g><path d="" fill="#ffab19" fill-rule="evenodd" stroke="#001026" stroke-width="1.2" stroke-linecap="round" stroke-linejoin="round"/><path d="" fill="#ffab19" fill-rule="evenodd" stroke="#001026" stroke-width="1.2" stroke-linecap="round" stroke-linejoin="round"/><g fill-rule="evenodd"><path d="" fill="#ffab19" stroke="#001026" stroke-width="1.2" stroke-linecap="round" stroke-linejoin="round"/><path d="" fill="#ffffff" stroke="none" stroke-width="1" stroke-linecap="butt" stroke-linejoin="miter"/></g><path d="" fill="#ffab19" fill-rule="evenodd" stroke="#001026" stroke-width="1.2" stroke-linecap="round" stroke-linejoin="round"/><g fill-rule="evenodd"><path d="" fill="#ffab19" stroke="#001026" stroke-width="1.2" stroke-linecap="butt" stroke-linejoin="miter"/><path d="" fill="#ffffff" stroke="none" stroke-width="1" stroke-linecap="butt" stroke-linejoin="miter"/><path d="" fill="#ffffff" stroke="#001026" stroke-width="1.2" stroke-linecap="round" stroke-linejoin="round"/><path d="" fill="#001026" stroke="#001026" stroke-width="1.2" stroke-linecap="round" stroke-linejoin="round"/><g><path d="" fill="#ffffff" stroke="#001026" stroke-width="1.2" stroke-linecap="round" stroke-linejoin="round"/><path d="" fill="#001026" stroke="none" stroke-width="1" stroke-linecap="butt" stroke-linejoin="miter"/></g><g><path d="" fill="#ffffff" stroke="#001026" stroke-width="1.2" stroke-linecap="round" stroke-linejoin="round"/><path d="" fill="#001026" stroke="none" stroke-width="1" stroke-linecap="butt" stroke-linejoin="miter"/></g></g><g fill-rule="nonzero" stroke-linecap="butt" stroke-linejoin="miter"><path d="M259.89376,180c0,10.8039 -8.90674,19.56219 -19.89376,19.56219c-10.98702,0 -19.89376,-8.75829 -19.89376,-19.56219c0,-10.8039 8.90674,-19.56219 19.89376,-19.56219c10.98702,0 19.89376,8.75829 19.89376,19.56219z" fill="#ff9e66" stroke="#000000" stroke-width="2"/><path d="M229.47386,174.3023c0,-1.38071 1.11929,-2.5 2.5,-2.5c1.38071,0 2.5,1.11929 2.5,2.5c0,1.38071 -1.11929,2.5 -2.5,2.5c-1.38071,0 -2.5,-1.11929 -2.5,-2.5z" fill="#bf774d" stroke="none" stroke-width="0.5"/><path d="M243.656,176.50615c0,-1.38071 1.11929,-2.5 2.5,-2.5c1.38071,0 2.5,1.11929 2.5,2.5c0,1.38071 -1.11929,2.5 -2.5,2.5c-1.38071,0 -2.5,-1.11929 -2.5,-2.5z" fill="#bf774d" stroke="none" stroke-width="0.5"/><path d="M224.39276,184.92615c0,-1.38071 1.11929,-2.5 2.5,-2.5c0.94431,0 1.76634,0.52356 2.19164,1.29624c2.73215,0.37089 5.5029,0.8981 8.24323,1.08079c2.92667,0.19511 5.98028,-0.35833 8.88947,0.01933c1.73369,0.22506 3.44023,0.78402 5.18837,0.76657l-0.20065,-0.37086c0,0 2.08013,-1.38675 3.46688,0.69338c1.38675,2.08013 -0.69338,3.46688 -0.69338,3.46688l-2.57285,1.21061c-1.97929,-0.01536 -3.92092,-0.54568 -5.88188,-0.8149c-2.75162,-0.37776 -5.72903,0.20451 -8.50665,0.01933c-3.07757,-0.20517 -6.18721,-0.81805 -9.24817,-1.20057c0,0 -1.50683,-0.18835 -2.02493,-1.44585c-0.80264,-0.41606 -1.35109,-1.25445 -1.35109,-2.22094z" fill="#bf774d" stroke="none" stroke-width="0.5"/></g></g></g></svg>