<svg version="1.1" xmlns="http://www.w3.org/2000/svg" xmlns:xlink="http://www.w3.org/1999/xlink" width="153.03692" height="54.83784" viewBox="0,0,153.03692,54.83784"><g transform="translate(-161.00001,-214.16218)"><g data-paper-data="{&quot;isPaintingLayer&quot;:true}" fill-rule="nonzero" stroke-linejoin="miter" stroke-miterlimit="10" stroke-dasharray="" stroke-dashoffset="0" style="mix-blend-mode: normal"><path d="M286.30285,228.53974c-7.10597,2.41335 7.16667,-7.66667 7.16667,-7.66667c0,0 11.31952,-5.65964 8.83333,-3c-2.48618,2.65964 -8.89403,8.25332 -16,10.66667z" fill="none" stroke="#e8e8e8" stroke-width="6" stroke-linecap="round"/><path d="M234.50002,232.71823v27.38371l-29,6.39807" fill="none" stroke="#000000" stroke-width="5" stroke-linecap="round"/><path d="M204.50002,224.78464c0,-4.3816 13.87918,-7.93359 31,-7.93359c17.12082,0 31,3.552 31,7.93359c0,4.3816 -13.87918,7.93359 -31,7.93359c-17.12082,0 -31,-3.552 -31,-7.93359z" fill="none" stroke="#000000" stroke-width="5" stroke-linecap="butt"/><path d="M284.50001,234.25377l-49,9.98098l-72,-9.46913" fill="none" stroke="#000000" stroke-width="5" stroke-linecap="round"/><path d="M262.50002,265.73222l-27,-5.6303" fill="none" stroke="#000000" stroke-width="5" stroke-linecap="round"/><path d="M247.50002,227.59978c0,0 -4.2511,2.37369 -12.01554,2.43993c-7.76444,0.06624 -17.98446,-2.18401 -17.98446,-2.18401" fill="none" stroke="#000000" stroke-width="2.5" stroke-linecap="round"/><path d="M221.00002,221.96948c0,-0.35336 1.11929,-0.63981 2.5,-0.63981c1.38071,0 2.5,0.28645 2.5,0.63981c0,0.35336 -1.11929,0.63981 -2.5,0.63981c-1.38071,0 -2.5,-0.28645 -2.5,-0.63981z" fill="#000000" stroke="none" stroke-width="0.5" stroke-linecap="butt"/><path d="M242.00002,221.71356c0,-0.35336 1.11929,-0.63981 2.5,-0.63981c1.38071,0 2.5,0.28645 2.5,0.63981c0,0.35336 -1.11929,0.63981 -2.5,0.63981c-1.38071,0 -2.5,-0.28645 -2.5,-0.63981z" fill="#000000" stroke="none" stroke-width="0.5" stroke-linecap="butt"/><path d="M226.75,240.30526v-2.63919l8.88595,-1.40758l7.61407,1.40758v2.72718l-8.06094,1.49554z" fill="#ffffff" stroke="#000000" stroke-width="0.5" stroke-linecap="round"/><path d="M237.16975,239.84263c0.15577,0 0.28205,0.03232 0.28205,0.07217c0,0.03 -0.0715,0.05573 -0.17327,0.06661c0.0242,0.0224 0.03092,0.04507 0.01686,0.06577c0.18946,0.02067 0.15257,0.07731 0.15257,0.07731l-0.29911,0.09239c-0.54623,-0.00069 -1.65828,-0.16707 -0.96375,-0.31624c0.03773,-0.01403 0.09436,-0.02447 0.16047,-0.02894c0.22938,-0.03398 0.44127,-0.0285 0.60705,-0.00301c0.05173,-0.01595 0.1298,-0.0261 0.21713,-0.0261z" fill="#249000" stroke="none" stroke-width="0.5" stroke-linecap="butt"/><path d="M231.96747,239.03791l-0.58499,-0.02674l0.04179,-0.23527l0.87749,0.03208l0.04178,0.12832l-0.20892,0.03743l-0.2925,-0.07485" fill="none" stroke="#249000" stroke-width="1" stroke-linecap="round"/><path d="M232.38533,239.87737l1.35803,-0.36893l0.2716,0.06417l-1.50428,0.38498" fill="none" stroke="#4d4615" stroke-width="1" stroke-linecap="round"/><path d="M231.67498,240.17145l-0.04178,-0.24061l0.25071,-0.0107l0.33428,0.14972l-0.04179,0.21389l-0.98195,-0.00534v-0.37963" fill="none" stroke="#249000" stroke-width="1" stroke-linecap="round"/><path d="M241.87822,237.7993l-0.24146,0.28837l-6.82835,1.4196l1.77849,0.3425l0.76851,0.0299l-0.0584,0.33157l-1.03918,-0.04302l-0.28561,-0.1985l-1.62465,-0.35582l-1.76282,0.4455l-0.0876,0.28637l-1.63034,-0.01877l0.0876,-0.47721h1.02422l1.62322,-0.4136l-1.55057,-0.33867l-0.92948,-0.04302l0.11752,-0.36893l1.33903,0.05814l0.08761,0.25282l1.08903,0.32374l5.78918,-1.45916z" fill="none" stroke="#000000" stroke-width="0.5" stroke-linecap="round"/><g><path d="M305.5478,231.46151c0.84721,-0.13745 1.96937,-0.07308 2.50639,0.14374c0.40412,0.16316 0.36173,0.36616 -0.04499,0.51521c0.43331,0.10046 0.77527,0.21784 0.97779,0.34285c1.30875,-0.05479 1.87121,0.28586 1.87121,0.28586l-0.38212,0.76643c-2.98001,0.47824 -11.26954,0.55447 -9.50167,-0.86966c0.01623,-0.1096 0.18348,-0.21638 0.48303,-0.29894c0.78963,-0.38726 2.01593,-0.54437 3.26114,-0.5519c0.06649,-0.1324 0.35426,-0.25652 0.82924,-0.33358z" fill="#249000" stroke="none" stroke-width="0.5" stroke-linecap="butt"/><path d="M266.41351,231.6748l-3.54178,0.37074l-2.94193,-1.31642l5.20465,-0.59972l1.95592,0.66107l-0.63212,0.3879l-2.59923,-0.14907" fill="none" stroke="#249000" stroke-width="4" stroke-linecap="round"/><path d="M279.99444,235.8718l2.41615,-3.20474l2.34153,0.10933l-2.99548,3.42103" fill="none" stroke="#4d4615" stroke-width="4" stroke-linecap="round"/><path d="M280.09255,238.09798l-3.46849,-1.27177l1.21948,-0.27936l3.83488,0.51932l2.65381,1.20009l-5.41269,0.8373l-5.11396,-2.06474" fill="none" stroke="#249000" stroke-width="4" stroke-linecap="round"/><path d="M303.63093,216.19413l2.57138,1.78142l-18.01467,13.74554l14.2867,0.29368l4.5825,-0.51548l4.14889,1.85487l-6.23134,0.68289l-4.22741,-0.82764l-13.62922,-0.50179l-3.58641,3.97828l3.38111,1.63478l-9.12,1.33632l-5.95199,-2.67274l5.5705,-0.90366l3.25688,-3.68162l-12.99553,-0.47394l-5.63476,0.58611l-4.33073,-2.11025l8.06603,-0.86517l3.88222,1.29776l10.28396,0.79987l11.82997,-13.04384z" fill="none" stroke="#000000" stroke-width="1.5" stroke-linecap="round"/></g></g></g></svg>