<svg version="1.1" xmlns="http://www.w3.org/2000/svg" xmlns:xlink="http://www.w3.org/1999/xlink" width="151.27487" height="200.29508" viewBox="0,0,151.27487,200.29508"><g transform="translate(-161.00002,-68.70492)"><g data-paper-data="{&quot;isPaintingLayer&quot;:true}" fill-rule="nonzero" stroke-linejoin="miter" stroke-miterlimit="10" stroke-dasharray="" stroke-dashoffset="0" style="mix-blend-mode: normal"><path d="M234.50004,134.5v107l-29,25" fill="none" stroke="#000000" stroke-width="5" stroke-linecap="round"/><path d="M204.50004,103.5c0,-17.12082 13.87918,-31 31,-31c17.12082,0 31,13.87918 31,31c0,17.12082 -13.87918,31 -31,31c-17.12082,0 -31,-13.87918 -31,-31z" fill="none" stroke="#000000" stroke-width="5" stroke-linecap="butt"/><path d="M284.50003,140.5l-49,39l-72,-37" fill="none" stroke="#000000" stroke-width="5" stroke-linecap="round"/><path d="M235.50004,241.5l27,22" fill="none" stroke="#000000" stroke-width="5" stroke-linecap="round"/><path d="M247.50004,114.5c0,0 -4.2511,9.27504 -12.01554,9.53385c-7.76444,0.25882 -17.98446,-8.53385 -17.98446,-8.53385" fill="none" stroke="#000000" stroke-width="2.5" stroke-linecap="round"/><path d="M221.00004,92.5c0,-1.38071 1.11929,-2.5 2.5,-2.5c1.38071,0 2.5,1.11929 2.5,2.5c0,1.38071 -1.11929,2.5 -2.5,2.5c-1.38071,0 -2.5,-1.11929 -2.5,-2.5z" fill="#000000" stroke="none" stroke-width="0.5" stroke-linecap="butt"/><path d="M242.00004,91.5c0,-1.38071 1.11929,-2.5 2.5,-2.5c1.38071,0 2.5,1.11929 2.5,2.5c0,1.38071 -1.11929,2.5 -2.5,2.5c-1.38071,0 -2.5,-1.11929 -2.5,-2.5z" fill="#000000" stroke="none" stroke-width="0.5" stroke-linecap="butt"/><path d="M219.50004,152.5l-9,-25" fill="none" stroke="none" stroke-width="0" stroke-linecap="round"/><path d="M226.75002,164.14584v-10.31251l8.88595,-5.50001l7.61407,5.50001v10.65626l-8.06094,5.84376z" fill="#ffffff" stroke="#000000" stroke-width="0.5" stroke-linecap="round"/><path d="M237.16977,162.33809c0.15577,0 0.28205,0.12628 0.28205,0.28205c0,0.11722 -0.0715,0.21773 -0.17327,0.26031c0.0242,0.08751 0.03092,0.17611 0.01686,0.25701c0.18946,0.08073 0.15257,0.30208 0.15257,0.30208l-0.29911,0.36104c-0.54623,-0.00266 -1.65828,-0.65279 -0.96375,-1.23569c0.03773,-0.05482 0.09436,-0.09564 0.16047,-0.11305c0.22938,-0.13283 0.44127,-0.11139 0.60705,-0.01173c0.05173,-0.06233 0.1298,-0.10202 0.21713,-0.10202z" fill="#249000" stroke="none" stroke-width="0.5" stroke-linecap="butt"/><path d="M231.96749,159.19374l-0.58499,-0.10446l0.04179,-0.91928l0.87749,0.12535l0.04178,0.50142l-0.20892,0.14625l-0.2925,-0.2925" fill="none" stroke="#249000" stroke-width="1" stroke-linecap="round"/><path d="M232.38535,162.47389l1.35803,-1.44159l0.2716,0.25071l-1.50428,1.50427" fill="none" stroke="#4d4615" stroke-width="1" stroke-linecap="round"/><path d="M231.675,163.62299l-0.04178,-0.94017l0.25071,-0.04179l0.33428,0.585l-0.04179,0.83571l-0.98195,-0.02089v-1.48338" fill="none" stroke="#249000" stroke-width="1" stroke-linecap="round"/><path d="M241.87824,154.35398l-0.24146,1.12678l-6.82835,5.54701l1.77849,1.33832l0.76851,0.11681l-0.0584,1.29559l-1.03918,-0.16809l-0.28561,-0.77564l-1.62465,-1.39032l-1.76282,1.74074l-0.0876,1.11895l-1.63034,-0.07336l0.0876,-1.86467h1.02422l1.62322,-1.6161l-1.55057,-1.32336l-0.92948,-0.16809l0.11752,-1.44159l1.33903,0.2272l0.08761,0.98789l1.08903,1.26496l5.78918,-5.70157z" fill="none" stroke="#000000" stroke-width="0.5" stroke-linecap="round"/><g><path d="M284.23866,131.01128l11.07808,-49.38978c0,0 7.73964,-8.35249 7.15459,-6.00063c-0.58504,2.35186 -18.23268,55.39041 -18.23268,55.39041z" fill="none" stroke="#e8e8e8" stroke-width="7.5" stroke-linecap="round"/><path d="M298.75865,133.82677l-29.96314,-4.43359" fill="none" stroke="#e8e8e8" stroke-width="5" stroke-linecap="round"/><g><path d="M305.54782,129.58945c0.84721,-0.53703 1.96937,-0.28557 2.50639,0.56165c0.40412,0.63755 0.36173,1.43072 -0.04499,2.01314c0.43331,0.39251 0.77527,0.85119 0.97779,1.33967c1.30875,-0.21407 1.87121,1.11699 1.87121,1.11699l-0.38212,2.9948c-2.98001,1.86865 -11.26954,2.16656 -9.50167,-3.39816c0.01623,-0.42823 0.18348,-0.84546 0.48303,-1.16809c0.78963,-1.51323 2.01593,-2.12707 3.26114,-2.15656c0.06649,-0.51734 0.35426,-1.00234 0.82924,-1.30342z" fill="#249000" stroke="none" stroke-width="0.5" stroke-linecap="butt"/><path d="M266.41353,130.42286l-3.54178,1.44862l-2.94193,-5.14384l5.20465,-2.34337l1.95592,2.58311l-0.63212,1.5157l-2.59923,-0.58245" fill="none" stroke="#249000" stroke-width="4" stroke-linecap="round"/><path d="M279.99446,146.82237l2.41615,-12.52233l2.34153,0.42723l-2.99548,13.36742" fill="none" stroke="#4d4615" stroke-width="4" stroke-linecap="round"/><path d="M280.09256,155.52101l-3.46849,-4.96934l1.21948,-1.0916l3.83488,2.02924l2.65381,4.68931l-5.41269,3.27165l-5.11396,-8.06781" fill="none" stroke="#249000" stroke-width="4" stroke-linecap="round"/><path d="M303.63095,69.93316l2.57138,6.96076l-18.01467,53.70979l14.2867,1.14752l4.5825,-2.01417l4.14889,7.24778l-6.23134,2.66834l-4.22741,-3.23394l-13.62922,-1.96068l-3.58641,15.54488l3.38111,6.38777l-9.12,5.2216l-5.95199,-10.44359l5.5705,-3.53098l3.25688,-14.38568l-12.99553,-1.85189l-5.63476,2.29019l-4.33073,-8.24567l8.06603,-3.3806l3.88222,5.07091l10.28396,3.12545l11.82997,-50.96791z" fill="none" stroke="#000000" stroke-width="1.5" stroke-linecap="round"/></g></g></g></g></svg>